<mxfile host="Electron" agent="Mozilla/5.0 (Windows NT 10.0; Win64; x64) AppleWebKit/537.36 (KHTML, like Gecko) draw.io/26.0.9 Chrome/128.0.6613.186 Electron/32.2.5 Safari/537.36" version="26.0.9">
  <diagram name="Page-1" id="oBOEoh2rafKRMkXW-z-0">
    <mxGraphModel dx="3267" dy="984" grid="1" gridSize="10" guides="1" tooltips="1" connect="1" arrows="1" fold="1" page="1" pageScale="1" pageWidth="827" pageHeight="1169" math="0" shadow="0">
      <root>
        <mxCell id="0" />
        <mxCell id="1" parent="0" />
        <mxCell id="AEIaR-JQplcSrDzmcX76-6" value="" style="edgeStyle=orthogonalEdgeStyle;rounded=0;orthogonalLoop=1;jettySize=auto;html=1;" edge="1" parent="1" target="AEIaR-JQplcSrDzmcX76-5">
          <mxGeometry relative="1" as="geometry">
            <mxPoint x="284" y="340" as="sourcePoint" />
          </mxGeometry>
        </mxCell>
        <mxCell id="AEIaR-JQplcSrDzmcX76-4" value="&lt;b&gt;&lt;font style=&quot;font-size: 18px;&quot;&gt;TELECOM&amp;nbsp;&lt;/font&gt;&lt;/b&gt;" style="rounded=1;whiteSpace=wrap;html=1;fillColor=#d5e8d4;gradientColor=#97d077;strokeColor=#82b366;" vertex="1" parent="1">
          <mxGeometry x="274" y="290" width="280" height="90" as="geometry" />
        </mxCell>
        <mxCell id="AEIaR-JQplcSrDzmcX76-8" value="" style="edgeStyle=orthogonalEdgeStyle;rounded=0;orthogonalLoop=1;jettySize=auto;html=1;" edge="1" parent="1" source="AEIaR-JQplcSrDzmcX76-5" target="AEIaR-JQplcSrDzmcX76-7">
          <mxGeometry relative="1" as="geometry" />
        </mxCell>
        <mxCell id="AEIaR-JQplcSrDzmcX76-5" value="2G" style="whiteSpace=wrap;html=1;fillColor=#d5e8d4;strokeColor=#82b366;rounded=1;gradientColor=#97d077;" vertex="1" parent="1">
          <mxGeometry y="425" width="120" height="60" as="geometry" />
        </mxCell>
        <mxCell id="AEIaR-JQplcSrDzmcX76-10" value="" style="edgeStyle=orthogonalEdgeStyle;rounded=0;orthogonalLoop=1;jettySize=auto;html=1;" edge="1" parent="1" source="AEIaR-JQplcSrDzmcX76-7" target="AEIaR-JQplcSrDzmcX76-9">
          <mxGeometry relative="1" as="geometry" />
        </mxCell>
        <mxCell id="AEIaR-JQplcSrDzmcX76-23" style="edgeStyle=orthogonalEdgeStyle;rounded=0;orthogonalLoop=1;jettySize=auto;html=1;" edge="1" parent="1" source="AEIaR-JQplcSrDzmcX76-7" target="AEIaR-JQplcSrDzmcX76-15">
          <mxGeometry relative="1" as="geometry" />
        </mxCell>
        <mxCell id="AEIaR-JQplcSrDzmcX76-7" value="3G" style="whiteSpace=wrap;html=1;fillColor=#d5e8d4;strokeColor=#82b366;rounded=1;gradientColor=#97d077;" vertex="1" parent="1">
          <mxGeometry x="200" y="425" width="120" height="60" as="geometry" />
        </mxCell>
        <mxCell id="AEIaR-JQplcSrDzmcX76-12" value="" style="edgeStyle=orthogonalEdgeStyle;rounded=0;orthogonalLoop=1;jettySize=auto;html=1;" edge="1" parent="1" source="AEIaR-JQplcSrDzmcX76-9" target="AEIaR-JQplcSrDzmcX76-11">
          <mxGeometry relative="1" as="geometry" />
        </mxCell>
        <mxCell id="AEIaR-JQplcSrDzmcX76-26" style="edgeStyle=orthogonalEdgeStyle;rounded=0;orthogonalLoop=1;jettySize=auto;html=1;" edge="1" parent="1" source="AEIaR-JQplcSrDzmcX76-9">
          <mxGeometry relative="1" as="geometry">
            <mxPoint x="540" y="530" as="targetPoint" />
          </mxGeometry>
        </mxCell>
        <mxCell id="AEIaR-JQplcSrDzmcX76-9" value="4G" style="whiteSpace=wrap;html=1;fillColor=#d5e8d4;strokeColor=#82b366;rounded=1;gradientColor=#97d077;" vertex="1" parent="1">
          <mxGeometry x="400" y="425" width="120" height="60" as="geometry" />
        </mxCell>
        <mxCell id="AEIaR-JQplcSrDzmcX76-11" value="5G&amp;nbsp;" style="whiteSpace=wrap;html=1;fillColor=#d5e8d4;strokeColor=#82b366;rounded=1;gradientColor=#97d077;" vertex="1" parent="1">
          <mxGeometry x="600" y="425" width="120" height="60" as="geometry" />
        </mxCell>
        <mxCell id="AEIaR-JQplcSrDzmcX76-14" value="" style="edgeStyle=orthogonalEdgeStyle;rounded=0;orthogonalLoop=1;jettySize=auto;html=1;" edge="1" parent="1" source="AEIaR-JQplcSrDzmcX76-13" target="AEIaR-JQplcSrDzmcX76-5">
          <mxGeometry relative="1" as="geometry" />
        </mxCell>
        <mxCell id="AEIaR-JQplcSrDzmcX76-16" value="" style="edgeStyle=orthogonalEdgeStyle;rounded=0;orthogonalLoop=1;jettySize=auto;html=1;" edge="1" parent="1" source="AEIaR-JQplcSrDzmcX76-13" target="AEIaR-JQplcSrDzmcX76-15">
          <mxGeometry relative="1" as="geometry" />
        </mxCell>
        <mxCell id="AEIaR-JQplcSrDzmcX76-17" style="edgeStyle=orthogonalEdgeStyle;rounded=0;orthogonalLoop=1;jettySize=auto;html=1;" edge="1" parent="1" source="AEIaR-JQplcSrDzmcX76-13">
          <mxGeometry relative="1" as="geometry">
            <mxPoint x="20" y="600" as="targetPoint" />
          </mxGeometry>
        </mxCell>
        <mxCell id="AEIaR-JQplcSrDzmcX76-13" value="&lt;font style=&quot;font-size: 14px;&quot;&gt;Singe Vendor&lt;/font&gt;" style="rounded=1;whiteSpace=wrap;html=1;fillColor=#dae8fc;gradientColor=#7ea6e0;strokeColor=#6c8ebf;" vertex="1" parent="1">
          <mxGeometry x="15" y="520" width="90" height="40" as="geometry" />
        </mxCell>
        <mxCell id="AEIaR-JQplcSrDzmcX76-20" value="" style="edgeStyle=orthogonalEdgeStyle;rounded=0;orthogonalLoop=1;jettySize=auto;html=1;" edge="1" parent="1" source="AEIaR-JQplcSrDzmcX76-15" target="AEIaR-JQplcSrDzmcX76-19">
          <mxGeometry relative="1" as="geometry" />
        </mxCell>
        <mxCell id="AEIaR-JQplcSrDzmcX76-34" value="" style="edgeStyle=orthogonalEdgeStyle;rounded=0;orthogonalLoop=1;jettySize=auto;html=1;" edge="1" parent="1" source="AEIaR-JQplcSrDzmcX76-15" target="AEIaR-JQplcSrDzmcX76-33">
          <mxGeometry relative="1" as="geometry" />
        </mxCell>
        <mxCell id="AEIaR-JQplcSrDzmcX76-15" value="Nokia" style="whiteSpace=wrap;html=1;fillColor=#dae8fc;strokeColor=#6c8ebf;rounded=1;gradientColor=#7ea6e0;" vertex="1" parent="1">
          <mxGeometry x="120" y="580" width="100" height="50" as="geometry" />
        </mxCell>
        <mxCell id="AEIaR-JQplcSrDzmcX76-36" value="" style="edgeStyle=orthogonalEdgeStyle;rounded=0;orthogonalLoop=1;jettySize=auto;html=1;" edge="1" parent="1" source="AEIaR-JQplcSrDzmcX76-18" target="AEIaR-JQplcSrDzmcX76-35">
          <mxGeometry relative="1" as="geometry" />
        </mxCell>
        <mxCell id="AEIaR-JQplcSrDzmcX76-18" value="Ericssion&amp;nbsp;" style="whiteSpace=wrap;html=1;fillColor=#dae8fc;strokeColor=#6c8ebf;rounded=1;gradientColor=#7ea6e0;" vertex="1" parent="1">
          <mxGeometry x="-40" y="600" width="100" height="50" as="geometry" />
        </mxCell>
        <mxCell id="AEIaR-JQplcSrDzmcX76-22" value="" style="edgeStyle=orthogonalEdgeStyle;rounded=0;orthogonalLoop=1;jettySize=auto;html=1;" edge="1" parent="1" source="AEIaR-JQplcSrDzmcX76-19" target="AEIaR-JQplcSrDzmcX76-21">
          <mxGeometry relative="1" as="geometry" />
        </mxCell>
        <mxCell id="AEIaR-JQplcSrDzmcX76-19" value="Core&amp;nbsp;" style="whiteSpace=wrap;html=1;fillColor=#dae8fc;strokeColor=#6c8ebf;rounded=1;gradientColor=#7ea6e0;" vertex="1" parent="1">
          <mxGeometry x="70" y="660" width="120" height="60" as="geometry" />
        </mxCell>
        <mxCell id="AEIaR-JQplcSrDzmcX76-38" style="edgeStyle=orthogonalEdgeStyle;rounded=0;orthogonalLoop=1;jettySize=auto;html=1;" edge="1" parent="1" source="AEIaR-JQplcSrDzmcX76-21" target="AEIaR-JQplcSrDzmcX76-37">
          <mxGeometry relative="1" as="geometry" />
        </mxCell>
        <mxCell id="AEIaR-JQplcSrDzmcX76-21" value="RAN&amp;nbsp;" style="whiteSpace=wrap;html=1;fillColor=#dae8fc;strokeColor=#6c8ebf;rounded=1;gradientColor=#7ea6e0;" vertex="1" parent="1">
          <mxGeometry x="250" y="660" width="120" height="60" as="geometry" />
        </mxCell>
        <mxCell id="AEIaR-JQplcSrDzmcX76-25" style="edgeStyle=orthogonalEdgeStyle;rounded=0;orthogonalLoop=1;jettySize=auto;html=1;entryX=0.899;entryY=0.017;entryDx=0;entryDy=0;entryPerimeter=0;" edge="1" parent="1" source="AEIaR-JQplcSrDzmcX76-9" target="AEIaR-JQplcSrDzmcX76-21">
          <mxGeometry relative="1" as="geometry" />
        </mxCell>
        <mxCell id="AEIaR-JQplcSrDzmcX76-31" value="" style="edgeStyle=orthogonalEdgeStyle;rounded=0;orthogonalLoop=1;jettySize=auto;html=1;" edge="1" parent="1" source="AEIaR-JQplcSrDzmcX76-29" target="AEIaR-JQplcSrDzmcX76-30">
          <mxGeometry relative="1" as="geometry" />
        </mxCell>
        <mxCell id="AEIaR-JQplcSrDzmcX76-39" style="edgeStyle=orthogonalEdgeStyle;rounded=0;orthogonalLoop=1;jettySize=auto;html=1;" edge="1" parent="1" source="AEIaR-JQplcSrDzmcX76-29" target="AEIaR-JQplcSrDzmcX76-37">
          <mxGeometry relative="1" as="geometry" />
        </mxCell>
        <mxCell id="AEIaR-JQplcSrDzmcX76-29" value="&lt;b&gt;&lt;font style=&quot;font-size: 15px;&quot;&gt;OPEN RAN&amp;nbsp;&lt;/font&gt;&lt;/b&gt;" style="ellipse;whiteSpace=wrap;html=1;fillColor=#f8cecc;gradientColor=#ea6b66;strokeColor=#b85450;" vertex="1" parent="1">
          <mxGeometry x="480" y="530" width="120" height="80" as="geometry" />
        </mxCell>
        <mxCell id="AEIaR-JQplcSrDzmcX76-66" value="" style="edgeStyle=orthogonalEdgeStyle;rounded=0;orthogonalLoop=1;jettySize=auto;html=1;" edge="1" parent="1" source="AEIaR-JQplcSrDzmcX76-30" target="AEIaR-JQplcSrDzmcX76-65">
          <mxGeometry relative="1" as="geometry" />
        </mxCell>
        <mxCell id="AEIaR-JQplcSrDzmcX76-30" value="Vendor locking&amp;nbsp;" style="whiteSpace=wrap;html=1;fillColor=#f8cecc;strokeColor=#b85450;gradientColor=#ea6b66;" vertex="1" parent="1">
          <mxGeometry x="660" y="540" width="120" height="60" as="geometry" />
        </mxCell>
        <mxCell id="AEIaR-JQplcSrDzmcX76-32" value="2100&lt;br&gt;1900&lt;div&gt;2300&lt;br&gt;800&lt;br&gt;850&lt;br&gt;&lt;br&gt;3CA--licence&amp;nbsp;&lt;/div&gt;" style="rounded=1;whiteSpace=wrap;html=1;" vertex="1" parent="1">
          <mxGeometry x="660" y="280" width="130" height="130" as="geometry" />
        </mxCell>
        <mxCell id="AEIaR-JQplcSrDzmcX76-33" value="2CA-Vi" style="rhombus;whiteSpace=wrap;html=1;fillColor=#dae8fc;strokeColor=#6c8ebf;rounded=1;gradientColor=#7ea6e0;" vertex="1" parent="1">
          <mxGeometry x="250" y="550" width="80" height="80" as="geometry" />
        </mxCell>
        <mxCell id="AEIaR-JQplcSrDzmcX76-35" value="Airtel 4CA" style="rhombus;whiteSpace=wrap;html=1;fillColor=#dae8fc;strokeColor=#6c8ebf;rounded=1;gradientColor=#7ea6e0;" vertex="1" parent="1">
          <mxGeometry x="-30" y="690" width="80" height="80" as="geometry" />
        </mxCell>
        <mxCell id="AEIaR-JQplcSrDzmcX76-41" value="" style="edgeStyle=orthogonalEdgeStyle;rounded=0;orthogonalLoop=1;jettySize=auto;html=1;" edge="1" parent="1" source="AEIaR-JQplcSrDzmcX76-37" target="AEIaR-JQplcSrDzmcX76-40">
          <mxGeometry relative="1" as="geometry" />
        </mxCell>
        <mxCell id="AEIaR-JQplcSrDzmcX76-68" value="" style="edgeStyle=orthogonalEdgeStyle;rounded=0;orthogonalLoop=1;jettySize=auto;html=1;" edge="1" parent="1" source="AEIaR-JQplcSrDzmcX76-37" target="AEIaR-JQplcSrDzmcX76-67">
          <mxGeometry relative="1" as="geometry" />
        </mxCell>
        <mxCell id="AEIaR-JQplcSrDzmcX76-37" value="" style="fontColor=#0066CC;verticalAlign=top;verticalLabelPosition=bottom;labelPosition=center;align=center;html=1;outlineConnect=0;fillColor=#CCCCCC;strokeColor=#6881B3;gradientColor=none;gradientDirection=north;strokeWidth=2;shape=mxgraph.networks.radio_tower;" vertex="1" parent="1">
          <mxGeometry x="520" y="635" width="66" height="110" as="geometry" />
        </mxCell>
        <mxCell id="AEIaR-JQplcSrDzmcX76-43" value="" style="edgeStyle=orthogonalEdgeStyle;rounded=0;orthogonalLoop=1;jettySize=auto;html=1;" edge="1" parent="1" source="AEIaR-JQplcSrDzmcX76-40" target="AEIaR-JQplcSrDzmcX76-42">
          <mxGeometry relative="1" as="geometry" />
        </mxCell>
        <mxCell id="AEIaR-JQplcSrDzmcX76-40" value="RAN --Nokia" style="whiteSpace=wrap;html=1;verticalAlign=top;fillColor=#CCCCCC;strokeColor=#6881B3;fontColor=#0066CC;gradientColor=none;gradientDirection=north;strokeWidth=2;" vertex="1" parent="1">
          <mxGeometry x="630" y="620" width="120" height="60" as="geometry" />
        </mxCell>
        <mxCell id="AEIaR-JQplcSrDzmcX76-45" value="" style="edgeStyle=orthogonalEdgeStyle;rounded=0;orthogonalLoop=1;jettySize=auto;html=1;" edge="1" parent="1" source="AEIaR-JQplcSrDzmcX76-42" target="AEIaR-JQplcSrDzmcX76-44">
          <mxGeometry relative="1" as="geometry" />
        </mxCell>
        <mxCell id="AEIaR-JQplcSrDzmcX76-42" value="Core&amp;nbsp;&lt;br&gt;Sansung&amp;nbsp;" style="whiteSpace=wrap;html=1;verticalAlign=top;fillColor=#CCCCCC;strokeColor=#6881B3;fontColor=#0066CC;gradientColor=none;gradientDirection=north;strokeWidth=2;" vertex="1" parent="1">
          <mxGeometry x="780" y="620" width="120" height="60" as="geometry" />
        </mxCell>
        <mxCell id="AEIaR-JQplcSrDzmcX76-44" value="RU&amp;nbsp;&lt;br&gt;Nokia --low&amp;nbsp;&lt;div&gt;Ericssion -MB&lt;br&gt;Samsung --HB&amp;nbsp;&lt;/div&gt;" style="whiteSpace=wrap;html=1;verticalAlign=top;fillColor=#CCCCCC;strokeColor=#6881B3;fontColor=#0066CC;gradientColor=none;gradientDirection=north;strokeWidth=2;" vertex="1" parent="1">
          <mxGeometry x="940" y="620" width="120" height="90" as="geometry" />
        </mxCell>
        <mxCell id="AEIaR-JQplcSrDzmcX76-48" value="" style="edgeStyle=orthogonalEdgeStyle;rounded=0;orthogonalLoop=1;jettySize=auto;html=1;" edge="1" parent="1" source="AEIaR-JQplcSrDzmcX76-46" target="AEIaR-JQplcSrDzmcX76-47">
          <mxGeometry relative="1" as="geometry" />
        </mxCell>
        <mxCell id="AEIaR-JQplcSrDzmcX76-50" value="" style="edgeStyle=orthogonalEdgeStyle;rounded=0;orthogonalLoop=1;jettySize=auto;html=1;" edge="1" parent="1" source="AEIaR-JQplcSrDzmcX76-46" target="AEIaR-JQplcSrDzmcX76-49">
          <mxGeometry relative="1" as="geometry" />
        </mxCell>
        <mxCell id="AEIaR-JQplcSrDzmcX76-52" value="" style="edgeStyle=orthogonalEdgeStyle;rounded=0;orthogonalLoop=1;jettySize=auto;html=1;" edge="1" parent="1" source="AEIaR-JQplcSrDzmcX76-46" target="AEIaR-JQplcSrDzmcX76-51">
          <mxGeometry relative="1" as="geometry" />
        </mxCell>
        <mxCell id="AEIaR-JQplcSrDzmcX76-46" value="" style="sketch=0;pointerEvents=1;shadow=0;dashed=0;html=1;strokeColor=none;fillColor=#505050;labelPosition=center;verticalLabelPosition=bottom;verticalAlign=top;outlineConnect=0;align=center;shape=mxgraph.office.devices.workstation_pc;" vertex="1" parent="1">
          <mxGeometry x="860" y="321" width="80" height="89" as="geometry" />
        </mxCell>
        <mxCell id="AEIaR-JQplcSrDzmcX76-47" value="OS&lt;div&gt;Windows&amp;nbsp;&lt;/div&gt;" style="ellipse;whiteSpace=wrap;html=1;verticalAlign=top;fillColor=#505050;strokeColor=none;sketch=0;pointerEvents=1;shadow=0;dashed=0;" vertex="1" parent="1">
          <mxGeometry x="980" y="300" width="80" height="80" as="geometry" />
        </mxCell>
        <mxCell id="AEIaR-JQplcSrDzmcX76-49" value="&lt;br&gt;HP" style="whiteSpace=wrap;html=1;verticalAlign=top;fillColor=#505050;strokeColor=none;sketch=0;pointerEvents=1;shadow=0;dashed=0;" vertex="1" parent="1">
          <mxGeometry x="840" y="230" width="120" height="60" as="geometry" />
        </mxCell>
        <mxCell id="AEIaR-JQplcSrDzmcX76-55" value="" style="edgeStyle=orthogonalEdgeStyle;rounded=0;orthogonalLoop=1;jettySize=auto;html=1;" edge="1" parent="1" source="AEIaR-JQplcSrDzmcX76-51" target="AEIaR-JQplcSrDzmcX76-54">
          <mxGeometry relative="1" as="geometry" />
        </mxCell>
        <mxCell id="AEIaR-JQplcSrDzmcX76-51" value="Dell&amp;nbsp;" style="whiteSpace=wrap;html=1;verticalAlign=top;fillColor=#505050;strokeColor=none;sketch=0;pointerEvents=1;shadow=0;dashed=0;" vertex="1" parent="1">
          <mxGeometry x="890" y="440" width="120" height="60" as="geometry" />
        </mxCell>
        <mxCell id="AEIaR-JQplcSrDzmcX76-53" style="edgeStyle=orthogonalEdgeStyle;rounded=0;orthogonalLoop=1;jettySize=auto;html=1;entryX=0.693;entryY=1.003;entryDx=0;entryDy=0;entryPerimeter=0;" edge="1" parent="1" source="AEIaR-JQplcSrDzmcX76-51" target="AEIaR-JQplcSrDzmcX76-47">
          <mxGeometry relative="1" as="geometry" />
        </mxCell>
        <mxCell id="AEIaR-JQplcSrDzmcX76-56" style="edgeStyle=orthogonalEdgeStyle;rounded=0;orthogonalLoop=1;jettySize=auto;html=1;" edge="1" parent="1" source="AEIaR-JQplcSrDzmcX76-54" target="AEIaR-JQplcSrDzmcX76-47">
          <mxGeometry relative="1" as="geometry" />
        </mxCell>
        <mxCell id="AEIaR-JQplcSrDzmcX76-54" value="Lenovo&amp;nbsp;" style="whiteSpace=wrap;html=1;verticalAlign=top;fillColor=#505050;strokeColor=none;sketch=0;pointerEvents=1;shadow=0;dashed=0;" vertex="1" parent="1">
          <mxGeometry x="1060" y="440" width="120" height="60" as="geometry" />
        </mxCell>
        <mxCell id="AEIaR-JQplcSrDzmcX76-59" value="" style="edgeStyle=orthogonalEdgeStyle;rounded=0;orthogonalLoop=1;jettySize=auto;html=1;" edge="1" parent="1" source="AEIaR-JQplcSrDzmcX76-57" target="AEIaR-JQplcSrDzmcX76-58">
          <mxGeometry relative="1" as="geometry" />
        </mxCell>
        <mxCell id="AEIaR-JQplcSrDzmcX76-57" value="" style="fontColor=#0066CC;verticalAlign=top;verticalLabelPosition=bottom;labelPosition=center;align=center;html=1;outlineConnect=0;fillColor=#CCCCCC;strokeColor=#6881B3;gradientColor=none;gradientDirection=north;strokeWidth=2;shape=mxgraph.networks.pc;" vertex="1" parent="1">
          <mxGeometry x="-180" y="270" width="100" height="70" as="geometry" />
        </mxCell>
        <mxCell id="AEIaR-JQplcSrDzmcX76-58" value="IOS&amp;nbsp;" style="whiteSpace=wrap;html=1;verticalAlign=top;fillColor=#CCCCCC;strokeColor=#6881B3;fontColor=#0066CC;gradientColor=none;gradientDirection=north;strokeWidth=2;" vertex="1" parent="1">
          <mxGeometry x="-60" y="261" width="120" height="60" as="geometry" />
        </mxCell>
        <mxCell id="AEIaR-JQplcSrDzmcX76-62" value="" style="edgeStyle=orthogonalEdgeStyle;rounded=0;orthogonalLoop=1;jettySize=auto;html=1;" edge="1" parent="1" source="AEIaR-JQplcSrDzmcX76-60" target="AEIaR-JQplcSrDzmcX76-61">
          <mxGeometry relative="1" as="geometry" />
        </mxCell>
        <mxCell id="AEIaR-JQplcSrDzmcX76-60" value="" style="html=1;verticalLabelPosition=bottom;align=center;labelBackgroundColor=#ffffff;verticalAlign=top;strokeWidth=2;strokeColor=#0080F0;shadow=0;dashed=0;shape=mxgraph.ios7.icons.smartphone;" vertex="1" parent="1">
          <mxGeometry x="-180" y="380" width="18" height="30" as="geometry" />
        </mxCell>
        <mxCell id="AEIaR-JQplcSrDzmcX76-61" value="Apple" style="whiteSpace=wrap;html=1;verticalAlign=top;strokeColor=#0080F0;labelBackgroundColor=#ffffff;strokeWidth=2;shadow=0;dashed=0;" vertex="1" parent="1">
          <mxGeometry x="-120" y="360" width="70" height="30" as="geometry" />
        </mxCell>
        <mxCell id="AEIaR-JQplcSrDzmcX76-64" value="" style="edgeStyle=orthogonalEdgeStyle;rounded=0;orthogonalLoop=1;jettySize=auto;html=1;" edge="1" parent="1" source="AEIaR-JQplcSrDzmcX76-63" target="AEIaR-JQplcSrDzmcX76-61">
          <mxGeometry relative="1" as="geometry" />
        </mxCell>
        <mxCell id="AEIaR-JQplcSrDzmcX76-63" value="IOS&amp;nbsp;" style="whiteSpace=wrap;html=1;verticalAlign=top;strokeColor=#0080F0;labelBackgroundColor=#ffffff;strokeWidth=2;shadow=0;dashed=0;" vertex="1" parent="1">
          <mxGeometry x="-120" y="410" width="70" height="30" as="geometry" />
        </mxCell>
        <mxCell id="AEIaR-JQplcSrDzmcX76-65" value="OPEX&amp;nbsp;" style="whiteSpace=wrap;html=1;fillColor=#f8cecc;strokeColor=#b85450;gradientColor=#ea6b66;" vertex="1" parent="1">
          <mxGeometry x="820" y="540" width="120" height="60" as="geometry" />
        </mxCell>
        <mxCell id="AEIaR-JQplcSrDzmcX76-70" value="" style="edgeStyle=orthogonalEdgeStyle;rounded=0;orthogonalLoop=1;jettySize=auto;html=1;" edge="1" parent="1" source="AEIaR-JQplcSrDzmcX76-67" target="AEIaR-JQplcSrDzmcX76-69">
          <mxGeometry relative="1" as="geometry" />
        </mxCell>
        <mxCell id="AEIaR-JQplcSrDzmcX76-74" value="" style="edgeStyle=orthogonalEdgeStyle;rounded=0;orthogonalLoop=1;jettySize=auto;html=1;" edge="1" parent="1" source="AEIaR-JQplcSrDzmcX76-67" target="AEIaR-JQplcSrDzmcX76-73">
          <mxGeometry relative="1" as="geometry" />
        </mxCell>
        <mxCell id="AEIaR-JQplcSrDzmcX76-67" value="Telco Cloud&amp;nbsp;" style="whiteSpace=wrap;html=1;verticalAlign=top;fillColor=#CCCCCC;strokeColor=#6881B3;fontColor=#0066CC;gradientColor=none;gradientDirection=north;strokeWidth=2;" vertex="1" parent="1">
          <mxGeometry x="520" y="790" width="120" height="60" as="geometry" />
        </mxCell>
        <mxCell id="AEIaR-JQplcSrDzmcX76-72" value="" style="edgeStyle=orthogonalEdgeStyle;rounded=0;orthogonalLoop=1;jettySize=auto;html=1;" edge="1" parent="1" source="AEIaR-JQplcSrDzmcX76-69" target="AEIaR-JQplcSrDzmcX76-71">
          <mxGeometry relative="1" as="geometry" />
        </mxCell>
        <mxCell id="AEIaR-JQplcSrDzmcX76-69" value="IT CLOUD&amp;nbsp;" style="whiteSpace=wrap;html=1;verticalAlign=top;fillColor=#CCCCCC;strokeColor=#6881B3;fontColor=#0066CC;gradientColor=none;gradientDirection=north;strokeWidth=2;" vertex="1" parent="1">
          <mxGeometry x="720" y="790" width="120" height="60" as="geometry" />
        </mxCell>
        <mxCell id="AEIaR-JQplcSrDzmcX76-71" value="OPEN RAN" style="whiteSpace=wrap;html=1;verticalAlign=top;fillColor=#CCCCCC;strokeColor=#6881B3;fontColor=#0066CC;gradientColor=none;gradientDirection=north;strokeWidth=2;" vertex="1" parent="1">
          <mxGeometry x="920" y="790" width="120" height="60" as="geometry" />
        </mxCell>
        <mxCell id="AEIaR-JQplcSrDzmcX76-81" value="" style="edgeStyle=orthogonalEdgeStyle;rounded=0;orthogonalLoop=1;jettySize=auto;html=1;" edge="1" parent="1" source="AEIaR-JQplcSrDzmcX76-73" target="AEIaR-JQplcSrDzmcX76-80">
          <mxGeometry relative="1" as="geometry" />
        </mxCell>
        <mxCell id="AEIaR-JQplcSrDzmcX76-83" value="" style="edgeStyle=orthogonalEdgeStyle;rounded=0;orthogonalLoop=1;jettySize=auto;html=1;" edge="1" parent="1" source="AEIaR-JQplcSrDzmcX76-73" target="AEIaR-JQplcSrDzmcX76-82">
          <mxGeometry relative="1" as="geometry" />
        </mxCell>
        <mxCell id="AEIaR-JQplcSrDzmcX76-73" value="CORE&amp;nbsp;&lt;br&gt;Private Cloud /Public&amp;nbsp;" style="whiteSpace=wrap;html=1;verticalAlign=top;fillColor=#CCCCCC;strokeColor=#6881B3;fontColor=#0066CC;gradientColor=none;gradientDirection=north;strokeWidth=2;" vertex="1" parent="1">
          <mxGeometry x="280" y="900" width="120" height="60" as="geometry" />
        </mxCell>
        <mxCell id="AEIaR-JQplcSrDzmcX76-76" value="" style="edgeStyle=orthogonalEdgeStyle;rounded=0;orthogonalLoop=1;jettySize=auto;html=1;" edge="1" parent="1" source="AEIaR-JQplcSrDzmcX76-75" target="AEIaR-JQplcSrDzmcX76-73">
          <mxGeometry relative="1" as="geometry">
            <Array as="points">
              <mxPoint x="225" y="910" />
              <mxPoint x="225" y="930" />
            </Array>
          </mxGeometry>
        </mxCell>
        <mxCell id="AEIaR-JQplcSrDzmcX76-75" value="" style="shape=image;verticalLabelPosition=bottom;labelBackgroundColor=default;verticalAlign=top;aspect=fixed;imageAspect=0;image=data:image/jpeg,/9j/4AAQSkZJRgABAQAAAQABAAD/2wCEAAkGBxMTEhUSEhMWFRUXFRYXFRgXGBgXGBgXFxYXGBgYFxsYHiggGBolHRUVITEhJSkrLi4uFx8zODMtNygtLisBCgoKDg0OGhAQGi0lICYtNS0tLS0tLS0tLS0tLTAtLS0tLS0tLS0tLS0tLS0tLS0tLS0tLS0tLS0tLS0tLS0tLf/AABEIALMBGQMBIgACEQEDEQH/xAAbAAABBQEBAAAAAAAAAAAAAAAFAQIDBAYAB//EAE0QAAECBAIFBwYLBgQFBQAAAAECEQADBCESMQUiQVFhBhMycYGRoRQjQlKxwQczQ2JygpKy0eHwFSRTotLxNGNzwkRUZJOzFmWE0+P/xAAZAQADAQEBAAAAAAAAAAAAAAAAAQIDBAX/xAAuEQACAgAEBAUDBAMAAAAAAAAAAQIRAxIhMUFhccETMlGB8CKRsQQUodEz4fH/2gAMAwEAAhEDEQA/ANbOnc8tc5XpHV4IHRHvhuDif11w8gfoQqUbjHQQNAPD2RxVsaHlJhyUkbIYDEkQikiHqI2+MV5ygA+UADJqm298BtIVpuAH6tsJpGfia9gXv72iisEi+XifwgE2D6mhRMzSC3cPxMVFBCHSm53/AJxbmoIBSlwHJ74pzJR3RpGHFkNkSQVFgHMXaNKUHzqFndhuB9Ua3g0DZtIDrBasW5mDcC/uhyZ85OSsQ3Kv7XiszQqNfR1yT8XN7FWgxI0lMSNYYhwjztWk3+NlA9WzsLiLdLpFHyc1Us7iS3bicN3QWg1PRpOmUKsbHjlBCTOSclPHnkvSsyz83NG/I9hBIeLcrSyMyFyuJZSR1kE+2DKGY9AEyA3KLQUqrVK51ymWVHCCxViwv93xgXS6UmHoTETBwIfxghK04kWmJKesfjnCcSlIq1vImUq8icUHYmaGHUFC0AqrQFXSqx4Fp+fLJI+0nZwMbiTpCWrJQ6osyp5T0CR1FgezIxGVj0MVo/ljPRaaEzRv6C+8Bj3RpaHlVTTLFXNq3TNX+bo+LxYraOnnfHSUKPrJ82vwsYAVfI6WS8md9SbqHgyw4hV6ga/E/VDFNHnUyjrqLZMQnenWln2p7c4SZyvnKGFYA2FSBrdyi0CQjbVuBnJA47ICr0jLBZyR6wBKe9m7YCjSMklPnDNO0KxJULeiCHz3WiaZXE9BCUjft/XdGi0EwzOlomC4ChmD7wR7oFVmhS2prDcrPsOR7YqALd3I22s52wTpK4+mR7D27Ipq9xJmcqpa0BViCA7KzHEP+cR0MwqlpUrMi/XGwMyTOBSShYFiHBY+4wLrOT5A8ybbEqsRwChn2jticrWw7ByK5SNrjhF2h5RoZ1MC5GbxmtJSpiDhWFJO42PYdogRNnEKGGWDvKlXHUCIzbGkekf+oQroAmKc6tmZlSUJ4kAfgIylNpb118NVkDqBJfxgtInYySmWCreQVKOyxLA9++FbHoWVzcV3VMuzJHbmWDcQYjZf/Lze/wDOLMnRtQvaEjeVe0JY+2Ln7APzPtL/ABh0GgaFSvagH6Kr9xA9sSIq0uxSoE5Ol/uvEaKUBa5hdSiABlqpHop6y5J2vwEdJpdbGol27BCodl5AG+/63w8jjEOHiIp1tSUCwc7BBQWWKqfhDnwgHWT8TuG3RHOqVEh3JJbeB1xbp6TaqKURNgyZTLspIxN6LgdoJ/V4fJBUoJMqYkkgdHEL2uUOAOJjSU2jnuXA8fGC8mShIYBoewtwFS6FSm6hiPgO+LU6iQrpJB6x+MF8I3x3NH9WhWFGVquTchWSWPzT+hAqo5H+pMbgR7x+EbqZJAzDfrhA2rqkiySSd394pSYNIwNZyfnp9EKHA/owJnUrWWgiNvpKqw/GzEoByT6R6gIFLnKL83LwDLHNupt6UD3xV+qJMoacPqqIh8ozU3Bft94gyuklo6asSjsVbrwoR+rwyXoda2KJZQnapZwluCdva3VDSQWwOK2bjxLwtuCWV9tKgYIyuUZSBrLbc3PBuoMfGLc7QUwdEpXAysoFJbGgi1uqHla2ZPUOSNJpVrGWL7UHAe1K28HiwnT2GyJzG+rM1fHdGOVKIukkRDWLmnzalJWnfhse8A98DbW6HXM36OUsz0wlt4ILwlTpiQsCy1K67A+Ld0YWil4SCQG2pdgevC0X5Ncl2cDvYdzxooutdCWzZUfKOoSAJZCRuNwesZGLkydTVH+IpkhX8SScCutsjGRlTnFlX3pZYHYkv3gRIismJdiJjG5BA/lz8YmUIf8ABqTC1XyMlzP8NUJUdkud5tXYeiYGzJFZRnzstQHz0409ih7jAs6ZW5dSUb8KCpQ4uTBfQfKKsAamE6aCWKZoxJ62UAAIzWG+BdriTS+UyVfGJwcQCt+5iO4xImuStOJCcQO1agkdyc+o3gkulkTUvXU8qlXtVJmhLnfhIwnqgMvkpLmk+R1UqcfUUeam+JY9hhNyW4Kh02uAYYwDulpZ+Dqv3RfotIzrJRLWtO05nvLP4wKTUVNG6ZtMjFsVNQQe8WUIhmcpqqYcIXzewBICR2HPxhpoGa2olKmJaahCEnYsYj7gDAKv5FpOtKVfalXuOzt74onk/VTLrxK3FSnP4xotBaNqJRCVLUUt0VDYGyJLjMQ2r3QrMiNDplTAFSTiIJJI3HuOcEJI9QkHdG5qKYKDLSCO8QBr9Ai5lnsJ9h/HvgSa2Aq0mk2soF4vftmX6w70/jGfnoWjVWD2+7YeyKuNPzv12RLUWGpqR5SPSQodZHtEL5bUJLqlv1EH3wTVLaBVbU5hPfujLU0GztNqyKGMDZ+kXfN/1YbjESrXFzu/Hd1QOFUkr86tQG9IfsG6LSJbCtBpV1BJlLSSWfVIHEl7CNfo4yx6QUfDsjGy6qlOUwDrSoeLRMhMs9Ccj7dz2GGB6AmYn+0dOmpSkqJICQSdtgHMYIqWgYhMIHWPdFOs07NEtYUpWEpKXLB3DMHueyFQWTaZ5cTVumnHNo9csVn3J7HMYg8oqyXOUmVUzQSoM8ws5A2LOEXO2Giaolgk7QXsxHDNuLQFUk85zmIllAkYbcBnaIHwNQn4Qa4WXMExrayUnLijC8TL+ECarVKQhLa3NllHqKgpu/bGQmGWejqnrcdoN/GIFoUL2V1QraFVm9peVNMm6UKCjmVXJ4lQJV4Qaoq6nmsZlbLQ/wAmh0E8CpbF+IaPK6NYKtcMB6zhJ6yL+IiQ0ivRIPUoP3PC8bWi/CbVo9ukU0iUnEjmkjPEVYlHjZ3ihWaWkh8KVLO86qfDPwjxnnFIUQ5SoZ7DBGi5R1MouicXAtiAX2DGC0aLEROQ9GmTquaNQYBwsG+kbxRlaKJLTcYJPq4we0OBAKj5c1hxEy0TQlOJWqRhHrHAQG7Is0/LrEklclbAjEZagEByAMTBJa+1W2KzImmHl6LlpsQ3FRbw/KK0zRSL9LsGEd68+yItHco6WYWVPTIfN5an+3fxMFzV0Av5Rz5+bd+2wi1N8GKkAJ1FhFlg3yDq8WEV16PmEPzJbeM+to0M3TKcpFMTxL+KUj3xXlTqyfeWwG3Dhcdt1CKzXuKjOeThJculW8hj3/nDF1C06x1xxuzbi1o0yuSVTMutRPEl/aYkHIs+mvD1An8BBSfINTJ01VOxBaSWOSVYFDxTbwi+mZPXmspf1dUdwg1M5KYby5rncpLjwyihWaJnJuqWlbbZar9xuY0iopauyHY2Ro1OLzkwB9pPvNoOUuiZSS5BI35jvSbRl1TFINytHBYtDpFcpN0gdctWHvAsYHJVsM9X0bUpwYEzMaW6CiFDuW8Vq7k9STb4DKV60qw7UKdPcRHn0vTnrG/z0sftI98E6bTywNVam6xMT4X8IzcYspSDadAVci9JPExPqPhP/bXqnsJjk8qJktYTVSChQBBIBBu3oq2WzB7Ipo09i6SQptqTfuN4IS+UKVjAspWn1JyQR3Gw7IPCfBhmQUptOSpvxasR3Cx7lNCTlk5JA6z+A98AqnRFJMukLkK3yzjQ+/CouOxXZEXkddK+KWmqRuBdbfRUy3+0IFcd0PcuVSlF0zBbglx4ux7IG+QU/rH7YhJfKJBOGalUpYzCgWB45EdoEW/2lK/io+0n8YtKMiXY6r0kpbhI1dp38BEKZ8tIdSn3AXPdmYqLlJUW8olpY5O3ubxglLwsw8kU3z2PiTHMjRkMqvpSXOEvnjlqPdEyvIlehI68Ske2BukwyT+7oTlrpWFC7XYdojz6trphnTUy5itXIAuH1QRe2/LdA5JCPSqvR1EUlgxu2CaFX2WgQvRsg6ra2xIGsexCnEYD9szQWKw+5SQ/iIv6Or56iTLCCQzs73yGqeB7ol4kVqxqDexr53JpkKWApDAliVA2D+kDAiRLUlWPEcTNiN1NwUbjLY0QU/KCpKhLUSAohKhjXkbXBMFObgck9gqimmU0Z+kym9affxEagIyjPUBaVPOzEh9/pxr+neXET6/gjEVwZSXLff4n2gx0mnTdwB3D3ph6KhIL2PBScQ/vE0lbklKkgPcOUhichF4couasUk0tCxpihQmZISkMFyApTE3Vzk0P6WxKd+UB5ksjb3/m0aXTSAZ1PiduaUN9hMn4RcF7+DQCYYruBvSz9zh4vGjC5acf6Jg5UuhVTSY82Pf1bHha3RPNzFy3ukJJINrgHb9IRfkJGMAOQSACRfPMgu3fFnSQ8/POXm5f3Ze5oUcDDcE369hvEkpexnkSb9JWR2fhDlSJgCsPRJD5jcQP5QeyLyJOIFQYgZ3S/cb+EGpzfs+ax+WknPcmYDsA9Id8TH9OnGTvYbxXaVGZ5h0jIWbLidoz6zEUwt0g3Za1tkEauSMarbeH5mC2jNHoVIqFkOUSVKSdaxCk33bSO2D9s22k9g8VKuYOpquolEczOmgMDqKUA+2wLQZovhB0hKzmhfBaEe0JCu8xnlouGOYB2bQDsi1+yQqSuco3SUBmIfESHd9jCJ8GetFKa4mwp/hSm252nlqO0pKkdwOKCEr4RadQJUmYhmctiAcsMvwjzEUd2BV2F/aInr9FLlapJSVpTMaxdJOq+H6OXCFkxEth5ovieoJ5TU0zKcj62qf5onFQFXSXHzS4jyMUqlDENg3W3Xt4mEkBQDglKsW8s28EQZmt0LQ9aUp7Z9YipO0XKVnLT1p1T4NHnaNP1Motz6vrHGP5oKUfLmcCApMtb7S42Pcj8IaxUgyM0s3k+ltVak8DcfrtgbO5PzAXSEnilTHu/OJ6Pl7KtzshaSQ7oUFeBaCNPykpZh+PRLfLnBMHilLeMaeJF7k5WgBMp6hHScj56XHf+cORpBQDKSW4ModysuwxvKCgRO+LqpK+CCFHuKy0TzuR6T0yT1BKfEJeC4cGFMw9NpNIOqopPAkfyqceMFZWlFi5ZQ33Sf6fGDE7kVKawUOs4vbeBFVyNUm8s3GWw+NvGBSfBhRanabRMATOSJg2CakFvor6SfqkRU5mh/5cf92b/XAuboeuSt2CR6wBc9YQcJ7QYk5mp/ip7h/TBHLLddgdoI8p+UMiVLxy6eSouHdiLqAbVYjbGWqeWiLpVQygd4mzE5bgRD+UOjwnmAdshS7k3ICbk77mM4mlSS2edgSfyjnyt6pml0bdKUTKYzQgJC5RWzks6HYna3UIxs6ndKFF3UCSSTcubx6edDYKEkBgKUkdQlR5/Nkky5TYhqbEYhmYqG8k9dO5LezKCKEk4VEtuPhYxbEjm1r5lWAjAHYXdAJyaFl06trnrlK2HgYnqZpxzQPWlZP/AAhuvFqMXDVfKYszUtGS002fNXKTNUFpC0kYndN80vlGnVTxnNELKp0pJdsaQOkcz7LRu5tEYwypbIu29zPGVYdkZjQ41JpwpOsm6sNun60bqZSnD2e6MFo0ebmliddORYZLzuIvC869/wAEz8rHTEuby5R+sn+sQ6VTj+APql/YVRVUOB+0T74chPzVdx/CNIpZjJy0CWmhr09vkVEhv8yeTmM7N2CAqkniN3HqZV4N6TQDNpkmwMhX3p/9uyAwnEKTqE4F4hnfWfsyi8WdN9eyKhG66ElOwzLZHsft3RdrZb1E9iE6iLl7aqDkBwino+fhKAytWYFDj0QRwsnO8XatQE+adXoS8wDnLQciIqM7glz7Mlxpvp3KApVbFyz1sPaBBOen9xmghHTR0C4uQHN8y0URO4I+yB91MEJpejm5dKXk/r8c/wC0KOkZdAbtoHz5M1M1S0oW7likkEgnhBPRiCJNTiStJMiZ08uicuPXFCqw4i6B9o+LmL+i25qowpbzEzJQPonZu4xcW037ktppATExSWcYUum7E4QH1WME5af3Sd9KU1m+U2vc7YHmXk59FNidmAEHttBJI/dZu4mTZh6wJL5li4ioyVSG1qijJSCS9y+rrBje74oKcqbzJRb/AIWVZLesotaxza26KpIxF2z2ywPYYuacAxynwt5MjPEB01MwFxGmZ17kUrJNEysMirTvp1F8JAsUqzUBe0CtFSUGakqCSMYBxEew5wT0YlIl1GEC9PNyKvUOxUUqEMtJxKF0/KobZsMUpfUtCa0ZDpejHldQhKSAJ85gBkgLJFtgAbqh/KLRUuVNQiWGCpMpZ26ygcV+yLGmZRNXPIf445ICswk7TaLOnkKMyQRYiml7FBmUsZI6MYqMHFWuJo5SvcE6a0KmQJIBfnJImF7NrqSw7vGIq3RSkc2HCjMlhYO0AqUljvOrBflAdWj3iUvYbkTSclXI64dpVWtSmxaRd1JF+dmWLnY+UDwMNt6caBYkv4Ac/QU9M0SCElboLAZ4gCB2giL2j9J1cl+bmTk4AxSiYrCMJYkh27xGgnTiNIS5mbopi9iHwJuWLNbZEdEG8vSxYpqrscgskXZncb4z/bRrR+v8FeMxaT4QqtAGNYmD58t+8oA8Y2+g+V8mbSoqJ5TJKiUkEsAoEsLl3IDtGElYeZpioBhOmgu21MskXtsEWq2ilPXaoCkTQUN6CedRYAfNU0J/p2nuV4ifA2FRyuoR8un6oUfYI79vUv8AFHj+EeVctFop5yZctJCVSZa89qk36QJzB74z/wC1171fa/KOac8rpmsY2rPR+WaWXTW/4Vftlxj31sh3D8I13LVRK5ATmKVX3kRllIOLhdrK9YNs3P3xcNl1Ilue11KR+y1n/wBvV/4I8ZnDzcr6A2HeeMexV04fsxY/6Ff/AII8cMs82i4+Js6gL4wRmdzwoeaXziEtkQmSxYsOvrbfEleopMxQF+cl7HylI7IQIvmjpS/STkAcW3e0OrATMmjN5ifGWG90apXD7/gnZ/PUn5JrX5XTBSWSqYgDVZxjCrHraPZKqSMXfHj3JP8AxdObNziFbMseH2x6/OqBbqPujlao1QHWnU+p7o8s0d8TNuxxotsyXnHqkyYMB+h/tjyWjPmpvWj/AHxpg+de/wCCZ+UVEu7KBLhwygCzO9wbNd4elG0AYSWuocHvHP5xP+iN38Dr/XhDZXxY/wBRX3UcY0w/OkTLYLaTGGppw7NJWL/TqBfc+TQCNKkq1goAuXDFuwt7YN8pD+9Sjs5tf/mqNuL3wIPtyv7NeLxIXb5/0TCVUuQ+nkALASVsVAZs4faA48YuVnx85j8nK6zqIG+K9Ib55kDPO4t04m0mCZ89g7pQzXfVTxPvi4wSgnz7Ccrk+ncry0uC7gh7YX8XgjNQ1FNOWugMQxsoZb8/bFaYg4pljecg5G4GO/Vcd8EdIJ/cZgYv5Riy2Nn1WziYeSXQGqkqBVRL84pLAZ3wuLFrMHglo6X5uo4SJmYwvqm4O3LKKnMKfoq6U09FW2WAO+ClFKUKee6SHp2DgjJIfPqi41chNbACdLxKQHA83L6TtaWnaBFunlNTzzb5IFnd+cSbvs6orMWGfRTv9UHfBA/4Sb1yt+1TjPgxhxhSbG5XRQSgFSsgxvn/AHPZBHT4w8y5t5Mk52YqUevbtiOnkrCkuki6XtuWsl+wiLenZajOlMCf3WX4YgfGL4e5FakOiZRwT8i1NOJZQVbAdn6aB9El1BiLFPpJBe2+DmjkkSKgHM08yz7paX9ivGKGiQQtBJAFiXUBsXx4p8IaX1IXBkemkfvc9OR502YbEpfOJdOJ1pA2mnQ2V3XMZmLd0O0pLPldQbDz6yHUkWKSRmeKfCLHKNLzpRBS3k0pi6WtMW7bNhiEvp9xvcqabCgilYXwTGy/igbDeOrVLIpibK5pSQGIcCapuvM90WeUYcUuFiOYULENiE0k5W2iE0ol/JcrU5N2Z+eW+cVWr6i4JciWsKvK5dnPNU5IYk9HqJhkkHnay3o1V2yuvbh9490XapKfL0KYYcFM1h0cIyHWDEVKkBdeT0imrYttxLzOy1ofD7h/ooSagmnk2IwzlDM3BQOrdBOrmHHXC92P80s7Ve6K8pI8np3GU9WwnKWlrAQRrQMWkeKg1ldHHL4btkOXz7IEYjl+p50k/wDSyt2wrGwkbN8ZiNd8JBBnySMvJZW8ZFYOfF4yUeT+o/yM7cPyo9H5RzXWg7qdTbb4kbIzaVKxXSPsp4/hGq5WJCJqQCLSFgHiFp8bRkjUnFdQ8Pwi09ERR6fXVqvI1p2eTKHZzbRgZ04JlygR8mD6PvBjdVqh5GohiDTKbtlxg10xWiWXDBAFhfMxS3lXzUVaIiRVAlr96R/sierVhmzCdkxD9ktMRSqRnUHLbHO8FrcA3jEtbJK1TRiZpgOW3An8BGkby/PQl7j+T84CfJvdwO3nce/dHoU2sPgfdHnWhadIny75LHb49sbecr2GMGaCz6o4Pq+6MVoRREqaygnXRe75LsGjUzDq/V90ZHRhAkzVFKSy03IBay9hB3RWF517/gmflHqmn+MrsCveRHIqP8+Z3H/7IqKrfo9iEf0xLJryS2Ijdqi/Vhi4yVkuLovaaV52Rcn92Xn9KfxinJd5H+p/vHH8IuaYLzae5vTqz4rnjhb84opUQUEegrEON39aNcVb9SYcOhLov5L/AFvdLiwsnyic2Loy7Jz6A4G0V6INh+arEH3kpF22aoietDTqhvUlkbski/YeENaYafPswesn07jcCvUndqv/AM4uVaSKObZQ1kZl/T26oaAQUfm9/wCBguT+5zuj0pfRJO0Zv+uETGVqXQbjTQ2oQMRdP2piB4Wi9QIHNz2SkeYm9FYUegdxNoD6QtNWHZlEMztfKCGh/i597cxNzSw6FrjwilK20JxpJlKSLJ7Nn+VFyZ/hpv8A8b7oigqzAa2ogltjoBu20ZHqgiH8mmhScPQbO5EwBs+vZsiotUwa2IThxH4vP/NPti5pkjHKfC3k42E/KK9E5QLSjGolLEFRuS23wi7p5QTzKc/MJyOIXmru+3a/GKt1fMmlZY0dMBRPA/gTvQSB8WraC8D6OpSFJ1my+TR7X8Wi5oylwonLJHxE4AMXuhQsrIb4H6Mpgs4lFQAN8ISTs39cP6syFpTLemJ4TUzn/iOLJHoI3gxLpuqGKSoPenSLEbJkzbh9wivXysdZOSbDnFDNuiUo9gibTKAZshIDJ5lOZJPSm5m20eMSk2vfQbqx2lZ4KKVV7Im5m/THD8o7Sk7CKZQv5gixP8VVrEcLcRC6clpHk4SGQEK6umXN3z1fCJK8JSuncAI5tRYZEGYsPbbYd0X69RenQWuqv3iUps5Ujadj/OY9pMOkrPP1YaxTVX3Pj/WyJ5tQE1SZh2y5eFtVtUAFrAZHvhaZYCquX6xqCTw1i3HZBfcVdimAVU0kJBJ59ViM3QMnzy8YIVCFY60sGIAJYWV5u3eISTMwyZK7aswpG7VSGP8AMYnmVcsGenEllKxC+aiUmzdu3ZClKvnIaRjPhBlqE2SFBlCnQD9pZ3nYRGWaN5yu0bOrJkuZIQZmGWErLga2In0mezZQB/8AR1d/y6vtS/6o87HTliNo68PSKR7XU0ktRdUpCjvKUk+IiNNMgZS0D6oHug8aIQhoUwrAw2n1+bnD/LmfdjA1nQlB/kw9/wAI9zqtESZiSlaAoEEHMWOYcXihL5JUScqZB63V94mBPcKPEZYAN/fvG4xa0jPQVTCCLrBBfZgA2x7bK0DSp6NNIHVKQ/e0Wk06E9FCU9SQPYIuE3FaEyjbPC9CSjz0tQSpsQcgEjvAjaTfcfdG40rM8zM+gfZGGmn2H3RN2OitNGr9X3RkKSYlMiaCblaWzIyXsyjYzej9X3RkqBPm1/TT7JnAxeH5vv8AgmWxSlhSgVAhgHyD5tazxbkSVAl1j0eLg31eprkQ6WWdyOkTnwHHhEyFJJ6QsNr+GZ27IqEYppik3sWtLnDOkEMtqZRGwKBVPYh9l3gLKlYicTpzOYOwt4iDWk0a9MBf91wWfMGcnJoGixJfNuGT7yN8aTjbd+pEXS9h0mQhJc4iBhUWZ2HS2s7s0S6SSrnZoBZ0ygbO4wDfxAhZIC7FzZrHYTwffFqvT52oO5MtuHRF8t52RTjUE+fZiu5ewOpJCSkWDkFz1i1n2MT2wRnTHpZyWSGmSDqhumJzg3y82mBomEWB7h7IKKmE0k11E60tnDdg45xEJpxaS4FuLtWD5Utlrz2Zudu/sEGaYK5ueASUmRMYAhnBCss7ArPBzArSLc6vLpq9u7Z1Ra0VMSEznwgmTMAuQTqm1/Ztioz1cRSjpZQkpYva6E7oJTZZMiarYcAFiPlOrhvgcpeV/RTt4DYYtGsSJKpe1RTsZsKiS92yi1Si1yJ1uxsleBRGeseHD3Rb01KB5o3+IGbbJ0w3Iz6R7oqSqSdNUTLkzFOSQQlRzO8BoNHk3XTcPmAgJRhDkC2IqyKn27ojxG1TKyq7KWjZ2JM0FviJ28egrsz3wPkKKTYtcbvfGsouQVVfFOQhwQcOJViCCMhsJGe2CFN8HMv5SdMV9EBPtxQOb0fEagtTF6aI8omkHNT24pS/947Sk9KxKYvhlBJzLHGskX6xHpNPyGo0n4sqPzlK/wBrCC0jQNOhsEmWk78CX7yHiXLceU8iOKaiUmXLWooCgWSS7kG2Hq2wSn6Eq5wlNTqTgl4HUQH11KfWZuk0eueThhDhIEN4lqhKC3PMRyMq1qSpapaCEgBnJAGXB4ISOQKitRmVCiVPiKE4XxZ7drmPRDKFodhDwZx5TCyeQ8gAAha2PpKP+1oL0/JmQg6spAtucu28xoCmFwweIGUA1mjrJAs0VfIVRpJkuI+aEJ4rGokmGOwxI8IY5DUjKYaUxK0JhgAiwwihEuGEIgEC9MDzMz6CvZHn8xXvj1BaIzukeSktTmWTLVuF0fZ2dhEFg0Y0q1T9H3RmaE/u8wP6abbTZf67Y2GkdETpIONDpY66dZOW3antEYykTMMtSJctS8SnOFKlG2IMyQT6XhGmG6lZLVortw74lkdSdmbbxlfOL9PyVrVsU06x9IBH3yDBWm+D2rV0lS0Diok9yUt4wktbBgzSkwFci4PmSLD/ADJtmY+zbAwqbh4f0xupHwak/G1BP0UZDcCpR9kE6b4PKVPS5xfWrD9wCN5Yt31szUDzWVNAuTu47eIVD51diXMIBdYSEi2zgM+juj12m5JUiOjTyz9IY/vvBWRRJQGQlKRuSAB4QniNxyjyK7PEqbQtXM6Eib14FAd5AEGqbkfXrSUqAQlTPjWNmXRKtwj1kSokTKjNNIs8zlfBzNUcU2oSCS5wpUr3pgrSfBxTjpTJi/spB8CfGNyJUSIlwZkFGXpuRlGi4khR+epSvAlvCC1JomTL+Lky0fRQlPsEEwiHAQZh0VhLiQyolEKYWYKI0SoUS4dHQswUdhELCQrGCwoQwkOKY4CHYUdDmhYR4oQjQ54YTCFUACriJo5Z4w23CBgTNCNCCGkxgiySGmGx0MBYVoQCHAGABrQjQ8iOwwAMwwmGJWjoYiIyxCCXE0c0FgRGXHc3EpMI8FgNCI7BCvHPBYHYYWGvCvAgOJjgqEjmgAXFHQmGFCIAEhQTDhCvABwELhhHhCqAB0c8MxQmOKAkeEeGYobABJihHhuKEeKQmLHKMNMI8MQijDIVZiPnBx7jCbAuBMJhiSGq3xiihAmFaOBhCqGMdHQwrEJzkAEkJEZXDXgAmeEK4jC4UiABccdihkcIAHvCYoQCFCYAFhCIcEwsADGh2GFhHhgLhhYa8c8Ajo54a8c8ADiYR4YTCQDJMUIVQyOeABY6OjoYjjHR0dDA5454RoQnthgOhhXu/KEKXz7v1nCmCwGER0Iow14ACERk3jo6MkAh2wxWfaPEQsdDGN2d/hCnPtA7xCx0ACD9d8IT7QPAR0dAAojnv2geEdHQASEQoEdHQAOjo6OgA6Ojo6ABsJHR0AHQkJHQCOhEx0dDAWEMdHQAdCQsdAMSFjo6GIWEjo6GAyYcuuHAR0dAAsRqjo6ACNcRPHR0MD//2Q==;" vertex="1" parent="1">
          <mxGeometry x="-100" y="810" width="270" height="171.99" as="geometry" />
        </mxCell>
        <mxCell id="AEIaR-JQplcSrDzmcX76-78" style="edgeStyle=orthogonalEdgeStyle;rounded=0;orthogonalLoop=1;jettySize=auto;html=1;" edge="1" parent="1" source="AEIaR-JQplcSrDzmcX76-77">
          <mxGeometry relative="1" as="geometry">
            <mxPoint x="190" y="1064.005" as="targetPoint" />
          </mxGeometry>
        </mxCell>
        <mxCell id="AEIaR-JQplcSrDzmcX76-77" value="" style="shape=image;verticalLabelPosition=bottom;labelBackgroundColor=default;verticalAlign=top;aspect=fixed;imageAspect=0;image=data:image/png,iVBORw0KGgoAAAANSUhEUgAAAS4AAACnCAMAAACYVkHVAAABvFBMVEX///8AcMAAAACenp6Dg4MAVLvj6fVGdcVzktDP2e4AZb0Abr/q7vf6+vr4+v3U1NTg4OD29vbq6ura2toAq+zZ4vJni84Aar7o6Oi4uLjMzMzx8/cAa76wsLDw8PC5ubnCwsLU2uaIiIiTk5PK0uFFRUWhoaGWpsRGfMd2dnY5OTlXV1eLnb6cq8e2wdVvb29lZWVMTEw7OzvFzd2ntM234vmEl7v8vQCpvOJbW1t1jLTqRjidst3DzukvLy9oaGgkJCTP7vspdrdMjfb5hwD0ymZ/ntWOqNkcHBxhe6mivtvk9v0AsvCQ1/aPsdTF6vpwncphmfeDqOzuPi782rT8mCT9x5X9xzD83sNUhMoAYKkARH4AYaoAIEsfKDIAUpIADhtCW38VVK0AF14nZcWI6eqW4vOr7vPI9PWB1PB/iZIBQ29hdIdPi8S53PxEv/OOvv1sy/Onyv6k0vh7xPWA0/ZHhL6DqdA/YJgKRIs3iPyEfsXrpJnzPR71iIBvnvDoZl3719Xivbv8v3/9sWL8ozz+56nwvib3vLixq5Pm4M/7qlT81KT6vo7yxGr93IvwdiP4qg/xdVFQW26pqyygAAAWhUlEQVR4nO1diWPaVpp/EawS2+gArWOQLJAQSMYIYSxBDI0P3DSxw7pOm6NO25nOHnN0ZtM07TiT7raz2U3S2U3TPf/hfU8IJIQEkoyDHfPzAeg9iacf3/W+dwDADDPMMMMMM8wwwwwXCPj1KzevJ7zLEtdv3ryOv932nG1szC8tLy8tbXiWLaGyec+yi4mN+YVLCPObw2WbS2bRglfZxQS3fKmLhaXhwssLVuES9/ZbdiaxsXSpR8mQCG3aZTN17OL6CEocVF6fRtvOIDaC0TWTri7m5nuUzA/FC7hdNjeNtp1FXLFs/fKV7mty8/r1TdK7bAboGpdNv7jSpWhuZQlipStN5MoS8o3LyzPH2Ad5cx7iVvfFnMkPZM/Svluo7CY5vdadReA9s8WtWJHWwgrnLpsBAd+8eXXl4dVbm4vwxaZt3DfNslt22QzQrl+5tLS8ALG8dOnh5mDoMGeXLTzcmJkvsPlwqdfNQQzddNC1vAFuLtll0BVc9NCLvOIkC1Ly0BmFzYGrg6VLVy62xb8+yJYZqF7tRVpXQWJ+sPSi94Qeuti6tHwL4JfNKGz50iK4tewqXliZdounihU3XSgpgV9FYepV3JGOmNFlwk3X8vzKBomih00YapEbK/PLM7ocGKRrYf4KiuQXN67fvHV9AwVac1fmF2Z09TFA19IKjEsXb11eXlpGmfuFy7fmUAdyeUZXD5fnHbhKgsWrsLfd6wRdWl56OAe4h846l6fd4qki4QQJbsH4fdCWQU9JDlSadovPEKzu4ueffvHZZ5998bnJ3GzEzBc3kZn64he/LDbjpVJz/Ze/+ALK181pt+rM4srCpc9+1RTS1st0rvyrzxZmWVQ/XPkU26YHjtBNbH9KjTn7+FuMGTrGYvwUWnIeUComPY4mt0pvvSXnAfGi93GimH+7DTkX4Fe9ZAshuz7TRzfoHdq/bC8FSUtls2+xPWcczdiIwlg5XjRRzaVHVLs4oHxVEYFoykw6lUrTfHMnPpMxAKpywIrZPDZKDi8GCGyUcA0iVawSp9iU8wChGaZ2s3zB+ZKkUNWr1VNqxzlBWQhVnVjNnU47zgm2hjuLI0HtXVD/yOTia7UqFvbuS0E96buEpAwjT1lgM5JtuykIj6pyfOAltXO6LTuLELbWqKEAgtmuCllAp1I0IBj0BJoqJk1g7EAtYt2L03cZRMnbYkkxtkjs1OJlPi/XMts8ATWvLLjTXvkLpo1Eec27IC+BLUluMnxtXVrPrfIgXQRSZsfVWeS3T7+JZwnNuE9BPg/yWLbJ56VyFrAASxJFuiRgroQFu37qLXzLmPurEfi7mt9pLAsoDDQlHtBSLCVBG0VLOSC7fGcag/j77/7BvuJ5H7GdGzGIw+yM6iRKeVBkR5T3LiKv1/pCl3iX6WqOTJAG7xJm9nomH3+H6aLXRwgXDB8Am7Kli7LZSw+lXLNFywa+y3TFvOw8VSuZMrcGmcLYvElSsprPFVP2ecOjHMRWV1DfZbo8g0zo7DA5w8qlajW7Q0mpEmQM9r2ZWkrKZ3I8FWNKTY/MRarbg4pAFykaFUM3p5/jWqWiTXe1gz9dxFbK4yi7KjTjci5eysixLbacl5JJgKVAsiZXwV5MYuNrlGeiRzIHIgPTxYl6IYFEF1d1nEsUVB0kVENMJERDneYEH3+6aM8BWHZPICQ5Ey+xvLTFQuagyV9nQaosxSFdMTbepGXPvJiZig1Il6gaulioQI5ExTqkKYq1wIFUpyhg/nRRNS/fhyJPtlbOx8u19A5bpmpx2GXckvgaXcvn06vNuFBb86RrDVmvYHQphvVEUxq9Y1zDLlentzJkBF2TzR7nkDaOoovTFFWtFCBbYv+Y0Ve8ioMiTp1kw0LBn650caLZPRZl+v3pwhsVxBKhqw3NPqp7V65MVrwShYKl35xYEEeuORnhGT1NfWQwRWIEXUal30qxMdY2afvauCrjwVmcF6ChLBjQTgJcqWgFQ1FG+JIRdNUCdHGCwzSFfnRVnGJE+MiUDRIXWycTMFFRKhUFqb2hdT8ozdAtoeWUgu95I+jiJzqUI6Cr+dClhRcWsnECvkhFM8+G5lLvuRVQ6T8Diq98j6ArNVFtNKMxb7oimW6nqwx6SgKapgR6vz4deH/e40AjVD8DNqqLHffLdkWBmQvzpsuIFHga4vg6TiQqilYo6NBKOYQH7ys+55TWgp89GEVXdifkUNkIsKvovzdd4eUEgauEqm70wlyg74/9eBItn89iFF2AxSY29WjP9BuedPXvO+SyUSVMXDhw/42x72Ro3r5kJF0gthd8FslIlLo5f0+6RGTo0Q38GoSiTAlh7FvhO04tLxkcTReIudPv0VDa6z560oUjutq/AeC3APzu18EvqgSnVvMPDfzR8rj+GLoAheVPLGDZtZp1DS+69JbpwQ9Bp90BvwshXSFsVyTrKBrDx8bRBZJxLM6ehDFGwvp97mG68EYBuu06AJ0v6+12B7LV6QS7ruZxNz7Qxwa+nvAIJ8bSBeMvqby1WqvGPZHPo19flMpbxbjtL4boMhM0JKjXO8dm20iy81v0JJfL5ngWUCmQhT6C4Pkk7xg4yMko1AyemFDGV/GCRyoyAF0QKVqSY16Qf/8H6R//4F2GwLO0UzLddNmx4bcmW+3Dw9+YwsXHUmupEhMvgTx0EtVyU8rnAUUBOpnOEhQ8DBqcGLgvEC1SAYVhixeMLn/cuQ3Ao9tBa7vp0iz3Tnbq6AHpImnyxfLZprCdjUs8pInAsoDIS/z6qlAWSrF8sVgCRGJE7O3GmaHr9iP4j9wNuqOlmy7LuZFfdWy5J78EJl1rjETFkzU6DpIo0R+PbQt8aU2IyzVG7i6pMQJGB1yoFV72Z6ANa/vJ6MJ3zRbjnwfcK2iIru7Dt4ukI8hBdJnKKAklIpmF1DSba3lpO7/W5EvVdblaLXfpKgTqBokNo2W/6tQPHtfNR0jMAagPVT886Lua/StDeHgiunpqOLcbrNvnQ9fXuDM8PYZ/mUw2w+fQ6CVBmaaeyOaQtU/JAp2Vhe4YlRiELuRAuym/Tr39+K8REEftxyQ4fAw6oF0nO21QbwOyTqKHJ+0nh90z9f2NuSGcZA8pUxW7z3YD2ZEhurrq9NU3jmPtg6BvrwegS+/5gzrk6eBvbLq+rIODA/LgsN5pP2kftw/aTzrkQbt+eAxfmickGmCySe5Fh0x9+GhExT7cdPUiwY+/XlzEETrtb/846gKis6MYJJPRv+MDF131g8NDSNcxesrBT+igftA5gPoJWbTyhcGNYzAMWPg7fwpwBn4ZXxxAwxKQr76G+Abi28PRV0g4en8Bwik72Biiq/2EhHQdtEmojsfkYZ2s1w/g8wNw3DdeXnF9ZHx4x/mKe/rh+FMSD6+6sK+FTHbZadQgsbreJ7f++PFj9Pf4j4/RJwL7Dm3Y8WpDqYJPO1CoIFnoAR7r238yXI5oJBZ3B/1sIkg4QboANhuGUgmV6Ev0hCpI2KU56HrypH785Biia5uCGNuI3QEPkI/cQfXibgRVh7aF5MKl3S2L4p9Qd8BXGQH5JABfk6NrUBVN6LuhhxsSEawDjlSEVAPlZMj+DbvpOjw4hPoHTRfZhhGGHW05G5SYmDLOeVHz4dOwlwkSC7gBKSAK4wcju9B6Bs5N1zEMUsEh7NtDg1WHPvGJVU90+BLflH3oJj/1NFR3hkVuNLQIdAFVaQTuXQO1d8ud+nHdpqvz+MvHkCmA7Pth5/C4bntkO406sckYf/Lh5Wng3nYXHr3Y8QhnURotw5ZhyNljk64D5A6fIC08OKi3yeN22z6jZcV2E4sj5p762EluN9wIKxfBmJKhzoH3nBhUKhK1HZmqTgeS1O4gB905dNyQ5R+IiImMIZC7vhut4/5Fngg7Wgic3i4Iokw/MUeKSM+xjSgYFcHPhQsnyKA228aoKR/D148SC6DelX6SWQUD0P1U0cTtp6Heh1AMnCTHJRdI28YVQglXpFhA1zR1Uk4R2qfRWYxgvW0buFFpjJMY2/qI4e4/5Fi39R7K6FleoXBnXOcwUG97EJUxdPXCJ9II661CjEb2oU8wEzE3NrVFhg0n0HwaJ1/D6tbQ0OxevaKG9gzhdLeLMOPjY8AFSDQHqeMC6SRiaNAZOUMYDohRbiP8ROko0Y0fguW1Pg0vzoblIzmcU9xjESfafU415WucSjg+iQnO3N/cDVQtQm8bkFpDNbRn3+23DNdct5POrGwoRmtc/GW/ozExpwgSY7xiH2HdowXRjHZ0jXOEY+LJ40WSGBsO9+gijAlME+5hrFe0a4btbZuwZEAlOKPrzElRMSYyv38gPTacYRNbSgHnEqIW3pn44/ajwG6ZfOTFbELErStwoughNJaRRQOinFZRFKXiMTYaCZxjdYOdke2jATjdmPAKLTxMBydhhxOcRZEObROMCDgUCFY0o6IMWQkFN72f0eWImOjXUBg980UCbt/1IUQJN8Yi+GQIhMWunRMrSkVR0ex1a/Y8ruBGlw9CdweRjYaOpGBSuYBB4IqiJ7hCa7+xjzcGNDxxGm8Y1nyjse2EamoTKTZEWxv2+3EVPqgVeAWa5EaicVpr8MiCtq9qIqlXOGcPWmxMbvkTfAutYC4t3NU0I+g4F4dDI3X7KW7Pmu2vIxsY8RpMwekFraHsTywX4NWubh/SEMl+RparnDwlDy1xl/GKquM4NDgA7LY0ES8YAdw6rjagkao0Kncc8aXds8Cdn+XAwLq4L6qTjKmH0UusVtCqyW4rQyWEvEBU0IWUlmZPGRZbjZ4GjcttkI3ep8Wp42cZaAPstAxlEsujRrydxU33XU0dOCn6cWGhYXe4HHGjMjI0wZ0xOD5WVDhFdegjVzFO90uZYHyFPu6Tj/EQInTtRoFzZpTsux3I+I4aP+YG5/gTYO6jPnzy0voEx9bHwWiJQBNP7AlJQ9USHMcVlIrjUmJfpAinvdFHjN+4LQH50fs9/NNHPjQXJjl1YzRUTq1U9kMt+PCAaMf++HDw6Aa+7xtrD407fNMnC/5+43lOlCRLVLQURQuZkB2GOKBehbHmoyD6da3cmTUcEvXRxyb+GcJnvXKUsf9ogAHyiV0h1xpfxw2faTNu0/4xpGsjlYZIff/D3R/+7HO1Uw0enCD3n504cBi/AsvrJC99dIvJa6iC/0JbeP7ee3f/1ftiE16MfqoY7p8HgWc4ibtM1yfq++9vpul0Mgn//dvd99577n2x80SXc47nm/s3XhDg9csbr47GnebljF0+7sdrf3n/Y0gUeg4f/nz3vbv/7nmtt6aME4Aj9H754N69Ny/vvbx3796LB2NOG55JqzWMwTD+2rVr/yHS3XUuSZqm3oPwutTkJlKdPpzj4q9uvHxw4/69GzeObtx4Mea8oclGaEOBwSAE0nXtdQC6lNPJ2JwKCE+67o+lyy1dHunwHyFdH9BOZfzBSxl1LeISuilAdK4B+QnR9QrSBX/HKaNLIjwV6hPI1xFtm/q7zz0qkdrAR3aWkVA0rgKIozevYb/gNTRcD+69SYLXD45ejDP13LPB155z9o8gXX8JEEiAyrn40nZzsJ17fe/lqxdHyaMXr3568xoAPp4DLCvnGIkGTFzKJmVZZoAsZQmelfp7Jagu5fOWjw8gXz/iiKz091C4/MLUaNMI3zq6A7Y/338BQ4d79386evPqFZC2JIzKY6vwp0Zg+dXtbKmI5aSttWJ6Z2dnyzrT0MFgX8CbrtfI2n+A8J/Izvvue4KfB+OFd8Okn01PeO/+jQc/3fgJpHIyJuTLWYyVVwGba9bQCjmA8WlM2MplsN6pbvXz6Vv81zUL/w1V8Xv/lpwHuqxhtZ9v3HfQJe3wGJtvpjAqtp7E8tUykPaSAMuksMyW0KcLuEN4n4wb8UmXrf+BbD0fyJvgTrZH5YTODCrd9h+9gp7wRfLB/Qev7r8B61UKk7t0FQUsXdtiMWyLrZUyGLM3QJdL/3xip6NPTPzv8+fPB+086RxSOBe9IKPXyNfE6xf3Xx4R0NADfmetlImVkusM3yRqO1KVkgQ5l97ayyRrrLDqOH2QrkQrbNKtvxHjROcInR7sZN7Rizew3/PGfN6968xATa8v4nIvyOKeqYVwU7D6u2eFW0U1NfTHI4/MQP5n+Cwr0GmBkbJNiSZkHsiZFM+nGSkdE7Ixivk/wT7Zba00kSuEXIZhTbKc6MLBU0S/nZaph8+IeEkq1TLxNTZOlXg+X81LrBSLlzJ8Va5WY793bKI2KEndafss3/++G4I1/7EpK4eaTTLmcwIwvc0luq5ZDLzFwbQhqgUOSZhNF5CaTblGCdVUPMtvV+VMjAXNvNykqHIuw8rb/e4d6bLtpqOkBZBOUhRg6SxLZWgKCOksw1DpFJFlcukcLTNUiqfkFJukaIqh0L4bhBZluu10wKkFRYU2iIC9nhdHpmpSvEzLJTZfYul4nC7FcxSIsTxbldhSjI/H+guL3OlUMxZg2GQuJggyjS7Cx2QAZS3N00ImyzNCihcYNsNn6Fwum8mwDE/RCqc1zkMMYSHC6myrLz00y65ryjI5nuZ5KpMRMnJOzgE6J7CCkIM/Ap8SAGQsAzmDoJgsm04rEVa5TBFR1v6b/kEdGpu3Zmsgs0TAH4oXTCeLRiiJ7qFeOdGthXAuAog+8CguqUIQmtd2a65pP0E29T0f8VYfkejSWt5hUoS9OSe2HvUtIcqn6zvHS+zOYws+hd3tXM88ooxR+kdJXEUxDHWMxOJBtr89o4gyxjjKPXAJcZz36GcCudEzn84kxNC5gHGuf3BO1/DVDVVPcCSX0E48+j4NiKohckNTkN2wFWis9ICCs8ZQEp5UANrl/JwFXA7gujZujZK9ilIMMP3EuQcw7mb33NkrDyTGiAy+3yWAG2fHLRgNlKjV1VZLca1IKoQbsE5LdvgmnJ0v29adfA1ngmHXrtVQ1YYR2NDhmvIMqXkjMbAbvRbStVCObYHj2IiKbxm4cxNpt8JFykdZIWgD6P1pwPhw1ym+AzCJxnaKAOMprFgj9mQG7czN1uI1IK2XMGpLSmKMsCVtS5iE0ay0jb5XgaiubfNyuRbLYqViNY8JERp4IhDQY5krlxRNda14JiNNALO8B9RKEsZiuq4bqodwshi9usYXBYwtlvmysMOuFnOr6Gui4zlMxigGo9YhXRT6YtH8HlirAhYeBYCHksZgDIXBCvxedq0U5ZZPBq5QUVqtVkVXxYEdgrloy0cttTMn/pPoO1I4T9KxNb5WlIi9cm6vFktuNfn1ZoxgUzuxLMFgNKRkPUZgLJYz6aqWmtsUJJFGdNEYTcMSht+ZCl0IZjeZUKEt6ykQoUdcbAujBfT9LOOiqyqWKmEMWMNS29BONTGmBDUOS8mrlEQV4zxGV5uQknyZiuWhKLHN7QxG1crZLZnPbEv5ZhZjZCzbnM5XvFupdlFH/RkdT+CiEXUDCqLRIDl1/CTwLAWyDAHSDEhBJes+JCkC0BRFJCmKMf8lAcPSKYZigPmKptFjloBVCCqZZQA9se8hCAXLuHDoHjmoklr0LRVEXWxAd3pOBi2ioVCpIMYmMaYsqkrLdz75OwLjGZlQycnkVfa5ghFhBvp5QotsaEbjhBsRWCh896xyboZ4oqGhtvTQ28xcXLR0zjiXeZXpIPHsWePdts6TRcgtX2eYYYYZZphhCvh/JYL773OfBKwAAAAASUVORK5CYII=;" vertex="1" parent="1">
          <mxGeometry x="-100" y="990" width="267.66" height="148.01" as="geometry" />
        </mxCell>
        <mxCell id="AEIaR-JQplcSrDzmcX76-79" style="edgeStyle=orthogonalEdgeStyle;rounded=0;orthogonalLoop=1;jettySize=auto;html=1;entryX=0.353;entryY=1.004;entryDx=0;entryDy=0;entryPerimeter=0;" edge="1" parent="1" source="AEIaR-JQplcSrDzmcX76-77" target="AEIaR-JQplcSrDzmcX76-73">
          <mxGeometry relative="1" as="geometry" />
        </mxCell>
        <mxCell id="AEIaR-JQplcSrDzmcX76-80" value="INFRA" style="whiteSpace=wrap;html=1;verticalAlign=top;fillColor=#CCCCCC;strokeColor=#6881B3;fontColor=#0066CC;gradientColor=none;gradientDirection=north;strokeWidth=2;" vertex="1" parent="1">
          <mxGeometry x="340" y="1000" width="80" height="40" as="geometry" />
        </mxCell>
        <mxCell id="AEIaR-JQplcSrDzmcX76-91" value="" style="edgeStyle=orthogonalEdgeStyle;rounded=0;orthogonalLoop=1;jettySize=auto;html=1;" edge="1" parent="1" source="AEIaR-JQplcSrDzmcX76-82" target="AEIaR-JQplcSrDzmcX76-90">
          <mxGeometry relative="1" as="geometry" />
        </mxCell>
        <mxCell id="AEIaR-JQplcSrDzmcX76-82" value="Devlopmet&amp;nbsp;" style="whiteSpace=wrap;html=1;verticalAlign=top;fillColor=#CCCCCC;strokeColor=#6881B3;fontColor=#0066CC;gradientColor=none;gradientDirection=north;strokeWidth=2;" vertex="1" parent="1">
          <mxGeometry x="466" y="900" width="120" height="60" as="geometry" />
        </mxCell>
        <mxCell id="AEIaR-JQplcSrDzmcX76-85" style="edgeStyle=orthogonalEdgeStyle;rounded=0;orthogonalLoop=1;jettySize=auto;html=1;entryX=0.5;entryY=1;entryDx=0;entryDy=0;" edge="1" parent="1" source="AEIaR-JQplcSrDzmcX76-84" target="AEIaR-JQplcSrDzmcX76-82">
          <mxGeometry relative="1" as="geometry" />
        </mxCell>
        <mxCell id="AEIaR-JQplcSrDzmcX76-84" value="" style="shape=image;verticalLabelPosition=bottom;labelBackgroundColor=default;verticalAlign=top;aspect=fixed;imageAspect=0;image=data:image/png,iVBORw0KGgoAAAANSUhEUgAAASwAAACoCAMAAABt9SM9AAAA6lBMVEX///8AAADwUTNBMAAODg78/Pw5JgDBwcHv7+8+LQDJyck3JAAKCgrwTzBvb2+Hf3NbW1t7e3uEhISXkITycl01HgBOQCQwGgDvPxUrEADKx8AtFAD2pJnwSSazs7MxMTHX19eioqKSkpJFRUViYmLT09Py8vLi4uKnp6chISFNTU0kAACpo5nvPA7vRB4qKioYGBhzc3M7Ozv84t70iXn5wLizrqUnCAATAAD4tq3zfmz3p5xzaVYdAAD71M9YSitKOhRqX0rxXkPxZk/96uiCem3yb1r0h3b83tlhVT32nI+sp5/1k4XxWT7c+1HsAAAKUklEQVR4nO2cbWOayBaAQQMCatS4xheiQRMlGmNMttF2kzSmaW43ve3//zs7LwwMiIoCYvU8H7qKEMdnZ86cOYwKAgAAAAAAAAAAAAAAAAAAAAAAAAAAAAAAAAAAAAAExGx1Li/O+/3+xaDU1npJN2d36bWKoof7jpl0q3YS7dJrinJ+lXTLdg7t3F8VoSMl3bxdwrxYogrTSrqFu0NnhSrEhZJ0I3eD3v1qV4hM0u3cBYxAqhAnSbc0eTJBXYnicdJtTZo1XIliMenWJou2jqsD71vmeq5QxpV0ixOkv66sA54T75iCkmBm5taFjKNOV1LsZ4e6tnYCloafKiU/VX3al+wU/1CD/JFtxFr7mQO0br5rtzKaprWuTnBfY6toJ8k/zIHYtj//2D7WdS+ZTXuR0/I5+YCQnKF2sfpsLsc4xJKN07HE+9Vnc8nrUfxt2zmciCWKq89ucWcfXtTq8lPe6trxMXf24U2IrjxBW3m6qzp4cLkW/+EDFF96/PmHVjflV4WBkgE+aF3G3bod42rtgH271oSwV9yt/dF5vQdWkOfq7qVgVyicrNUTwl6xQbgeO5e0Y21bREhKRANA2qCbDJxLtlYD/PfscdM8pTCt12fdKBrBT4ZGwGu4gtddFG0IwMNNszn6vtGlZT2dTqvXUaSEIWVtKXd4uEmlUvnNbGFX6XRlEkEzeFlBu+pg27KIqw1tSVMiK1uOoB28rKDr4vsty/pCXWFbf69/tadnDT9PPxc2bAifBwSd2rhLAmYb4fhZS4WwVa6SmMUmxIK8eS/jZ8OANwP5zrid2fAslK2na72ebbBnMzXEkOQ+ecBiHr84jL9Y+uUf9M9jKFs906k8mfUw8YuL1qIR6Ar+VlnsGfzDzYjayudDxC2HVzmMrJN1IxAf5WJfG+LY3iS2vr3V8qFtSe+VUDNja93PzhcL467C03mQ2BKE799W2zImw/Jw0lAsekJvaIGC1qSQlcnUqJ4iZk/rt8e1y2Gw+nzXLq6YE3iWMzBbo+UjUSnoeqWSzVaqdcpzWTCeKwT9XZCeZTVNURHyBrJc5anVs5urUBrzHQsnv3qjB/63NG5NpnLaTXYoNKr0oVwQpKrrxY1kufeRrrCljF1nx7p52XaVyv9FjzBZvrYm17TTyEyZnJ0OheGzbMt6rjJzVUT9dYM2eXYbFZetOFvuc2PN3x1XqZS1zlmWb/XqRJX+8v4kZ/HDWbk8NASh+y4zWY1GI0v7VIOwSavo/Zr7Ertv01kU5jPeDbpxJg68KzQO6f/CJbaG2IM6IxlVAc95VZZcnapUFqYSdp1I7zF3uU3wg7bhPcnMzG+tud38PVficoVCPIpaXwWXrdq/rgtesBLddJ7IbJhFKssK8bhOyn8RxeDO8N+yFWN497giUesnnhPPas0ms+XqW3WSElhPSDebWgElWlnWXg+ckjo7AF2RXvJzdR7iLVfgdUVknd38QC89/vgxyvv0LVyJUVlnmmApukGfRCuLLXnafBblnuj8vnoRSaXWlzlXVFZz9IO83Htjtri+5epZ5Sw3JiOWxVYwijPfebYx+HyhIL6E9O85V5as1OgTOeG7FbnyeeeiDxKz6AynkEkvnmFo3wrEA7FLpryxJx7Nj8NcqDdcypfRIllNKkv4bSVc3EAcEg/ViSL1JirWo35Yr0Qti0V2MvaUbnc+eZiTZYR7w2V8XdizmKyUJevGqTNLdC1Tqev1Cnk0ZXlU5LKsGXFxlul1FeuWkE9zXcuSlRqRofXVer12xl1k1NnKj1C3a8fRy7LWfAuLpR5XMVdI52wxWfk31Je+NmnHqv10XaR82LbU7PXQPh69LBbkc1dkCEregeh2Ffv3wry2mCw0A/7Oj3xdCV2ciWbruq5PT8tc++dkyZvesHBw1sjn5/P14m32K4zHli0rxcLVnKvGVE1n3wXFMEz38paXRaZJNR2+fRK/qc8bk7YWrxhuW7i27Cx1/FwZ00UWeFlkUZSWPyaNSSGkMq7EvLhn5YxwbxIU3hadBT81OVdnntNVGrBeXt8L5f9PGmwV3etOyAvqh4FHZsEqlVaqFbkeMqvWcitlbWt3g8tWkx5pLnZl1qkFVZXlbKVSrVeeSOpQvq5YMV//jA50r535Mnyc7yyXdRvfGmeeX8xWnpaVhX/yi1wJJmfBqvCR6h5Z+FCq2F5hqtoT5ialUjc9Worx3p2mqra88Z3Zyn+jz9/yi1wJwmvWaytdLeOeVWU8k642mdX1alXXP4aR/ARKr92fT9CLKGPd/jY/ZmuEa1n+uajNq0pGocsW6nENByudUIxGw4ywIG7O15aj/PPBYbaaD5L00FzmCt+ZyL7M5IqOeg5d8KTrB/b7OXbfqtWW9isFZQ7yO3og9VDPmdAUgVW0DoZfnlze3xUJ5LqTtpv6IfYsr63ao/9ZT7JT7RPooEQTXlRt6LU6pcvSSTuz89+/4W0tciXgG17qaYMGVmVCpsZKFLv9ECZ3C4IURSVtbq7rj8dHVp29I47HojH3V6QjdEr8Xw1zbC10JUzINtuqPjt9OVXrdL2cjmZOyojiEYPc0cI1B883MyUxl2Nfuijhx/NJloIPx3lDzILZWuwKZQ5VlsLT9EGtvkSzxUcTc1QU/g+pt1wieZ5EVEKHcrYs9LKfLHQ4xps8NtTWMld4O2Q1a+38UOWsrg6XnRwcibiyl4FYwr1oWSuN+31632aXZAm/avn8zVJXqMGN8tOsMp1eV2ZPw8iWZW08BtGKBuWZkqKVcIQnNnDp5RiPLBK+dkqW8Pj728NW3sjLOIcHoGsWlAbWvr9j/Pl3UFZSmKRjeSc/a+a4w59/7WGo7Hz+sSktn/7QKl5eFk3yUyHoxcFlse0n68o6C2Ue6MEVkZW718gN7dJ++uqwYM5BaqQZnECQbAJvmJRIB2wRilQWubuIu6RG8zMsC08U9N+9/KLmMQvmvTalhWVhG6adfSETEvMmUoVIlh3QNJGcotDzcyQRCfJzI38eRRaA7F9KcWR5exbHIlm0MH/EQt2eMWAfuWt1DFuW1Glf4AelTidjycoRlsgSLwz8l9Ape/lrbVzP8sgSvLOh/csrS2SR6Eeu38cfLrBjliFasZmT5c6zxGNBQrDZ0FcWSc8y+FGAn/3543DNhuIqWYSVsgz8d/oJfJi4aXEfTIpQ1l7m8qYVgTBRySIHAnyZ5c/jlhiiNdjwssiAvuJO3i+uaFg/yWhay1cWyQEWycJyOpwsMgeez9fD9oVz0a5neWfDDhmjt8WSnyzrxQuaSthJafH4iDwwEvxI8aFwVWWPLM1K4Qd+stiLuSNHVg5bz7Hy9D6i3Nu6cqT4fmIX2QeivTZEh2xZ9OUi9YT15IisXG5s/aVYt+QmTMb+bnSRjj5WILW+qVrEv8+TY+kYeRnn9dYOrjsFha8TsuG7bd0oOjeS+ijbQDIyCJ97tlLX97CFqWneFyVj/hgAAAAAAAAAAAAAAAAAAAAAAAAAAAAAAAAAAAAAAAAAAAAAAAAAAACwF/wH+j7YQz7ZGswAAAAASUVORK5CYII=;" vertex="1" parent="1">
          <mxGeometry x="446" y="1010" width="140" height="78.4" as="geometry" />
        </mxCell>
        <mxCell id="AEIaR-JQplcSrDzmcX76-86" value="" style="shape=image;verticalLabelPosition=bottom;labelBackgroundColor=default;verticalAlign=top;aspect=fixed;imageAspect=0;image=data:image/png,iVBORw0KGgoAAAANSUhEUgAAANoAAADnCAMAAABPJ7iaAAAAwFBMVEX///97QrwAAADVxul6QLt5Prv59vyYas56Or+bbNL8+/309PT5+fns7Ozk5OTDw8OLi4s0NDTb29ubm5t/f38+Pj4uLi6vr685OTnMzMwcHBy9vb2oqKhtbW2/v7/W1tZzc3NYWFgMDAwoKCiRkZFgYGBISEjr4/UhISEXFxd4Nr+phNby7fi/peBOTk6VlZXk2vGHUMfGr+LQveiSYcu3mdyMWMmdctHbze3t5/XCqeGmgdSpf9uLVsixkdnMt+bW4GT4AAAKkElEQVR4nO2cCXuiOhSGYyqWkU0FFyrWFavOVLu309t2/v+/uicJu4BarSxPvnmuVQgxLznn5CTEixAXFxcXFxcXFxcXFxcXFxfXT6h+l3ULfkz1p99/s27DD6l+Kd4/1LJuxY+o/qtaWT1dZN2MnxBBqwir15usG3J6UTQC9/Un66acWg5apQIuV8+6MaeVh1apipdvWbfmpPLRwCrFUg0EQTQCd1uegSCMRlzuMesmnUpRtAqMciXJvbbRSuNyMWjEKt9L4HKxaDAQlCD3ikcDuOLnXkloJPd6LrZVJqOBy1UKnXuloRGXK3DulYpGBoL/CutyO9DAKoX3rNv4Te1EqwhPBY0me6Bdlhvt4kQDwdvH+WLuvmirl8fjG/X3t/grf2iiIL4eOSOovd+L1TyikYHgqKWhiyexWskp2lHpyc3rSoAacosG89TPb80I/nxRsFyjQe51+Iyg/l4R3MtzjAafhefDXI46WSHQwOVe/u0/yt38Jwr+pXlHO2A1tnZbEUJX5h2NzFN/72OVj/eR6wqAttdq7N3LKlp5IdB2rsZCVrVddUHQiMsl5l6123sh7pKCoNHcK341FgJ+7AXFQaOP5bZd7u5jy8kyQYuzm/3RKtXVSyT3qrlZVdZor6vj0KKrsfUHMa3sGdFQ/TatKfughaY7b5+pJc+KRqN0mlHugQYu90mnO5BVpbvumdHgVl+mtGgvNLBK8Ljar53Fzo2G6v+iGdGhaBWRoF3uiknnR0sLa4VHA5dLGIxKgAYu9xQHVwo0GJNiXK4caGCVX0K0dWVBg/zvNTIQlAcNpsaVEEeZ0CK5V6nQwrlXydBgIHh1B4LSoUHu5eTw5UND6M8zHQjKiEYfr5QVDVzuZVVWNIQeKk9lRUN/30uLRlVmtF3rXnuiCU+5Q6v9Tl5bPABNrORxB+nda9KK8N5oonCbNUW86o+faStxO9ESnw/kQbXnSnI02YFWFV9zurXyhq0O3ySvxqajiZ//chc/HF3cO1u03p4SrDINTRByvI35Qly5jwn/xT8jSEarrj7yvBMWhuzq6j9mlfXnOKtMRFvlfP8yzUYEwXkyH94LkoqW/1/8sUSrKj4xl6tfbLlcLNrBO4MykJtDCuIHc7nabWQ1NgatevQWynPIT4+F1RezyshjuW008T6PWdWWgpm/KDywg3e/ArlXFE0Ub3PuZI7CkxrRfTJ/4VtlGK1AP4aOzNe8XZG+ywXRqqsiOJmjramoF/vc3MtHq4ovuc2qYhQzyxbd7fHsSbiHJlTyH/CDiltAqLq5V/0BZgQOWs6zqhjFr414uyJrXyu6A+Fy9ZnvrCpGScs+3q7Im9dHsrniIeN2fkPJK1rgcqxIzfmvaEpZrDv+FynZKnUd8shfpGSsHUus+Z+6JGvn6vHqs2Ax39PuhfFVIdL8GO235l9IcbQiiqMVURytiOJoRRRHK6I4WhHF0YoojlZElRjtLfXXe4VGQ3cfO+CKi4bqjy+pRllgNPKYMK3jCo2G0J+UXZEFR0vbFVl4tORdkcVHo7si46yyDGjxW7RKgkZ/tFFWtJhdkeVBQ7WvsFWWCA0GgpDLlQqN7oosKVro/wBWNjSyK9LJvcqHBi53SXOvMqI5uyLLiQa5171YUjSSexV2B8JuXRRuSx0XFxcXFxcXFxcXV0EkS/5rUErkvHzGNp1G8njagtc1eQ1KvRqzN/OmgtRBu9cet7avzrXkDh7C6xRH0TBmb6ZLVVrgSWeBzfO37ijJTQ9NVlRmfCr8VfES3sBnVUVdPFUlpQUmKamencI/5H3KpQCN9FcHt0wMsmVkkb8moI0wnqhoghULj1hZG860FdTAm05Xw6Mpxo1MG58uQDNms9kSt9SRrnewJV1hXTcUMEi8nuINWvpoBm5vxrgJaBj3NbgPmwnp8rwK0Jior1l4Ji3xUKa+pqAZ9EoAbQ7uJoEPNvBYRX1y0MbXGbZ9hwCta5rmArdkfTCYAwvYYbMhE1+LorWhj6QJlhvYQsVAa9E42bLwdNzDMyRrjSXuKiG0AS1L0ZYETS8IGouQ6gj3kQ5oEPWgW4Jo13g5VFRTGkNvmdQgKdpABhPVsgZIFkARtCXpNUxCHjjTgkZITBAbCGPV8Ufzmv5pQDihaFR5Dv8QDeF101CQbhtaQ5OtkT3qI6kxQ0gzNDRrSAjc0B7MVGQa9qiL0LVhErQ5fCpahrKX+k5sKaH6TmwpobS5lXUTuLgO1VC312vb6GaSakrxOkndythJUPH8JPUdJnncjlPvJANWxyXLJJrK/teHdAoL0v3qZieo7lB5k5ofQOv51XVPUN2h+kE0hVY0gaRMMrNINeXFj6GpTjadmbQ+1fWGubvzsX+CENmiNerHV3SstJO7e87QAuYjS4qixC4aS3GfaHEleEqNQWOVxn1/5KAULEauOmL1OoKmzsYwMcXTse5EgNbIMIw+OWPMJaTBpxHxR80ewaFuw24Tp500x7pKi2/gPK1x3YDrDHawP2ovoVDHdgohhZwjabbS6CnIhEobBMjc2M0JXtrU4VvWAK6azL8fZENoshGIKCzDZ8uUSBlgfKWgDeuQYRvjMULhCESNuhc+RhrZvwocMGgvUJudI4l8HVnKxWR+H/juoaz74+63nSWIJq+320rR5izYqGw0HtBGtBEah4rTSuahI1dqaACnl8kuWpOdMRnaVei6SfCTegK0YJ/Rm+eiOTKD7exIdM01Ur4dOrBQQtdTDVw0R32GlqLN8WjM//HUHg2m9J0dQeuHuoBY0qK3tgcD2zFDqGXcbDJTWvSazeZaclmn87Vrq8Mwmr4TzT4eja764zWJHwprkRxEmxhKAK2jy0gxVRZKJXZ8TiKcNGQtZjHRuV2WIsvSsOl+VwBtpPpoC3uje1nSct2wmMW3vxklA2gDpzOQ11nDANqInPDQ9EjQpsnNlL4NjWtdv3rXLNoBNLvllcFtmi+wG4OnFm0HtZ7m8Wi0p5bsMEsENQ9tzTIwB220NUTR+3slbaFt3FtExYKMh9YzA/hWEN+dDPVOhEZtocMOy/Rw30Vzxz2GFjPU2AloNNJM1GApD81tf9e9jT6acWI0Ws/EHlOF0dxVLD3UCUeiuffrDGjb85wENP8R8NAyBlSdfKNFMondaPIoXDy/aAf3mh0pnne0ZsfT1XUq2jB6J3KO1omcT0FjH9Y6UXsvtEFWaLSexf5o1NOW7HtTI6S3OWWcFZr7xfui0T5oolQ0lrw5A6FM0/tpBmhGiALJLWkPNNbLclI2wi6fsnkt68JBBmjOs9xRVzO1rg5DlZaOxlraUBRTZ+NGDJo7XTUsa+PM5boZoKHQdNBpXgradaR4LJoeLbREWaBFp43jdLTIAkI8WnQqTrO086Oh/nLrBqehaX5R6nfLODQplLJ0TL/Ij6MtYGxeuHN01fCyrc54QxcQrsjY7eb6Oik99dLja1a6MzDRHE70KJq6JDUGHgtf285S9aS9YfGkNSVF3PWcLvmKhXO/VNoel3pNCs6/iSYr4XVEaah1LatvtpTgeTlU2r9aMrtQlhyQ/BNKdGUSqWbfsrpay2tjqEj4K0KnlMj3cXFxcXFxcXFxcXFxcXFxcR2m/wFBevh+Fhrg8AAAAABJRU5ErkJggg==;" vertex="1" parent="1">
          <mxGeometry x="620" y="1016.3199999999999" width="90" height="95.37" as="geometry" />
        </mxCell>
        <mxCell id="AEIaR-JQplcSrDzmcX76-89" style="edgeStyle=orthogonalEdgeStyle;rounded=0;orthogonalLoop=1;jettySize=auto;html=1;entryX=0.941;entryY=1.05;entryDx=0;entryDy=0;entryPerimeter=0;" edge="1" parent="1" source="AEIaR-JQplcSrDzmcX76-86" target="AEIaR-JQplcSrDzmcX76-82">
          <mxGeometry relative="1" as="geometry" />
        </mxCell>
        <mxCell id="AEIaR-JQplcSrDzmcX76-97" value="" style="edgeStyle=orthogonalEdgeStyle;rounded=0;orthogonalLoop=1;jettySize=auto;html=1;" edge="1" parent="1" source="AEIaR-JQplcSrDzmcX76-90" target="AEIaR-JQplcSrDzmcX76-96">
          <mxGeometry relative="1" as="geometry" />
        </mxCell>
        <mxCell id="AEIaR-JQplcSrDzmcX76-90" value="Opretions&amp;nbsp;" style="whiteSpace=wrap;html=1;verticalAlign=top;fillColor=#CCCCCC;strokeColor=#6881B3;fontColor=#0066CC;gradientColor=none;gradientDirection=north;strokeWidth=2;" vertex="1" parent="1">
          <mxGeometry x="670" y="900" width="120" height="60" as="geometry" />
        </mxCell>
        <mxCell id="AEIaR-JQplcSrDzmcX76-93" value="" style="edgeStyle=orthogonalEdgeStyle;rounded=0;orthogonalLoop=1;jettySize=auto;html=1;" edge="1" parent="1" source="AEIaR-JQplcSrDzmcX76-92" target="AEIaR-JQplcSrDzmcX76-90">
          <mxGeometry relative="1" as="geometry" />
        </mxCell>
        <mxCell id="AEIaR-JQplcSrDzmcX76-92" value="" style="shape=image;verticalLabelPosition=bottom;labelBackgroundColor=default;verticalAlign=top;aspect=fixed;imageAspect=0;image=data:image/png,iVBORw0KGgoAAAANSUhEUgAAAPEAAADRCAMAAAAquaQNAAAA51BMVEX///8ua+7///4wau7///wua+z9/////f////siZO6YsOsxae4wafAtbOsxau2ctu1tj94mZu+xxe5bherV4O25yugYYOjH1vTP3fUyaPGHpehwleh8nug0bOXa5vhQfOjl7fVFdeQTXert9/0bX+To8/ylve8nY+DW4fRgh+RsjuMya+EoZfLd6/g7b+Okue20yvAbXO2FoectbNjH2PNhheWnveiJqeRPeN2/0OnH0fUSYOBggtgOWeN4nOPJ1+0OVepRe+tEedxsj+mkuPGMqumsxepqkdmMpvAAT9rt7/xmjOxXgNuiyYofAAAgAElEQVR4nO09C3vaxrLSrnZB3pWIcLwg87CRxMO2wODahBOVtImPe89p+/9/z53ZlTB2EME9KTj9PP2aOAbEzs57dnbGsg4C5DBfe0AgjuMceg37BlI59Ar2CkDffzyNOeCohRcR5aN6/bZvGXEm/1Ch5oRwy4E/iTVqZzMVRMndlOMr1X8osR3CgcbcsZr3KqDSZ5RS1asjztVDr+1vAseqADEbx0nge4zZoWRChmo4qFjkn8nVDvAzP1moQFBPhNRmvrSpbbPUq8WHXtt3BtDJRMsrr/eUD0jalDImbGZTZgth03T4AEqMVPO3/egUx+UD3zoWH0ySwN4IVCY3Y3gPL3T3jwyEc9DF3KrUOonYjC+AH7pJe2wM1w8PqK2s+ChRVAjml2BMacdOZ/ejQy/2uwAg3D8duswXjElagjHzQ5DsILm4tX5UpiaIKjAz4DtuJ24Zps9JHagvDWPGHPOIHwtg1Y7VbZWpqzKcz8AR0+7oD+Z3kyoueHSZBKFty91R9qhUk7lW2vzHQplzYt1eRD71GAjwC4gM7icDR4wT54eQZ1L8Acv917EC2vrCE1+RGHaAlYq2x6RvR8OjGIUCdu51qzKCwschWuDTXlQqvxKUNnCvt02f0TS76cPTiOZszg+NWRlUQfYQ53oP9FUZLzPbkyIU2qsuB0Hd5NNY76Hzijmc48rAnVSpD1iV0k/YnaDzk9qKsW8zL01aXXzsa9ZgjhXXhi7oKogRyvUV9WZH3LrtlLudSGQpPeEml02jBl8XaDFD1iPxwzBFGlJqe+UIi6CNcdJJsg1jD5Qbo1Kou1ttqziy0Cthb7C9hvHGpzOxXTo1wtRWDcCYxFt11yOoRQOJDOJcsV6JCkNvkljddhJ4XrnZWQGjquFwCDEmW9m62CAJjhhmhxyHvxqnpILZq0sVMCHCHbwN5gPG6HZ3dqEx9dCJURPMiDnOK8lxE6sB7obAtAbborAKEHYwRznuZzsgDByBnECle3XNCT88jbXX38Ts1S6rzzFmQRsQJrdqx/cDwvifezWAL6xUD+uEgYdgfUgkuFEvwNiWF7jq6Y4Yr0CqRVzlBzbP4AXezGgoRbkx+gooFT3E+Mh9IcYeTXsxOXB62yEnitkdZr+Iq0UHzc3NCzGWlHpByzqwD0Z4LwQu/bYVXl85CzsctG673PfeCBRTgKp74OwuGakXSDDqXBkyLxziiUwb3FFEQ7wAcep+OCi+AB/cl4iwoIx5nkzbGAh+TGgIn2WM7s4hzO7xA5uou/IYaTPOQgZu1tes+YeL/5QvyZHYNOoflq155r9EhmWQJJ3j9hxiAiDUv07/6A2TVOzgmT7umDo5nObCBEUzesLTFHW29OxnqXgwXsz3BPjHNx/PMRjQwZYmVb/x4WzpUoay7NFHajMTfwnk+TUuYtQ9PRjGELoRa5Ayf51CjDI8e3jK6R4DwyJmk6OS+H78714UAIKhfNwpP/QYCwWT4omcQ/x4tndMC9AnY/e+WMeYhZ6rlKRPaUx9JpKLBka4X9UDYKgJxG62IPBidvjIFsyTwBRJINBZX6dycrjDV+5UOcQ1TxAWSavx8TJ6JnwyumhaGPoQfcz49YPAVo3fzQRbExFfeMHipDnIwJw9MjuIjbo9mByD+hkndD1a8pnbRorVkye6yO01tNjCBzZkJU3Qi+Uhi+jRtgO3RDea+tkTZU6FW9s/qjmA5qo/CwZk1IXAvWJNk9D2pNZELFwegQUljs5hYKjlWFWeZ7a5Pl7K/7asQUZB7Wm3hAn3xlQH9UJPrgtycAeuNTmIiQJytZ8lpVk2IhapONZ85qECAyYMfmpYThXfXdHKzkgyyR+A+aIiewUvdBdJ6AsJ+NrJpeXolN7E99bcOtiODj9QIQGeGJw9cz/C4MHiHJ3m+TKkfso89y5GnQ5LBOLrs+SPR+8G5gndnx/q5/gkLciIH+HtSHoe7JZ7aVkV4AXSVOxZZBZ1yWEMFBCn/ywb6fk0qWPRFoTt8wSYujNr89z6as7tz4+TyI2uzYL7SzdK0GYRwAyCQG3vrpWA2CRqwS5VgVm6V5jMf+KVufND5TSJ1Xge0wvbU59iXKtlNa6ibPZBJ/24YcLmZeLC6mk0NTSKM1BEvrs8nnJEGtWaTuqmmapZ5thpkAj2FF/qy7Z1ICIT62jT2ZI7vMbEsmPFzcGNeaM+PhpdqFwG1IkhER9SafRdr4E8UDX8cHIzPkcJINZ0sunggk7IwbK4xxsiRVBWaa+pExW6TMAyZ8FxW6XF6tUv+eeHuTdFRXR8DhoPNsapYOUIJ/D5/kVih5tKR6J+UeO5XwA1U3ao4EcPWHtYzZkPVtfoBMIvKl9UUeIyEeY3gHiaDJCliVOtgOJzQLF/HAYgwnRDLIo8cgiuhjBCbYrzmEQF1kIGXflXtQhNLCu4upunI89kHjYxCBrUJdduCqbigb/rie97rMM2BKPB6WHSmY51HWziOYyfGFXnWIHnaNeCtwBhCCYKGVD9fMHHRehAMfYIFn3nkVl7Et4PwfOGb5CLTb7qHoBcliYvBEsv8+MDQOGXJfMw3jAEFTSJ8/XeS+kZElPgbPlr4T/Cy9euLC3/EsP4METmV6U1LSz0v6wlZ/p3GFt4uUjSrHipXSRQKGPSvWquJWaPgH/KciP0QMEEGSelyQsvTLqPiwJf8SjxwTk2G6TdRA3/ya0boxB0vYvXSz54L9gkwgbc2mE8kKkqz9q6N+t3AcAF6/YSkadG5CR/jTwEOaMzkU3x9sDKzKJ3Q0vzX+LiMPUwN6UIUz/pY0Um0YcWjlbb/CaigAOoInmWBwIOqD5BmQRH7c9zjSa+gIXY+NE//dK8sAdccggfpFcqxZ77oI2rMTXm3Y7VGLohBQZmFwV96i7zGMR/6qgIoMAnN4g75DYqYyBKk+4B8LXi5GnG5xFhKZNzy1yKqNdW1yAqVnwPXjLzg3fFI04SEUpf9kbgahl7A0b+kyY0BNlnZbralsHgEEx9Cy7CRiqz0H2H1OUO4VfqNHc1dY5rHoEXlf4nX67TnEnGopZ2VfLsyFTNRkSH0+Vnjx4N2vvHmFgPbuht0qYgmNlt7lcPIqHeGVSI9qjGC6U641ztVEhrGQ0bqMz1i/DrwcwL7nVihJO4QzdraybCqz3LsSbKXYkYUzxI0whVKz0hpLhDR9nYKkDtpN53ihSGwxvTuJB0PBg+QtnVh2n4jnYg7Y3Kkcmkv1eE9S20eFiiWEIGfq+BRsTAnQrO+oAMLz5oPeKPKS/zL0AQdHtbIYJBGyUClMCt8vzNRlmo6X4xRoYdlUkZk+pj/p57sLcQP3hX3VWso+tU80Se9Vh0iQ41f2dKz+lQZwLhbYrJjcd4QvinGxb1dwLYkHnZeTezk9ggFC9tAdFRKO1hM/8ckprraN/SF34ALwdzffDv+HNxnow7po3VhZAbVYVP/S97xhgY8bKstpaKs5yiJ8AGnhCeLz01RXWMNxcdzGc5VWIyX0WBlmONJ0EeLdtu2zKbUgvoxuIDRiVEI/tV1w4vLT9jIIcGTtPcrwTSRXPLqeZa2+glPNLIFS6gPlqr0hSTfMswj7bZ1YRgguzV7wIzk5R6RGqeE24hDYWwvJJFtVxDE+1FaseE5HtgkUayduTkJ+d5sjMpwxiCCWufVT+w4mlZsbCQqpGLMcvPkZjsYAXHYIWxw5vNUfO8WnHyqtpu5D0qZcHUx1yZd0or4sT9XhM/QJnToPSYO8oDxe7qFpukPlipn/I1ApLvkiiLrvrVSr7qDy5dizxpep1/0RndmASxtUIne2RqMC+T0po1muVJnVslbHwXhEceBYW2MBiDhtZpLztYkPxWgDVXIQPuwN8ChroaWf/+QpReg1Oj/ebp42VpxocOc+OEqpp5vu8Boah0k4YRZA4KyeCBBTCG0eOekj7WxAh9yCZb+de0yguJ3Pk+8eXkdla6FNrJ01gnKaNC4oUYX2V3R+erkKInmdZTbPnomTTaE5ViZCVQAH7WvyOkXV5WgxZhfzgT68gtrWlaYfybizzN0uVVe4pu8Mq3bKfmw6EXO3mMiG5o9/ouiQI8mMEch4a2KEf5ar/Fe3dBaY6LegWNFU2T7Kw2wgLdikVWR6BzfRwDnz/OLSqeKFfx1Xj6qaNcKlcYb07fIgh1vs/MTzz0y4uwRGxQa/w6adf7G3ivu9QRgucefUUlcMRGtbvlZf7PlihNdlE13SeNR5EXlq1EqnOTnT1vIic7qJzXAfgXRDZkNFo2N9TRopfdH+Xe2H15GbOECG1/5onM3fJbHX7UNA1ssFUCYvCcxpjeOMvc4YfY4pVnZCJr/wNMZGnmB08m9ggtUV5oF/RGxZGig7c5+IYKBmJNazEK9nO+xMQeBs3Gcjvt7Hkx3Ao8mcV74mpE4MpeV6KoeYWuFBfSnd1bmMWzVoV5QGmSE07nN0mRAsGgn1fyN5oLU6athONUCu/sZOkGYKR1SZx4cr8TwvDb/WguXNh4ydaTeiGVXuom2XBy3Krd8iIEdHScb6qXTOyvcX4GGBfGq7YYjm4bskofVK3+ycPl56urRLnyaY2uR/dV5oQ1G9OIPbEajEWX027Mi8xOkaJ2TPEmoDVuHLW+TO76hD+/wAMx36fh1fHN4JdV6qpq6gH1l2nVxnk8uu54T/IDgsq7feBrePSUPklNSN9sN9bsIIq8WiAD5Bt/rLU/K6WCIKTBF+DiZ8LnWIMZeNJBEC2Hd6eDRp+bPL1+zdH1IY425f2hvV7n6/v2cC+6Wn95D3Z7jciUTnSBJckbAOSS6Vi/tM86SrmBb3sMkyPocj/XY9y6T3W3CIghgsDFauSbIg9GdImLTvUD1MT6nWUWMrWfkwmONTpCrH03aKw/TDkP4tq8nvf7sEbUw80lOI3Ux6oHvP8l6SLPY5sEUN6u61rnj5g+RpYQEAet/OymH9dP679j8rNCQJlNg/UEOewf5lX24FwDIrdP6z+YDpf0VetGuxNFSbasoPbhT0pjsJkPMr/Wz9wpvAdk17XiCuwaopoW1iE6VnupIOT68m8sdHGqVstf76EC5tEElX87xkC8QWo/BV9ewKrG1xMsDmY0dOvoW8CaPz6meCHk14XCeGPc4Xla09ILfowJkRHAqc6LKa5CSX0aBMnlx9iKHxRd5yzgGtbLH/D3ArDj0VOMheiEQdKbLFNBgZICPMM7JCVy7mKFDNhSF1N+yAqW01xMctuCzL/aFyyOWDadShWYwJnOkNXBFjMxyzpD4cknvQeEjdem9lDahYWEz1LVPsR9UgKbYf0kMC84ml20MUCp5upIFOwZ+NGanR2rn0kBUoiAWmlRiCf1fJRirfOtY1/iibOn3Q9QB1jut2YThReemf37uwHrCH3b33oJVV4W1Tg3qwyWxBIdvWcgoQGzw2Hs5HI4j7z88IHaWT/3X75xkRM+kLbKV/kdAXRwrGjJ8ciKO5eF4YgngdkbZkfTYst0zk8GD9rTwHrGITUxkpBJ3bioxLpIt36FJ9h+Dp90svkUczlb77IFl4VGAez8nHqraoGLwGaeLZLfHV034Vg3aW53RKvwUG6TcPtNKvlYQfN3o+w48dCmWy+IMz9pFIdp01yURRHPYjqe4VU2EFlSJHoNzwTHhVfOFy4tjxTxK+zZyX4iCV3jf6vCrdeypBdMtKOEa6opXa2nuuY+hMPP8DIQ6HWZNYvWesdIdSquYpPtJNYgsksr2LBZCPWjm73gawAWpGSeqyqBkN2gyQUvsWLOwe17LPZAotcjZniYBXeayOBMnkBsIoJJbPaUQ3S2bUN9MAjw2X2WCYC2dbfdr5QdX6qG7suDhJ0vpYwaxS2QIbWNXfVEZK7kEVK5khTrMs2GVvniGzdeJb2K93u2yPmXbZ3GwGnw5XCMVNbBUiMBLtdHiVWr5nbSvHDNlxMTNHBSc1WrqCHmX904eQpoKJLRXs8W0VME7WWXkxncET/ocXP4j4H9l5ppOuD0h0WJMTgrIhpoL6xC+suBVWRDrOtou5r2vahurapJ9gH62k5zWVKKo8ED/0leoItVNd2MMa2F9GzPfF8Is1vMhxhEJw2IdW4iQ0wDTZMt3o3Am5vujX7ovutR52r7RVyQTKxsImv32BwsX4XdYEhmGsL604en3bd4FYwXLZdiCp+15d1BehuBI5JuvSvNvDS4fC5qdylEAEhgQNr3GKWzrrPGncDhjQQC6fIHYxB9FTuHuCfBcfnbMPbAZoP+Xc/Qkrh1lbiItJCCiiBVw7N/rQd8xJpngFJ5IyuIn2Wmb0jtH2MwpfHVNg0jKOAcdEZrCGH2o1s/fdfrDBN/cvyp1ogt60l+81Sx0Kd+aX8gastkuiHRvRcAxTtKvtWeirLkGm3S88OHFay2A/vX9P+ceaVnaznG6mFP+H29VDQq9WhjwdUaSJncjS1rB9vp8HqWdth2jH2IUQ7XKwJZ6/Rb3THAAgUYJH1T7hzrU0Q9kW7vowCu98EQBr8CE7YX6VYiI8nomWPtUqZy7frS33Sl6xFkMj5ccwzdu1NrL7al4ScV1JdZUZhoTp8sK6/qMu0/tWeNbsinQN+3LjXGoDOWJ1ZRXHEggHWOEyHLr614oWcHZ7rYrHs8RQdrhflq4d2jIy0h19lWhmbSjo72kqHeBphnny4l29KaJ2Sqri+a9gKV3deaptVDUWB9Pr1ZqHT4EGPnye0aQXiotaq7KMG/ERxe4dYHJUvZGp2NM16tkOaMUeGDz5FNLk5r14PB4PpD67OvkiBgtojaSOVBeQWRja2eezxvsnBIqBII8++DUhvlMXupLz4cM+qZzi5CuqkGNwgoZZ4naIcmv+MBzdawGMPPwyPMLX0xvId3NjfeE6FU5+WrIO1Ctw6hPjrV6C4yfUAosKGowAYEICCjpb2xKAAPI8SyoYOswyJcAERE0hPeBmEWsqeD/trWhmuwFROt3Y6ScPN1VGZHNfB4Xge6aFpOFFjSjTdjTEEP/7zNamNbMtXUpQSLjR4Ik3ijqHpgNf0IaFlqkdxY8CTMuUF36wGDZKGkD/pE9jbZaOko7eENqurrwNhcN3y3ufwYE3rgMjw/qvqKhh33TGdt+URseI4Qw3MwC4eJETcCnn32hMCWis9sKl5eIvr+/FaUdfmw9r7OngVjTN/uXN6aDOChEV0DYv0+3CCB1NXn+I3o2730sPyUk37yLDTGk3Y7Gry+tt2OQxpLQdlz9cWGI8u67cgtdZw5eNEDt+IL+syvxsusoLWwauDQOD4DFFb19V1VP4w+97BL+zdpjM29ellAnytA2MWztVu9rwZ0dr2lvmqMCEaa4tn+t7tq+th1Desi1p+AKU9v2He+KuB8JYDV8S9rJvmNTQAHlNrL5j7vgLwMSH+4/Qj0pRiDDHtq8KpU9FOoOF91c/qfgEnRmbUP1O5kJ3DwmPW7otwJFnyHHNnBABsetFLvJY1stwIVcnjgpq/fAizH+yLpDs3odwJfJM1Do7QdwNWvVEF77TJxYBfwZr+9lmipFBzdC3DLLaUXwexmp6zvAcExlwLmz3ui/kWQd/wgvdZeACSvwfuUsi1p553AF16Ip+mHRmkXwPPDRWDLTTmgl6CMh6avJx7eCk6FxJ2AbWwKuDswLPUgr9n7KIDoKohx8j8ibP/6wargFYUfgMpmCtNo+JLBKc8AYmR1pOuQX7niegRYbHyTJImbun8FkujL7eseVvY16CTdL4Na7egvwOAkxp63PxTGeGHnf9A5OnN9oFqPvwjYxLqSn5uaNlR5jjf/a9NPxZv0vS6ii1gPjcZLQN/22nQrdTfAy0P7uAHxBm/wBm/wBm/wBm/wBm/wBm/wBm/wBm/wBm/wBm/wBm/wBm/wBn8TELLzvErdC4w4r7z8aDvkvVd3POEipivvDw3xaHr0x9Guh/OE//7L/PTu9tUVt+8OtWWkUvd05/Kad78mbhA1fmA61wLh2fJ058LA/wuYFKrxwxSnfA011xYCaLwr0d7h5BrV2F+tKDea5vtJUS316Etmkr7D22eA8b7AqTrnt4PTn7/f2J/XjrFlvQfNkQaT7/a8146xY71XzKbh9+vG/hTjLXjnLz3F+Pn7XyzdX7Wwff4EwDgLfU/0yh7weBt7xy9/xJiY9uLYJE9bW24GQDq6U/5qyFCOsWOu4+pp82tP4/l4PRxBny/YKfo9W9i3vRglQUztpe52/EQpOXnRE+dFP6v3OGkmLDDmedtox6noh2CHDVNdhNfBsK2qbqTsONwpuQG4RmODFaKuuwHiz1hDp3fCKlwUxFggjXmM/R+ctWImUkXXbdwd88fR3k4xrCd/u1XlOVF4v9/XS19DWDcyi/EJ8I3FghFj3/T3tXDiBt6yhy0E168/HsdrrcBwUDb8Bb8d560pNqK8wpgDBa4fHh5OT9u3ljW+OQWomU4e8/+cwq+bK4xpNq8dD4fZ1UX9ads7Xr/IVKSSxXVs+rCb5uzTm7OrLBsOe60BEMbp/+uovRgOE5UNf4LveuxNRipWfH2WwBMyeDKpFBhT7Fp4akCPvcKZWM3WVaJU9tNNt8AMEb5tdeC3yfDqvjYqMbiPNHas6ygNgjS6B5ZszlzXTc8MCS7BK3Nn9QJjGtLUlSGl0nU7J2vPuv0pcoXtMUGjYX31BYsocnEosLSFu4xJ9WQ2i9xA4Lw+6gfR8XjtCfNhFAjsnBqoXnEh5r3ysa1ggNWq6XKM/ZMr1f5l5OoZSTKIbnJR4VZ8r8ChkjSUNFDHJXJdYGxh70NsNx3gPQXTa1kcm0rLFt4HcFcY255kHqxLeB6T0XzVyWG+1KMv8OIAlcsjbHkAqzgLfM/zKYWNYLLHsWUwtq/1bYl/MCHVeKV02pGeCiV0X8bkBESTaBpTYYf6PoKfjYETuDVOYGtpiG2PBUuPuW78j90r8K1M+L4I3VpJ8aDGGHyuChlnwoMt62kZ0BjLY6NLWzgBZw1jH9w0gQjglN/kVreMd6zp0sa5Lz5OgoCti+rYIoBYx7pdLpBN2hI7wFonLnZrtj3KUtg6iRfYtBqrWjfKxpvM8ARsB0qTsXb2QY59JswsNJrhNFrn9wzbCtmMpQwHg7uXZjbAQ4Qj0/xAYDf46HYziXMa31hOf0Kx88PwXCvDrRhTXyZRonQ33zDIRzn3hyFIWxgNP3sRYCjtYWzh7J9jTUtXoXzPcHwdYGxLX6goi2DnQtuLTozibqjQ8+1UdT5n4PqCGNzlXA07xLyZ5ur/6i5Od0HoURksexMVSJAOHBJXtbgnqAxtdfzp8kwp1S+p8Sy4Ou7BU3SDTx0rb8VYyEV9HP8+7UgQRqY+6h4lLWqHNu2gpW4Mqc389N/aeh3juMlh7X2//77eHmEjbKCxF9yf9+PxEfYTlBIpD4r+Cu9fs0UXdnyggN/YrImKEzGm4aSuYYAq8WPkCT9MasBa4zucNxEc49L0wHE2PMef+WhuldRqa4zTU+s4YELQZJSb4u00jm7Bylatvp5jKy7RCvUT7JUYNXH4qdXM4AXQe1xjDJRUIzOBAQmkaRx8wpEZ1ocAm5x39GCYRuRTUBCxlv5aBpyJQazBWK48EJSfBTAXC45QEHAEJLAJ6AKHNBMG0vDZjB5yNIOVYUzT03aKHe6znPe/gTH6XJphBq4AZeVhx446UI7RYkQTokmx8ThgLEBpRUbxagdJyzGOH+Pc6WL3TZbovuUtUOgsGOQrAA4V4sxwNXC4bTDWxdvnkY/KqWL8mgFICHNxeuc5uKPSU3WNACdOSbJG09gTIDhemhTO4w4YazhPgDFsPRoSG4uJdGBx7SzV3I60k/eI4jG8g6q1u5dIY6oxBgrpWbuqizvxk6QejbrcwM8BcK5u940Yi3Uvc6pQsi7zr2ooIXBMFjzsKsVOaMmijp5ItVISYWoag2Ax0OirZe2KsZWBDkZ0HOszyHTI2FVHgwfWWs9+3YKxHoQ7MRjDevWgYWl38gd0QtDMSZ9swPjfeJPM9jrmuybAAZ7mf3Lkeh5YMZkMb8bG1S2lcQh75uPkdedlGBMP7+DqOcAd3dQoxK7cAm01k3hbayuNkZXPhMGYO2NwrTAdox8AJJA2Zbqx/VcY/wesmheK0JPwTomcEYJaABeN99IQW82KMEjacVkqTtMYfRfAOcqbUpJHjK3tNJ5gmwf1ER5+pTv8+KaTpp+Cb0JRorZjzB8xBgmxEUuqe21QwAc2U4GH9TXGp4AxDrcyXUh8HGpIP2kXn1+qAHgVm8YGnXHJRTFNY/EZxI6FHjpQ2pt3mmAbpd8zrYk3YqzvRGTgGrAI8Z+EOHshiNQM/ovA+kbRrw0c51OOMTIQYky1HPeVz2AJ8NkIQT/hv8DV5L2Svhf2HKuIwR5SWIIXRI+gZp/y0UG3F+Bnok9Lg58q22Knh2aCDcAEOio68kFNL8Bs6B7rm2kMvk83wUFm2gJi2xaRXp+vA17I2xVjJ74Cygr39skTiOFqcPJ61iqYGrjA/PIiXn8j8rC5WTJ+6ATYQcWbzcu5Gg3ficJ5Pf4Q23rC948j4Bo/i7XV3IgxGDznKNBhDZrTh9T2PIG+hGMGPTl6iTtjjH2PQP5dXGZVPwFdTPz29wp9TvgSnpub2whYOuwUQ79MRI0UrlR0gMyvgfXE41TSjVx9gy3CJfbFBicXHQWeSV/rnlI5BvKPdSMQdJY5+RihhxuBXaxgRIipBf2knWlsPWBT9nA4JhYuXI8C0x3t0QSCk91dzSyMM3T1sK9d3n8TYn+uL4c5GvMqmSZg2srSJoWX6VjvUN3YSZ4O+ROirk7a0VNANMZqDWPjUIwmwDzSx8HT8E1XEER6InnIx5CN5w09Y293jMeJBE0rsrkJ53m39rueB8UTiiNXL7ScQqwPFEArxNyLfERJ/HGOprdiHTW5CclxQG/o9TY7XY/xMe/4OFxq2UCuJoOZJ8BoJWf3dwtw1v11GpXa19kAAAPfSURBVEs2uW9f9qIQTBCTf+obw9YgAyJ7NFWT+9b9YpjMcJzxVuv0FGMCj2YY6qXJWav1Ry9TM2x0o9uegbsgguy+fX/13yl811hJig5ucvVHq3V8lUQLzdwxBCeth/nJ9GEicXpQ61sYg34G+ZBMd9V14gz8FyZD4bIU/Ue6hjHEpW4QgP3xwSRhTFdBJlyA7YeQGXxm7MwtkNlfIsfgpmfYMNdjNAgwXKTBXCsjqxEJ+EafBmkgwZuuONaRQpmXOAkr9cEkD3Vn2ZGCdUGQFrh6LqSabrbIa5k9UPvAVR6EFfjW32Z6kBE4Usjs6xj7gBfVxtCjQdbQIxRxiycuts6ztRcBm3Rm3JddrRPQc7SUEBMB0lQCGgy0C9GO2QVKOKwMthPnesPutmcCZ52FoZmMprTt/U2F2BAOxw6BsNGzskgiYoLmuUw+CSBg9Jddgs7BXAWwAdIDpY0Jm8hgfIkZHPgWMPRUyFlvZOkICbiyGreVi6EkNtmnItVOsY6PsWfiGsYpbIFbYCxXfjVgMl4k2CtVgNpntp3+abKWJF4glZkestLhOkE1z1zYeJQ2UGJihqdCTivyMAfjC0BcRou45PCwlmRZBupKE6S5TDL472ejbLutLIrc1E2TJJl8mmuVRG4fzpJEKTcB/knO6nx13I4b2mzhSy6+NLybm3GZiyRTw//+soYxfMNw2TbRHLyaJbjF+SS+6Z3COX76CZfgwehhZw4fdKIML2UnnQduxjn2PwzNG8FX6eFgactpwLdHIG6Bm8wWv1nfONbHXtP8cVMwS4oNL99PB4P59JfxkwGR/HwEvx4MGn3HWQ+70euJR/XaUW3QGCNDVqzHEYorWJ8xUPxYGB60Zv3bAT7h9tz0Q9dfCH+OPw6uBw3EzIyfxBxpfQBvnL6Pzc1eRGE8hQ8fwcq24Zp/lYPJ6dUoZmI8CZKvFQxeMSWUrBor49SPSmV9H4mjGdy4gxWsJqiCN1GBH9eT5cC9OGTTyeeN6q0q0vFOPk8TM9LoTxQhLn6GFHOh8l9UTSp/Vd1AnB3bauAEQe2pVHHBCPhB49A4+eOIVYyIx9XqX3GdaHBWZxXmWaSyGonpYMNu5BzjTaxAj4xxTAc9fRqAmZ3VjsATiP6NVlk5CjqhYZkWEvlCcImc6JQgqRhnjJjn6vdUt9Yw6CmRT1o0ED3LxZBVn3Hwx5fWL4frBhF8/UmIp2WooQVc37LXO7l6k6NDlcp6Qwhz2GOeQPQkYeKYrgT5sFn9TL1/Tp4qJo/MpvfejPtz9JJ2uvJNVn88+WHrR8gO7yz58r98C/07PusN/nHw/7Saklqo7GneAAAAAElFTkSuQmCC;" vertex="1" parent="1">
          <mxGeometry x="750" y="1000.0000000000001" width="131" height="113.61" as="geometry" />
        </mxCell>
        <mxCell id="AEIaR-JQplcSrDzmcX76-95" style="edgeStyle=orthogonalEdgeStyle;rounded=0;orthogonalLoop=1;jettySize=auto;html=1;" edge="1" parent="1" source="AEIaR-JQplcSrDzmcX76-94" target="AEIaR-JQplcSrDzmcX76-90">
          <mxGeometry relative="1" as="geometry" />
        </mxCell>
        <mxCell id="AEIaR-JQplcSrDzmcX76-94" value="" style="shape=image;verticalLabelPosition=bottom;labelBackgroundColor=default;verticalAlign=top;aspect=fixed;imageAspect=0;image=data:image/png,iVBORw0KGgoAAAANSUhEUgAAASwAAACoCAMAAABt9SM9AAAAb1BMVEX///8AkuYAjeUAieQAi+UAjuUAkOb6/f/v9v0Ah+Sgy/Ial+fI4Pfq9PwAk+b2+/7c7PqAvO+PwvCbyPJus+2t0fS31vUAg+PR5vnE3vddrOu62faQw/Dh7vtMpeqw0/Rkr+w4nuh2t+5Coukwm+hs64P0AAAJyklEQVR4nO2bbYOyKhCGE5DUzHLNVq00rf//G4/yoqiQtdn27GmuT2uLBDfDMAy0WAAAAAAAAAAAAAAAAAAAAAAAAAAAAAAAAAAAAAAAAAAAAAAAAAAAAPxBNi3vbsm/T/GNBd/Fu9vyz+MhS4C8d7flnwfEegAQ6wFArAcAsR4AxHoAEOsBQKwH8Dux/He3BfiD9HaAS/UB9oZD4m4HeFik3YOn7g33727lP0LUeaZ4sW8f7C9w8GOeEiv51aa+n2fE8r9z53db+2aeEYtalHxUVPGEWOxV95MSg0+Ixf/vftBS+XOxYvF/d/vbbX4bfbFI+zAtVknl/3+7zW8jtQOBnSyS7mG/8LsHnRd3sCIscJtuylr4sf1QWq7CWZqwzoLdy7diTssPHxpCuxULRY98e+JSC2UzdGND6opWM1R0i24H6EYLT90BKnvDSN01FupGMea1ZK3LsqyHWlw1L7ozWARbYfCLdxGHbs0L710Nx96+VMTCjwTyu+ZFsn6+H6xNr46KD6okPxer06p+1Y+j45e3v2eYP1GsXLEsC9XYNkIE55Mx6ieKValidVBiTTT/E8XqPhkykSv8RLFObVA6BN8W4hPFWlwNWtGJGOpviaXsAIehg3FvqBGraAv3cU+3v/5vibUNVgKrjkMt+RDUe8P2wTos/O7BV//Ttk5vWuQ48fV/S6x5cLyVTqvpjcyfEWs5C852/1Vi7WpItFqt0yIuUqGPXqxtut/7tybwOvWOX1GhJM8MYiVRel/dG79txNo/7A+9IsvMxbNACLL1UZarydYkFcWkiVqxXSVasTbehZWo690NO8pxjisswl5USb20Ym0yjLA6YkUu6z736y5c4rLsxza0RBF8bseitLUdnA1KruPtzrbEna4Ul8lYrBAj2tURHMZahaoZU5w5RrEK0lSF2zoiotZtKQcGG7cZ3NpPl7jThboigbI1BkZPq1RT73QyjVWEbt8EqRsOxPLRYD6TyyAjkdiDUaZ4rxfLyfkKjcQisw2GdZftlt9vitresIHfp+6/r4Be8qyK/OVYqkU5dmx8ArdiRe64PrvnX+JxCQtHOrFiIjouLOugqbtN6XA5Ru6EpK8V66pRiXOVTaG1S+g1S4p1lOZuI6UIUdx4jJU6kLQx1xmJtS5lB/GOfVBIrWhdeauKm6hiSWz57a7zUrFQbNIq512r/VDoFV4YkE4vIdZeKFGXKNLUOxNhiaidLYnoMUK7OPWL0OIlSDIUK5K+0aZ+/02cHz3v6yJdEx5NNIqvYVx4VUCQKzqTvEgsYtLK419ILtLyk25WcrHWXCu0ar1dxD+hpXheCr27EdlTmWlVxTpdZdW46r9JIuEfnFCMTDAQC2dy2m/30jucXiOWbTp82PC2YfUcLZJziovFc2KkUkqsA/6ZEKdiXUYXxSEuc4xYblsR6yjNCgVyZPibtrpanHjd/DSqFQtrll/l7GpWXFMszk80cD9fU8h517yVsAfUV3sTsAKUt5lNJXsQ6SYH9p2tWNuVNCu3rWvN38x7Ly5XTC12GiXFMiTxXyKWOcfAGjM6UwxRJ9a5aTq9DErwuUmYyF9M8ED/BVKsUDpytOoWhlD7psMbFXViEZ1d1QSvEAubDu95ImjcT6sVa8lUGWe/jnY7CKzJpu0fE8s+SrOirrqF52Y9shqePVm1YhnHOtdvUZ7CbFgs7axZKfkViUastGkuPY9KCBEX0shMoQnvuAwm6FWNzras7qHRLsRYNadRXCxiGuvwBdsdo2EtWE5Cc1bN/X4jFrMgpJkG7Eiy6QazTtt0hNtPbPdtmA9JHo4o2bf7UizDDK+dqzFr/mM0diFhmuhOX69SLL7v0Rw5MhUaFaObSZi+WP2mcGdn2SPYx43BM7FoZaibm+a8mE9XmQFpJ+lZ7g2ZW8CaEsygmg6xLhNT4qYVi7sXoq6qu5sup8n28r2h+eLB7GIhc1aUBSpaw9v1xNKFtCkSHQrvEovk/A81opsQKxJi3biHnc3t4Y0zXlpWrvkPNyhHNEd3AyeWlsW8GjEdc3OxaD1fI24Gbuf/DKeaAtefFiue2Wm5t07reUSj+Qdf1GWHdFKEbCFNhZc1doiJRc9NcF8J22or4+cwlGhx2zjrhljrecNSdPOWVWmQgm9Rr7Kzut0S3/CcbgQAnVhi7c+4524zP2wm091pq4MZ85RYC+0Rw0+h5tRMA/M3dDf6nHkTJlFiML4DzzQ1fzL7MIUnXCwxHPJSj5jVLA8q9kx6JsWK5pyHEwfPPI4ZdZTna3mKjQeVI9NiYTtf1CvthkjQE2vJN8ntCF7YVL5xy25SrDnnIdYfLXTwYsM1QN0mi632oKJM2alwaQ2Lbk+shcMNQW6dD9qxWib9tPLNXyXNt+OZPEuVi1WpfrbkuVPRRpEHwb2o88xfu6oNxr0v86ibb0ZiycsXSMx8Piqop9bBJd/S2KbFmi1bioyhb4cwoqBz8r6IH+VlcJGCwN1MlEk8ua6deEaBdD8S2mR1H+xyLJZMjRKe6EjH6TSWwxYnEneI1bvc+IxW91yglXldnB/YFd79RXgBtzUlkQixUejXRdb7TCTxurEQ6VaKd2ldwvFD3KbKh2LJJDXmu/cdlx0FHnOuTsyPelBxt1j+LF7rzsvGIlas40ZMKGlPB0mX42rvLdmkObyVJdSF9ozaSpoiooS71IjVBqfcC0rDQBitrrY8esTqgcXELynn8FrkfJdW9TTTzfpeFjnRDR5dqcdqmaYSVsdYLBmciiOaqybNguSmQhVrc9Cv7DMkl/H9V/41p4Juf2XYotHo9TLuNV+jSngLNGKJpVSm0cY64zbwU8TaHONQvxmJn/XxrvHoS0Ni9UM7RIcJl02Oe3JRPFpnk5VyiNacrPGe8Xvwg+CAbxzkMX3RP+5GtNs9Mpvmqu7XVWowgOypHKBNH/wRmGe3PaVEGyX6JZZHoBS5O92MOFwwsptbAjbCpTwCWTa/sCiHRQO7bmP3GFnCE1JEgp6HKlFdG7PhJD0VJud1fcJt4R/8jiStVrVnxnhVmeLY7deluZuDaRabfnnhFGF2uWRhoWi5zq7V6NLA5rw697JsSXQug6A8R8NRDks5MAfP6Og3wU/VsnVJ4Ltw1lM/wtis17rbEm9ns/rRTKTueBw/Ad1yPCUVzma42vgnifFjU9HG54lLyP9nnJ1791ykCIWfalWCdUjGAaFOKZz91K3/rzicyU3B6tjE3h0+0qtrSaLMxs3tY1WzJvirw56yKj7YURlwkvhY5WWA+Nbfuua7rzgFnQAAAAAAAAAAAAAAAAAAAAAAAAAAAAAAAAAAAAAAAAAAAAAAAAAAAIC/wH/cuowGQA/7DgAAAABJRU5ErkJggg==;" vertex="1" parent="1">
          <mxGeometry x="720" y="1111.69" width="200" height="112" as="geometry" />
        </mxCell>
        <mxCell id="AEIaR-JQplcSrDzmcX76-96" value="Monitoring&amp;nbsp;" style="whiteSpace=wrap;html=1;verticalAlign=top;fillColor=#CCCCCC;strokeColor=#6881B3;fontColor=#0066CC;gradientColor=none;gradientDirection=north;strokeWidth=2;" vertex="1" parent="1">
          <mxGeometry x="950" y="900" width="120" height="60" as="geometry" />
        </mxCell>
        <mxCell id="AEIaR-JQplcSrDzmcX76-98" value="" style="shape=image;verticalLabelPosition=bottom;labelBackgroundColor=default;verticalAlign=top;aspect=fixed;imageAspect=0;image=data:image/png,iVBORw0KGgoAAAANSUhEUgAAAVMAAACUCAMAAAAZDzr+AAABsFBMVEX////nUiwAAAD//v////38///nUyroUSxPT0/vWij8/PzyopRVVVVSUlL///xMTEznSR3W1tb6187h4eHnSyP09PTwg2jiShv5vA/x8fFZWVn++ff6uRHLy8tra2vrSxu/v798fHwjIyOnp6fFxcVGRkb8sRNoaGhzc3OVlZW1tbU1NTUfHx/d3d2BgYHybCP1kRsXFxfwknr2hRvzjh2srKyQkJArKyv0Yyb1ghwRERHzdSD1mRY9PT3+7uzxpY73var6y73/8ub3nRf4pxf81s75xQD/8ev6x7n3s6bzjnzsgWLoZ0DlWyzqdk3xlonlVQb53snvXD/xkXHvfGT5TRfmXTvyiF3tnoTiZ0f1up7xel381dH4zrj/6fD6ZULsPhT3nnv3Vx7kkIbzcT3xq6Luc13nMwD3oIvubzT2xKT31sHwnmz3s5TzYATrejbyk1fwcATzpHHzgS/8wcH2u5PzjUX5p2T806/0fQD5xZL1t3j3mjbqokX526z2wWXzrUP+7Mr90I35rT/02Z724rj6owD+0oH2uzr6xYn6zWz32pH87K/63Gz4zED64oUO9/LBAAAXhUlEQVR4nO2diV/bxrbHx8iSjLDlTca1FSM7tuOFpYHUQFgMiFCHgElYSkoCeQmvTXPDTVKatmle04U2223Te//ld85IsiXbLE1qi/Tq9/k0yKORPf7qzJlzZkYuIY4cOXLkyJEjR44cOXLkyJEjR44cOXLkyJGjtoghrFsTy9rdlr+RGEaWBQbg1qC63Xa254RioJEsw4h2t0MXWCWDAMVK6PJiz5Urvb3rV0Z6ZvfKMp5Ew7W7hSeRyMpllhVPTVvBJuWFnqXlqAIKBCQpEICD6srVr8uiKL4fTFl1/doM2MYpaSwrrs4sA8ooz/MuzhAvKYq0tn45Qk5LOw8X9PnV5d1uZV1loWPZ3RgwQvnyRjUg8S4X53IBVT7K8YDURflKkrS1WLG5kcdLFNVlhevu/qRXFu3v/iyZ24hGJbRQjelaYGNFQaaaeF6KbvaU7W7mMWLE69e6Qbu7PXb3Kvj01aVAgK9KlB8yde1+qm5FzUyhXNkKiXa39WgtKt2axit2B4HyDSlKfafLUOCmuC3x2PPrZbxLur1eJvZ3qpbCVlWWP9GZXrtjZcp0ujnlXiUKvtPEj+e2yTb6VjNTLFfWdjrdupNJFGGwX9ztNux0bXbhFkTXwLocCoXYzuYuDLuwGdV7t6FqYJ0lZanW801SlAcM0/G7frzcohh6sNJd0/iu8j+9s7Kw3fvZ+O7uQoc91hwX5XgrU06ZhVD1ZoCr+dK6pfJfXJXt9lUoGNjrxscQca4XhqZuq659trKr4JC1TjqYWTFkVoq6+AZyPB+Cc4u36Qtpc9lksBiv9sq2B38ELbM8N7vY03Njp8yIISDafah2/6F2smWzUXSbLms359cgFmXLmzRalWaXotb+H+hV7U+o5cu91V3QJ7vXqtfvVKOHE0WFOtiyWUVyWZhSwhIyJeJIAF4ERsqb0TUz0iqUyR1sY2stXjuaolUdi6zdZCEqWYyUW7m8CSXSMjJlF25L1Sq/XXY1jlWcMkPsHqgWD+3ru7pMRdXOZSuVakPH51zlORiwAssyTp7KWwFO2mAqm41M19aUWZxi7VhDW+gQprvda1vrM6BP15er9VErRMRODKwMkZcUroGpFCL/G3AFNnAWyk1mFP72LJGXG/wpQOWkbWLvTNWNFkx3P/nszuVbMrbLTRj51uVPVxSliic2y2wnhgCWfB7gKU4TUy7EbkuuwFWNV6gqSWVRXA/wjVBd0bs2T1Pc31UakSpLOyprzEqyhIFgS935jNbbXS53orXu7U2pamXKS9WKKG9FAze0GWgw5LuMm8wGpCamrsDnoq0R1WqTjS4vQOCPos2Cb4DHrHx/GUez3d5O+H9xKeAy7NSYLJGWoEVXA1yIaGsl925fBR9R2WzBlOdVW0N/ebmBaW8ZJ9UZKq2KdshWPv2ku5v/pBNJ9RzO7DUwDSyCI5r9YgNxwX0ms7cXWchR7gWambqUdVvHKPe6qe/jPLQMwxBLMZqSe5Z1M9p4tvtZmWlvg1m3fNcaRlF3ym8D09AXn+M6GUJdCGxj5RDXIvWXotvgvNrayqMk7pj9KeZ2rR0mBjBkZnx8fHfRLba1/7PkctNgjl2fgXsZgjEdmcLdDrkQsrulofKBq4ydTMsr3d3jhlYqpjDEEo9QpmCp4+NtT1CZjSYfybmkWZxoDI2wlClADW1WaBh6a6uFR+VcIda+wN9N7j+sMX24R0zrunhkeFWRblNgmJ5r49dm29sidpVvio+4aFWFhjCRGPJk0WTLdyvaIvRiC6au6Kc2jlJuRr5uIL32T+hLdeNkK3MPPh258+DGXpnRDFVg5fVr4zfbbAEzzb2Zi14R0eVQUMiUZSvrIt2RQtS15hDVJW3ZOPTDQLT38ENN/wi5jfEHikN3Hj3UdO3R9TmGaPtpyv/4cHy1jf2KYeUtztVECbo+jPX1rSduVp4Rad9nxDvRZqh8YK5tTTxOMKCzDwymd4horI6w8p2HRjHo4YfXQ9QtMOTB/of328mUhKKNyyI4w6eShlCEhBjdT821YOoKjNjmT4GpeH1SJ7cDt5+2xM2Wr5uIosYf3pBpYFh+tH+HtK9fQVqqNDOV7jJNa2ECow+nzZNT6FCXbZzyd6sfTo5TbI+MmUcWkSLohw/3NWudnJz8cPJLlcX+N/vwyzbmp2yLUR8I0Qk8lrXO4mn7+4iwFag2XsB1V+0b+UXyHUU2Obn/oNYG8auHWPDowf2dnQdfTu5PahW+pNDLjx6rQtvaw4aWWy3f7YnY8Q9huqE0XcJzytc2bqb8ZlJHVss6xfuU4g2V4EKpu/LVvoZ9/3s60/fNpNpGC9irtvCO0dYLDFrQTFpNTrmUGduYMsxXOtPJWixfeXRxcvLigbYDzU1Yce+xZqr796GZ4ur+ahsbdLmFmfK8yhxBaL1Vzh9Y78hUb7NgIF99DPxA+99WjLIdJLjqZvWXkLqo31Ko+4/Rpar7e21s0uetck3uyLvY0k6lu2Wb7FT+5uLkRcr04hNZy0ZF9p9A7ys3K9A9dSiGXX168TGCv4FZwV471yZb5u/RVfaIRaYlpUWAKm2W7Rmj1C+fGkz3nzB6hi8/hgIwSPALegQImcB3T7HShccQoTDtHFCZkZYdee4IpsLd5nEf3MWmHVv9GKI+o6Q0fWVsNVfBIp8wLI3w9aDJTcRvL2Clp98B+KNs5p0b1ZJpdOaIflxuOS8tVct2TKKq3wLSC7qePjHyUvXZhaffNC6Tsf9H8T990uY2HcL05hGr9q2mBm1iKorfP71Q18UfZM362Apl2vDggXhA6V981uaZvgamHN3F6+L4ucO2arHiuqR1duvmKTuYsmTvwkdA6SNNFy78oFKOLCs/u3Dh+0ampPIt1IXabWYqjihmMq4qPhDBr0lXxMNCoxAEtLwkKQq/ad6rxtngTym6j0w6f4Dz5njqydOPnqmN+w6AKa3WUabcSGhxZIUDrsoc22p5wc2IS4okSWtbV2ZCO1WbmZIX5z+y6Ol3dPUMSP749Pz574j16Sim8oyCP9/uWf57ZqbSMgR48urOvd7q1ra7xdDIkMUo4NwrV+DcjMXEN2+1uaUt9NNTRGQIjn8QdabyD+fPg6FavgGrTtF6U+1magUTuIyfDTlUZXu1JVN5LkRzFTinbpoGqyrcjs7Hp6vPzls1dUD0EHX1/Hl0rwwDwag+x8auGkzbnJ0sWsYo6SZ4eVFb1WvFlGVFVlveAYs1p1OctGRHblqDirSmpqbOfw/RFF12Yn+Esl+fQ7okHvyoRzHfT2EVqNTmpi5w5uG7Gn1AJ3nd7tafCpwFasgsqy5bwtRATxtneQ9X5ckUAp3SNT+1pz1zLLLsj1g8//PPP0+B9aLkXzWmU+dfie18ZpZdXbYkmtxahZj2bxxyEUi8Z81Qb892/okOmhz9cmnKpPlnFYYyBVNV//XrPFCe/2FVxGiA/W5+HipQrbb1OWT5rnliincpvTJhjrU4N66gmC/EbYA2zUmrPwEkYIdWCkffi/o8rygQ9WB19WBVxB4kipVf5+d1pPM/tXPXnEjuWWeZeJzjP/Yqd2VN4s07UritMmnfzPkRQielPv/pVx3W/KWX/4fpPC6RGKYoYuLPuH+Zr+vSgbt981Ii2bltZSpFvxbl41TekngzUy5whbEFKRVDRPWXl5fmL1G9fIVLpyyd39ew4rY+8vzlpZrmX75o6yM95c3GRVO+91htaTusalQ5GoTZJLpRRn1dZ/ZThRGtTN3kRZ3opZcvLx20t0lXG2dRuKghSYo2iZbR22Bmumz3Q73MgQaLMvv1R4gHNZdJt/MQ+ZXB89y5Sy8v/dLuqH+uccmOx59AOFrRhkukEbsf6WGY58hLB/fy5+cHbG1cUF+8fmmcuvTbv35s+54ZVm7YVSYt9xyrjQam3E4nH49rJTcjvjpn1uvfnh+oqqwevHj1ulZ46dwLIrJt3yrvJouKJSwKnGCD1qJlDpWTNkT7Hzxn5NfnGvX69Zlz586YCl4R3JHe9qiPvWXNiKSNYx8jc1v3rXGSfbulTDo4c+4MSqMHf89o/2oF9N+fZIgDO8C00epOwLRhL2DgpmxXwG8S8+acwa+VEPbrzj1sqt6MvgVTfdTnIZAKnYrfR3qumenh+q1ze7rc7GXJNJMiLR0fvS/WmWK8z4qngenvZz448wEVHOhHNQHS/3RwGHWzzFWlPmcvbS2EQgvwX2stwKntqxJX290nudRTw7QOsBEqvDzo7POG5RXTMAXpKcag0hHiq7WfTOECs9rutM619hCZmH7QrDMfH3Q2NmEXpFo4ZSTyktJCAYnjqlUwUt5gKs2I7qYVSlv05swHHyO9jz/++M2bPz42Cwo/+Hd7n99pkshCkGrN+/mtO+sjTboZsP7aDKdsUC91GqAe6AD//R981hSi/Tdvfv+9zvZ3Yv4dx/YLsuN71vkpV3TELePktABi9AOW/brhV5Gid1Wip9Wda21rseIfaKZ/vFEZgq3VStV/G0wxjurofk6AOnLbaqfLZaZJ5KpiqSRtljEydXe2sYeIVQ8OVJFoj5e4tcdkWPZAs9QPfsdNyp29825RGPnCwkvZY5tU3rKkB9HlECvQrXOngSnedDd9wNwsIv4HTfUP/HGfjjNl5XXLElO0F0NkM1HGmnHxAej4gkifRz0NTA8Tq7549ZtKGPqsdKc/XOyxuFSlh+CmA6aONFQ1/VKSpPTeOg1+9FhRljBqsawNvzHGkrlNUyLfLfXUlp6xRWShytWZStKMfCrGpmPF0Lko/Aad70y4LlYZiUJAr4VJHKcslQnt2Hh/1c+5gEvb+lfl+OjWHD31nvy6NIp2tk5/KPXos5tKbRa/GuVH5soQUsnlvQf4g506Uz7QfbVsPIbyPpgqlV1MIddQZ6qKZNijFJDWbvb2Lq1wisTpTPmotBES3cz7xtRWhe5t3pborl38RTlOy/Dx5z1wsAfK63MyOS2R/vsh3ApXnr2pKJKeMPF1SQFlcyYkE1Z0TPTPCTN4IbTYuxxFC41GOYozqiiumz0LKo1JOtnthVgYFOnAJ7VfshpavNd7d2tra3lrZeXm+oPL2v/0gEKlu/g6wTQ46h/oAk0PJdr+WW2XSKNkIujbeRj8nTuGZn4s0R87aj/TwVxXXdk/STWSKKRSqXz+72Hif5XSXVYNnXxTlkBKZ7WLvG1s4HsnoU+Dcjabi/frpjp44qsLxo34G/iMv055iiSXicGxkEjRV5mTXpwwkHrt23B4+kQ7/tm6lYXBt6ZPfLUHLh5IhgeDsXa07T1VEJH6LUQKQye+OjYBV5/cUfyXCEf8/rc2MrwjfX9lc/4OCh41vAiQBAj03/Cghj2SKKbTyTA9NShol+cxWRjUI6lYppguJWNYYTCMLpbWiyWKSbzKrHCxlC4GoQpc/vdyHKMAJXXYyfDwwNlYYXoY1FWCsCkyqsUFw/lweGK4K6nfkoHhgYGuUbwgNjRGKwykwuGu4a4gvMXYRFcwTUsn8iaqCd8ErTldIhB25Nv+PTsp/1FR0CCOXtqwPhYRSGKsFsFOlOA4qTOlQqaZgdrLgdIEfeMwXF8vNcKJyFA9GE6lOsdUSKbT4eOrvZvC8H3HDo2CwvVvXgBiDZmBlSmMa6XGCjpTawl+tXhDxUN7iq5IgiqTeEcnIeSz2eS7vcXxQkuMG8ejBU3635jBNJsaGjJejPUVhvxWpv5SGhTU+Y7lC0PTTUzj6bQX//ZTt6tFxL7RQt/wyZgGfR5NueRbftFgBuNvIeX3tD03MY/bjWYW1DGm0Y4ZhtrWKE0MkmNmpjoQIUvtGStEkg1Mi7X3xyNq8NMJXAgMp07GNK7J58uePHQ2K9LnmQ7awLRoRToR1pjilxAELWHSvpBbJ5W0XJ+pwcP3HTAzLRD6pBymsR7460OkEcLUCk/A1Nc3CNFF2uf1v5U/FFLeLEYrKY+vI0yNvp/smhjWNIAghjWmZ3UXhqNKTn+IUCDJZqZ9lI3hm0smpsM6hhi+nVvzEcFaE7InYurpo15jyJctkVixGCSJUoyGdkXNx0JZggziCSxM6o0OZ4pFGvIVc15fOhmhdiokixn9fDBZpCEeFBUROVSnHTFYLDaGfidXDL7yWT20FGKGImiU0wJl6tMxTlNGxsI9fZk0MxX6LaQiY3Wm/UbsCmVntfuRqzeheEKmFEPR40+TYDY7ms6C3QX7/H6/J4fRRNCfHUp6sn5PKZbK+v25Qbi7QikOJd5RgRSm43GvPxsEpt7SEJynYV1sFMr8cehbsb4sznBGcvRPOOWDKvH0205eertaxVIF7WuH61YcQXszjbr5RqZ4d8ZMrci1YArHAwKdYCiYeP0ZpgUPONSgL57z+OPCYNzjief8Hn8Ca3jj2Vzc543nsn1erycFppDO+rJ9cV+2QNI5YJrLhUnKH/d5+nxx/xA6gqzX2+f1AcZI3uNFpnBlkMTyHvgAn/ctXbdGryk6FCY019jAdMzEdKiRKUZl06aorK8107MaU1Nzw8Mn86cR7Jtxnz9IBmGwSiUzQsrnKwhCyYe8kWlGCOcA3SBJeOMe8FxebzxBwtDrw0IkDxcKAtipD4bZjNcXD5Ni1tsXJkmfJy/E8j6dKbjbhMeXDwsZf9YXPKZZhyhsdW6aEPRAzMJUwL5scjG5VnY6YILuOdROGzp74kR26o2nhlIpMJ6CAHbqy8VoIf4R+rwwlgP1PIykBY8nTRigDbZbzPoK4AEKfl8SAlOvvz7uC0iYDHl9SUGAiMAbNpjm0U4TwB2MI5NMvm00jMFMv9Vz0CEem2NiSuIW64o1j1Ee07CvBb6HME1ow76hI7NjE1N/NgvOEQO7oBf4EbQwOoEGHEuUKbxn2gdMCTLNAMx4Lp/PQ2cv6hQpU/C+whC8iuS83rx2PgxmHNeYgm1Ghvz+VDHxDktBYeznntodgbYmMBAH12hlitYFnV8fpPLNTNG4+2udv+9wppF+s0MNnzCWymEakhzEFiJTeMuMzzOK7Un7gWMjUw9lGvdC/4/7LEwTNaYY8eL5ODL11piSWLrP35/NvfUYpYelZzMGDUFbnApiTGpmioN2bZ5VWzCxMBWo6ca1CoKWz7f2p9rVJa1s8OzJmHr66r7aYOoBO4XS0RZ26qFMvWm6vh6ONPZ9naknQU+Du0156kxxqmwwmfJMD719JjxKv3+8FI5EYsG0lleWAKmVqRZxjqXDsVhST9etTLUFg2msUPR1HcZ0AN6Whl1d+UwsFixoyekJmObqX1BnCn+gUBByXn+iFdOi31ubXMcxKmxlSlJef8k4DRdQP4tMi6OjYY3viVeQmmUs042NGTNI+mehXzCYCnqW3jUwoVdq6Pt6f++aqFdowXQYzU2feZmoTVi9FVPIjTyFcAxyq3zMwpTRmIa9cV8arLBY0jxsMSaYmCZIMhv3wn0dLAC6AvjmcKzoRaalbBaOE+AXkm/PlGTOdpnVbwSsZqZEG84M+QaamUbMuwS8A4f2fXDZE/WKZ6f/NNO4F8coMggI4nGPz6PFp8i0ZPKnAAcuy8X9YKFMAWJRiLLMTIUhP1h6Lj6dwlACHGvOB6EYxKcQCcThyD/0TjsWIoX61Oh0uua5cPD2mKoVjVoTo+gWihpTU05UMioMp8O6nU7UEzXqcbXjWA1/Npw/fvkl6MmamWazOfo2QfCSWW8eTQDyKCxLZ6cL2G+z09hvizkf5lk4rxNO+f3ZJM71ZeiUH9pNrIDBRDwPERUpwjv5iiUtj4L8CvKo0XfdBBLLjOY8Hk++kDDF7TEINQrmWpFi3t8/nUtDQA2ncBof/pjTjVgJmgsVYvTaMM785/Oj+lsKcFzbjhEsxPv7/UNJ4NCXL5GjFUsmTbENvNKH1EgwkwxGTGWDSRoaZPSVmlgimdRXdCMZfIsEPSEkkjSvJ+FMJkNXfWDswDNhjEm1t8n8JXPX+IjW8bUiEa0Nh1eIRYQjK9Q+T3sr7fgE7fvv1Vts7XKAOnLkyJEjR44cOXLkyJEjR44cOXLkyJEjR44cOXLkyJEjR44cvUf6f+pol2uiruJHAAAAAElFTkSuQmCC;" vertex="1" parent="1">
          <mxGeometry x="950.5" y="1050" width="339" height="148" as="geometry" />
        </mxCell>
        <mxCell id="AEIaR-JQplcSrDzmcX76-99" style="edgeStyle=orthogonalEdgeStyle;rounded=0;orthogonalLoop=1;jettySize=auto;html=1;entryX=0.476;entryY=-0.02;entryDx=0;entryDy=0;entryPerimeter=0;" edge="1" parent="1" source="AEIaR-JQplcSrDzmcX76-96" target="AEIaR-JQplcSrDzmcX76-98">
          <mxGeometry relative="1" as="geometry" />
        </mxCell>
        <mxCell id="AEIaR-JQplcSrDzmcX76-104" style="edgeStyle=orthogonalEdgeStyle;rounded=0;orthogonalLoop=1;jettySize=auto;html=1;" edge="1" parent="1" source="AEIaR-JQplcSrDzmcX76-100">
          <mxGeometry relative="1" as="geometry">
            <mxPoint x="1380" y="579.9999999999998" as="targetPoint" />
          </mxGeometry>
        </mxCell>
        <mxCell id="AEIaR-JQplcSrDzmcX76-105" style="edgeStyle=orthogonalEdgeStyle;rounded=0;orthogonalLoop=1;jettySize=auto;html=1;" edge="1" parent="1" source="AEIaR-JQplcSrDzmcX76-100">
          <mxGeometry relative="1" as="geometry">
            <mxPoint x="1594.000000000001" y="589.9999999999998" as="targetPoint" />
          </mxGeometry>
        </mxCell>
        <mxCell id="AEIaR-JQplcSrDzmcX76-106" style="edgeStyle=orthogonalEdgeStyle;rounded=0;orthogonalLoop=1;jettySize=auto;html=1;" edge="1" parent="1" source="AEIaR-JQplcSrDzmcX76-100" target="AEIaR-JQplcSrDzmcX76-103">
          <mxGeometry relative="1" as="geometry" />
        </mxCell>
        <mxCell id="AEIaR-JQplcSrDzmcX76-100" value="IT CLOUD&amp;nbsp;" style="whiteSpace=wrap;html=1;verticalAlign=top;fillColor=#CCCCCC;strokeColor=#6881B3;fontColor=#0066CC;gradientColor=none;gradientDirection=north;strokeWidth=2;" vertex="1" parent="1">
          <mxGeometry x="1534" y="395" width="120" height="60" as="geometry" />
        </mxCell>
        <mxCell id="AEIaR-JQplcSrDzmcX76-101" value="" style="shape=image;verticalLabelPosition=bottom;labelBackgroundColor=default;verticalAlign=top;aspect=fixed;imageAspect=0;image=data:image/png,iVBORw0KGgoAAAANSUhEUgAAASIAAACtCAMAAAAj8YI9AAAA8FBMVEX///8lLz7/mQD/mAD/mwAkLj3+/v8hLDz/nQAkL0DR0tUYJjf//vwgKzujp6wTITQQHzL/oQD4+Pns7e6bn6U3QE7q6+z/lACqrbLj5Ob/+Ozy8/RBSVUAGC3a3N5HT13BxMiJjpWBho1wdn+ztrrLzdCSlpxhZ3FOVmJTWmU5QlAsNkb/2qn/u1z/8+S5vMF5foZdZG7/58v/0pf/qC3/7dj/wGf/yH//4r5scXoADyj/3rf/pxr/tFT/tkn/tl//0ZP/sTj/yIP/rED/wHL/pCH/ozD/rSf/umv/ulP/rk3/v3j/4rr/t0T/wGL/x4kzLmCmAAAYB0lEQVR4nO1dCVviuhpG2qZAKWXflyqbLCKCKIw4bnidmTPL//83Ny1b8mVpUWZ0HN/nufc8R9o0eZPvy7clJxDwA7TTn98qVt1FyRJGEtF/fTFK2aqdbx0N67N2uz2rDw/TjWYhldxT63zsfQKSqWqjNWx3amWM2nG7fpjHg3jpZ5BDeiR21OmGDcsyDNPUddM0DedferVZullCex3K7m35fQNVY7NyGHfb1A5chHXTsMxerZ62S+i5E+K8Vc3PMnHL1FftktA006r06qfitRSJbZBvRPx8smDnN2+cVn31MtLYfsUWPZSN1SzL5A/CqITbMX/fYpCMHHUNg9cw8QnD6h0W+O/bzrrboFIveX0QHRnUG0feklzokh+JH3IfqtZNS5eNAq+nclowCkl3C+mObkgb3rDUa6V4TRwZ1HMWv/8E8hW65XjM641kh/qGVuY8UzgK0x3hj8LKHHFHIUTkKCwnnmo+Xj7ltHEIetbLyr9Zqpmg3ZpXp08r4AX2kXzGksoBSZLtXyVV2xXDX7srmJUjthUbUGTk5V+NxGGzetOjo236E8YMPlCqV3zP9IFeyfvlKGb4WJkA8TYz44UM3TuzLf9sy4KNWi3pC6iQoSfShJMQKe80El33tang1etzZYLhtIE6RugMCE4vKZkjFJiZsE2tLZ9VG5IKNqZIhmlSDsNTXy672t59DTmwmEUCl0VFNkcoW2ZFoiffBQ/BB45pRgvGjgwdmGe+KEI1/9JLMwDFogpGYMRkiyLCMb5M+cIHpFpp6tdCb+eBmMe+KEqWhXKmaVIRjAPtWjqmZ9GcyQydGGfxGrJtHxUABT2K0FJHIA2arum6rmm8KfFHUYlHkW64Vp3rewjNSbMD5AJu+13ZJt7mSIVZl3X1lG5eOy6RixR+3AXufbiX6WInrZvp9XT8rxTNz6RIN+IVqzxr5U9tu2nbdiM9PDYqFk/Moa1nA1vQEm/iKNDj8d6VqWtgm2JdSzwdiTPt4V6303ak4Lj52N/PFiJ2rF6uVLYW4DMowm6YVR7mI4yARGKdODtLepeaxwACy81Ii5VRlbGKHFRkzhNQRZSco2M4h2a8brvjQOuoyPKfKbtVM1Ys7UyRafXO0tUSf1TJ5ow1L40G/VCdplFvIyFFDcYqcmA1RM9jdUyTqpdJMYcL+MDoRITfLkUOy+7uZ/jb0VbqWjfM43xV2CoeK2qEmZkCswDGrZVFPgiCUrNukGO1bxqnKTKOCP6TM9BcHPvEMqFN5Y+xkq14eoXLzuIlqhuVbroakIdRUCDLmGZAMApAwYSFyijJNzV0uAMQXwekVmzi1ypgyDrycC3wr5HWLO0zStjQjfLQ9uWsVIEHAE2TADCwDZFHgQqCHbonjFGUjmlSDdJ2T4Pl2/V2vty4ml83thrxHRbIAw1intHzEKOFIdwRdeKUq62xgPBiCMteyjxAYEGYEpW2xU6RR7FWBUh26L7oPZrdahgsMz75iLJiyH3QPBT1PA9UEcEC3nJo/qQG2e8G3DniNvVzEkqazW0Flc62YzJnme0L4Q6foSjcLUmJRFVaB+r1V8zWIJSR+kmBFjDvBMqIDGsYp+3w9o0MXxmhFG3hmlRQoAkmxpcD/9sATdwhPWERepXpZ/z5JMNvepXkVbf5341Q7R5Y1HbdpFUknLc/DBtah3RQKNmlV1mYrxWIuImeQWSbonUHvN4wZW3Yb4kiVOhRvdFqIHkHvEmgq1aNBAhVZMwChS4hRIJNkFZyeCclnwIUGUKd/yeAjXFqmWhdoDtseuMxeYsCZQkFjX1hRDCG7R3uZ8NUs2CdNEEMQCDefwr0dGo94Hgm6d6abd6II9sBa04Y7ZBo0+KG1UAuIE4/FDmgbQ2xAfpHADdf6JsDK467Q6W3beiOH0cuPX6sklZFepmOMDCZBYmr9wcAQ1eQIuDKcpURQaOb6MkSCo4bVkvSxEOdzoRCpGHz3w7gDoVhZ0Amx2RtFIQIRlytkiSVUZcjmiXaNjSgezyELl/3mVn7vSDmQRFQVnqHaQFVCeOp4o6WXJq8sFqTUkVaD3pMpzBcZGbs/Qz3Och7UQQ45KhOQha1ZV7olHjHYrK4CBjt2F4FSHVhbEWrDD0S5r8PnhRVgdcNfXeEhtsnVjtellgFJkMASrYpBjieH0yxOU9lWq+0sXlSVOrQ42F2FzLyszZwutsXOGE1yrY80LtZZs8rQEk7cAsbDsVx1N8IT4qgK9uFvxcIM3C94ZH6lrEjgNdj8PY8RmG7JBmVTmzv8rZmPZnKFgqFbIrJy3tTBFzZT7CPZBD602r7ahDSGWcCYrShwf6OkTrg52JNK15L73Mt4aaS2Wb+cNaplbsOnDrK4WHerm6KQb0pSmaoJ6xT8AnCltbXRVRV0jICookCHVLONH7hEi+7u3rB6nVaEc+iOZ9AkVbbLXZ0U7wYuu5UhFpxvXs2jDUdtx1E/zgUgUUPojcoeaaxvyXL2xd0mN2iXWdjxq84gUkQErphHbeaeyj5rba6FWF1hWkY8Xht2ADWNY8iWnVox3TXqHCavfwbCtS3cqJBO+GU6lNcUNrFbvyApUrvyH7ZWorMfJRiGTDfyKMoRQdMLHrE9nbABBmk/Jo23R4dxquI9K93aYhh9uqnz1bfhSGTSPQFHkUB2owB6pVYhoRIEc4/cMFQoEZOi8kpcFy30fUegmmUj6rPkriGnzJT3xTRKp1SvyhAqCLCSkwRPGi000Jnqi1ZocAxNw1OQzOtmb0zQaUZx/J6AUUFak8zj0kNQEohmTUjlNFBhZpmKuemcT+4BAqgw7h3HZZ2YFaOdwwFVMvPkjExRZTnDmxBMlsRJrQUuWlXCE8eBY7I3uliOXNhd3yVbprm0S46qZp5ZimfkCIyZnYAlBFBBeVqkHFFg4y70plqzwRQKdb1VSFtdP0vpBcxJKCIjqNSUTKiUJZy30qEcBozQt1UqbA1P24LSCpXzIMDL540rpXOQ4pfiesajJW4ZcWd/zewAcn/JJ+i5DHld2Y2I0ZJMpxG9hGRRcbdzfJCtK1K6zUhmsNMXPec+XjLXxrgjLeVWeFy+zDWsJvNSLNpn+bTR7NOuWdwDkEItCdtYBJZLyqcRhlMpHDGNy+gwJCSM19Raay3U6fDsum1S0vLTzeIsXuZZpRbEXi2DTnH+NKzsgZYElBEhwmJGgXSHqBDsOQr22QrKlGVSFRVkQdS9lFXl+slPzHuKitlVm1ZbEQnGdb/LMToNwQUJenK1K0yIsJpdPAQlQzuCxHKVPcoXodAkXSHX8q6BF0NyG2BE2ZxkoNiCUWQVD5F2OeiHuutfyC3J/ocDfbntz/ptU3XqTgvG5L1GB9GIT/rxUXH7LyPhFWZd3rCGqgVIvTSFVlyDYqiTcieCnqAVwn9RWQwZ+R6tLx6xwXKNupd/mE7JlXKgFlEFc8zWlV/FNFlj5uQPRFO0w6Aq2QTg9hsyElKzuLP8dTdAWUbHYtbvC7X/wi45MBm4yPiSxehQJukaCUg2FLe2g4aPGdDRUnWyihCjkv3VQQsQuGQSxIbCCcBjgxgFSA7H7VE0zte5ILSIdpKLSaJ+CEscUGoQ/Qks26G/BybP9oN2SNW3GDtOAAsfvZ43IVfiqrUCrWWIk8uFFhxTBVAasbKZqJOrXkqDk/YTEzJZI5GUgDFz3rXh2t36hm7XqJEBZxXhg4ZTmPr1slygJViLpFEm2xmd2ewteMZieSgLFxEQx8GuWfCetU4nSvCc+U0TawTzrlQMka9clebpGVr+TKGPVCF53PisvxIBJ788dOFI5+CRhvYZtmt6DsmOGCLs8gkpXnsdpwKGZh7qWUAdRtygx3Wh3MLXSDavna0gFP2SD7nntQtWbKPUekjzXIUfJJUReLTDzshBZaRdA+AtfiW9yzBQj4JRYhab+7+RVa28rJhZBLSndwsSbPwuMROYDwKqeykoS7ysZChPS45jU/lilxVmyZVERtjRwVSXzuEUHWe+6qrgucAxMFw9CyK8vAd4RygFBkL0/QkFRLiLglELFE3o0ipfOmRxx1gv4AiH4IWAIdAJPY4oouxrCalnfh6jyik1Jz6D6qUdl8FjOCQhkTQWIp8BGPgJijpOKJXHO4JFU7j1qw3iDesCF0UaHpdl+EXYJeSxmehuva8+gUlmXPR3EqWFSgDG9tBJGX8RAbpAGIFb1Om9b5u4QKWXUVGPdz0vZcyJNWtZRRKMpUr0sLJoSCyT7xBiKIxo2ww+QH1HZAEN3FYBYl1DaUGnHxnEaFr6F3I7HfqioxKkzxhJVjdxO0cehmRW/7zQkUsUJY+M6fJdgGUYqTGlrZe5cXuZNsgFaE028SIRQ5pjKwUJfWq5uE/+j11iGBZpEcgE57hNSWHJ1Agwr19QHZNETzPukVNoFiodUoWTeoyOUtGqj7PMaJAE4zCkK9OJugojoagQINfm2IKziEG4PlO6iXB1KEseTKPshlkbkLdCJcPq75OuxZg9UhPfo8hDKlhz6jK/Q4KlIaCA7/wyAoF5oYBjwHzbjVaIiwuEEbVT06AKd45LXkKXLUH7Tq5nLGB2QO9x90CS7GeMG1niM/EoyTzgSXEsTHoh6/AP5G0wspcNq3e0HYFjssT/luqxUQdwzuH9w/MHnO+P1lo1WSX9QmOs7qoc5nVxWnnJp8iad5041FohlEeNgqlAE/mkoU0e4+Y5WnnRNiRa/Fanhhzqdk608lEtcbkN2VXoDX4FIlXNwxVrCC9b4V0urDAmcfDmF2gJ7oUic0O2MtpmLJKBog7y2a80q23Yvl8+nDWjVfoaza1rs0MIiPcj+E50TWpQt3Lsd9dlGWqGPilztWWlYqV6cyGh4et1uFRvdODw1jhk+3BUIC5Q2EN54ony7mIkzl9clBlr9KT1fzAO+hcyDQ8VxkZ0hoOSNGqq84FVUuIcrH+krtp0UbFheZcvZhiRM0U69IYb8RdSfiQuwlKqveEFHnDOPPl9qFdrkLUMUOIcyPjJ7GmqHJKocyZxCsq8cYrr05oPo8iw/M20hVSPipxN20ulRu8ooN/Kno5YnhFhvu4NKIA71U98KreQ+hZN1Ma/qq5HFR9XhipbW+7pG9b0nVxxAVxLgFlrvKjwbHIPXxH3mk0T1jS+wIhR9Di5MLUW9tyPPK8hZGReTmIvUr2QJcGFOBdtU5W0kMiUJ3dzz1GY7R2CPOiQLbrKcx6pUZqzFR4LWpaZSZ3wZPMRXCG9PJZBK/ScmvbvcaTt/zftOzYfpldUwXJQ0kll9tkF6iPdZWR1fUsA7A/wRF7RFiHUGy8Y+rYh2x1hXVWAHo84/eGMPILzY74glbTKqeZlZJ3ONKtYdbbva5bxvLklgNs1nkVhhVqcX37gm74vCUl1Wj3fNwyaxrOaJ6TTEGnHYvzAc20jE4+xWnytGdZmYafAARqzI5raxzXTz3fyB7Wupk1yjsc2Kjm2we8UWxGY1jmWeO5V2Qh5zjasVExlsf1nP8zjXil187z4zAokLT3cQZO2J81Av4vPXOeKzXTZ714HA+DuiDXWY3xSqbeKOx4hxrzjexpetg+Lpe75fLxWb2Vj0j+gxDiX14MRGLHVx1brNpo1c/KPawiljDCmVr7MB9xblJ9aZ/dD5RS2Ww2VXr+fy7j1eH0vJQqVJv2aSPfaNjNqvsfetnXaDY07zyBbwqMhP7Vo/nABz7wgQ984AMf+MAHPvCBD3zgAx/4wO9DtDiZjKZXV/1+/+pqOpoMiq/dozeE6GDUvzx5OJ8nEiE1qASDQTWRmD/+79vFeDSIvnbvXhfO8AdX99fzoLLihoCiBENBZX49nrx2N18NDj+j8Q9FVQE3gKmQ8vWfJWkwvkuoMnY2CE2Xb0SjgX9G7vBQJ4t50B9BGJ9dZkY3N/1/h6TJl5BvfjASA+edBNbj86vAP0BSNDD4qTDaWYrcCL/Xz7lC93X02gP4/Yj25+ouS8ihCK+dwGi9pBaDd76Qiic78uNQ1HfevMytSbovvmuSPrMMKA6W/5BRhDlasxu6fcckTZ2lgDWRooawxs4FsR39dPf56/UNxvXXH3fzhMKKoStoGLdbJX8+frckYY2iBDEtD99uLm/73x1frFiMblAsTq5ur+dgNeVWhlGgn9j+8fzdWgBTzIxDDD265U16qxIIbDSFaI42u9gosWUv99h/nxRtEJWN74riyLWLlhg8EDos+Nj/Z+MB0cA9qZCethQFBjfkL4qjk/5RjAh1pHwjF1z0ktJUyvxfJalIeCjKF/q3PrXlYUth8S/GAqJRIgoQugW/js7pLU8J3YzeueZmQVGkTOHPxW/0jhdU1Ovv758kqugxWiQpYpVN9JKNUr5zzR2dDOg/TMgNjV0f0cA0EQRQgurFe5W36PQEu2dzSpym20WiXHLfGnC8vWDooT/gPv1XYzB+cO1ENXhF/LW/tR1DV/wXo5fcmMH88h1FlNwI/2LrkN0Vt7/8t6VIFa6LESNs7vPK3XgQeAfRSTdDNL7LEWNLbM2b6LcNceqduJHiBY8j/E7o5Ood6O7i1VcQ9phvKRrMt38ei9uIRvvzIBdq6HwxKv61Swl3uzhanDMR/pvteKbctcVranDH5wjrsODd/SjwF7LkdHjy6y4YYoZEckF4sQ9eQ+xzNZJjBARDytO9awf8NTS5nR3dPimhIJMBUc8JrRx92FIkkbNVo5MTcb5AVRPnl47E/Q0sOV0sju4FKVj1klSvk62GSfiwc6LjR0nOQA1ilqbFqDxC9epwcs3F6f1DQpCCnV9Rs0z48l98jAtrpAt5Xi4UnF+4RuUbpcldP98XT8IMtXoNYvVfNz+xLqwA0yev5JMaxIppsO7Qm0F0KV63d6pEXcyh+VzcPvzk+1PFW4HaJjgKJh5PxhPXFngTNLndKA76F+dY/YinOPSFSfdsI9eh/g4fnHxlt0mGJlVJnC/6E2fuXpkltwvF7472kVaAqOff2ZcXa8WiPu5mI189eXLkNqsE51/6y6jAq/C01IiTq/unkOKlH0K3nC4WNxKjeu34zLdF1jaHJzXx+dd0Et12+Y9g+aXBqP/TV/WQesO1nPubB+52d7QGlwn/RSeK+viwGI+Kf9Cfi2LVc3l97q0SlgRM+ZN3s3liF020wWTHwgolmMA8TX9rnGk50Oik/+vmSc0prOXMRWgsWN1bF/bumet/dLITR07BRVDJJT7fX60Eb+8oTqbjC5ccUWkHh6BfwsU93jTi1yZiMbrevUTHmdpQ4vHh4vaKSag/F9HBZNS/Pzl/TKj+uXF6oiQuJct6nZJWf75gu4lOP8tLcYUs4f/lQvPzb1/ux1ejgVOSQTQru2Ga+HgUa5xR//byy7fzRDDntrlTZ5TQhSy+sQklPr5QO0zvdusX2UW31klVckri6cfNf7/GyxoWjxkr4iXzvT/+9d/Jj6cEfleVlEzJPy4lKBC4XD2pPktXUxhdPKeLTIfxMlBDmK9cTnWqoX58/vrz4mKxWFxeXi4WFxc/v/64e5onQvgBRXVq7HMv+aqihBYeayO6ViKLPVh10cmXHUwAn3C9I2ULuW28I3KP957Cc7V69nxPW8vk0qcJ8gagBB9vvbVL9GY566H9ZXqK46ecR9/eBnJ3V37WxSoLqwpyZ88B/uz0JrR3edsvVGW+GPnzGF1lrWBVvV8TLjq5xzb/HnXGfqGEHnwXJBSXZTHjfTvgTljm6vOuJfF/CGrIrUXwOWRXWau3vyNEEXVTm29tJanB0HV/p3yfE4Leu5QRLEVHl36d7D8AVUlcjwc7RkD7qno+/X1hLjdMPF08irIMf5KeoJp4uJ3sHiGOTn93Ln7FUkJ53cWkBu/Gk9cPDgvh9Gt6fxcKPsvTfTFCyvym//ZrV5wJnIxPnv6wJYD31PmDm/d84/y4cLPng6vLu9D+3Tg+PUoo8fizP/m7qnpWiYj/7rCL/lt5wu3n5hd9t7jgb1g/NNwOD77/OnnC07zTeVSfCGHn4vN//cnr5aT2AVfoiqP+4uExoXAOxD0TajCXmD9cjEd7CvO+CbiXc/xIBEOhl8XilJyKG7lb9N/tlR6Daf/XyV0CDxRLyQ5kObd4qLlc4unkvj99r+QQiEaXIfrru6dEKJfLBVelGwoVcQy6f1bwz4n507ebxS3m5j3JlS9Ei4PBZHSF2VpcnFw/PDz8bwv8b19PLhb34/7IPcP6r3EjwvIQbxHkj14d/wetzh8FyQ0njQAAAABJRU5ErkJggg==;" vertex="1" parent="1">
          <mxGeometry x="1100" y="552.5" width="220" height="131.24" as="geometry" />
        </mxCell>
        <mxCell id="AEIaR-JQplcSrDzmcX76-102" value="" style="shape=image;verticalLabelPosition=bottom;labelBackgroundColor=default;verticalAlign=top;aspect=fixed;imageAspect=0;image=data:image/png,iVBORw0KGgoAAAANSUhEUgAAASwAAACoCAMAAABt9SM9AAAAbFBMVEX///8AiNIAhtEAfs8AhNEAgtAAfc4AgM83ltcEitPk7/nz+Pz6/P7f7Pd4suHT5fTB2vBsrN6pzOpHnNmQvuXF3PFdpdyVweahyOnt9fuy0ewfjtSEuOPV5vXK4PJlqd1Pn9oAd80vktWAteLcRPc6AAAKuklEQVR4nO1dZ2PiMAwtzjCrlFFGgY4r//8/XsdBFCl+dkJ6kWnexzYMC1mWnobv7nr06NGjR48ePXr8EqwXXzg+7pb7l3HX30Y53lPziTRNs8za5PC6XT91/Z204j4ZlPAhNpsMNrv7rr9Y55jOFw/sT6d0IGFMZs1sPu3kS+rAfJNby/84MhXC+hJYavPNvIvv2T2eZ6k1g/TI/vxiHbL6FphNZ8+dfN0uMR8m6acKJdwULVyKddGvZPi71Gv3YYG+lz5k/5nmWFbf6pXtOvnaHWC6TbOz+ohV7+EuvIgrS7e/wtgvTVbstJx7UBvPLiTiWnby9f8n5gdLxGHe2L+fAnbh+bV2dNu2a7JJSppj+XK3VU6WU1zJ5oZd+13ONlnGn3A6WQ5x5bdq6cdDbrzNgj3CQx0/7PAmQ+29FVpjX9gzxzq78J/A7b6T5fwoNtInMAP+UFpvF/4T+WsX6/lBjA8VOpNu2VPzICdLvs/hprbimlv2L9QOdVww+bqTZf0IHiu9J/POn6tt3i/IH7tY109gVr27Mu6C77PGwhrYWSdLax0Vpv1bG3h0N2y4C7+ltelkcS1j6HAHDF/dODzUqULKCYwIsXLtLeEf7eo7WSVkq04W2CJcevUhLP7o4Zpd+InYdevNKauUW+SHZk5W6T3fulhjW1i4zzfLqfTZlbvwExkPNiPCya0sxvCHG4U6HPbUxTrbwB44mSn3ItfX78JPJJGG1Q/IFch5OBfKJ/uQ86RtFJgYsHzDj/nJdU4WeWcz6WS51wH64yLUWV4R6jBpRehAHKENyvnPf1WoU4blSW71eIHbqu1Qp4ycE7DaMYCaYjn/9NiCk3WBZGB14xUuXjpZ6DCojzQqohlvQhnqPLfjZF0Q1Ub0pP+Snwh1KMyok2U3wiP2A8yBv6BlxfpwTaKhmSceLj1tVjpTC0ksrumrx1r/WKhDYCKx8c8en0mGOs2zOm7kcVRT+vQk48TA0hoC8EqDwJ+NIoHhUyzJJ78PRgQ2sdXUljEjhMxaSw/VKFRr5aug9bGZ0+ftUBaRfNhsXzHW035GxCV2u0LcexUrpF5vLrdjEJswmRX2L9ffk7Hw+Jcy1KnGir+PYHWqsb/8WKl6Qt5L4okuARcO7IVJYHny8uK0CR5IG7z0QRJaHsT2c7jjdDmNBc+vDb6iUBnqOFH2bQWr48T4bLa0R4i482ZQEeqEvpdwONx4P0tZlGHqgrccrYYdeaKOfVojIXhpwvN6KZ1i6lOsWn41NVqC1QEoKkys5p4Vb1GoKJ2ZTgjY/4iwZJXguAD3p4pMUZBP1xW8JF7CX3HIkzP+MAszJdtQ1Oqu/9gzci7I4kQWlKwm+OoVUJeAOLvGRE0Fq0OMowjMi0jepO2ur014q4Ysz62TLgHhrZISUxHn0bbEnH8N4r6ID9QDD51c4fgQVUSUoDB1JIEtzgza06LYL3337EKhPEQVRZxMAydRq0uoDeGt0p4WeTCogY/xRF0CwvKQElMR6pC2RBmYZ/QnEyeKFvhMlviZ6XmHqh+E8myBqSu7L2qNlq/cGJXOiJ7WMVIeZMLLQYTa1nNvVocrD7U83H0k9IWw0iRqFIH5tGwL1GZ5PIwDaog2oqeVUKUi1KEOh8hBlk9krcyDbyQDaohGg0Mkq0Pk4S30EgepDniqO6TyIMtDAidhdogJF96qaN8XJeQ64GnqEiQLEa7cLDTU4crzFuZwOJ7QAc+YAdQQLeJkUv0gTB31VoUbJYroxFvrAO4Gx6EOTwmuwkKdgJ6W4ATJ/wX2HFBDNAx1ZAKbCJJrq+SIlPoOOBUNLQ/3VonlEcpDWR1xZkiOSGliGrbAyXwy2TAiJXgAykOoDU+o8/3B4emk/wloslBDtKAEn4nyCPpuFMbqFBJtdZFtAXIOQnlQnHwMDHWQqSs+ud1VtoMpEpYws+PAUAfxyb5Qx/EzaQAUFuoSEJZnDZQnlNWJWlj8aWLCBSX4CpRnDrzV6p6W6IQlQh3EJ5eSEcDhEIH5sTLeik5Ykk8ODHV4MuIJeavV/UKxCUumDWicjEIdwOoIh8PBaqsUFnAdZD4ZWB6oPAfEJ1c7eipdB9DZJZQHWR5KCdZJYDuKUkLLMv8znOEObIgWTCYKdQJZndKH6wx3nIG0UJ4dsDzPQHloSlDUIjt6FZQG0k6KBs1+EspzAsoTyuqUhKWzoM1F/sFQR3To0nOSK88MsToOUlsp+eeilSHJUkd5qAkXNX0ui6mUVnZZWNQQDasfEKuDSmfKP5XOhIUjFSaaSqmTJaofqJOFTB1IYDNh6UyFOZKsqCEaVj+AUAeyOmUoTbJWp+9hQ7QIRd6B8uzCWB328UrT99W+g7Q8YaEOTGCHj4NVmtxxnN4Wlc5w44uqHx4CE9jst9JaclRl4WGog+7cQWPuQkOdqrdRg4qvjAZswtKZpgls/vmtLrBNVHDgtUgWpDz1+eSvR/UO05LODpo6U1E6W7wQXZuCEtj88/WWdkuushbJgpSHUoIogc0/X2v97R2rqh5U5ZMNsDyo+iEwgc0g/Q9F4EUsaMAmPCel8uSXxqY/wNQxqG504oUZqBihlvLc3ZOWOf4/d3mm6hY6xoPXSwkiShABjINV3Zzpq9inysPjkHtUOoPgLqJTypKeUT4PYZcAOifrTEgGM5I0n4WfoKc4HLCJQh0RJyO4636VJnYK0K8OS2dQ9UOdvreJu3tWKaNcgG4KWDqDKME6TAEYnat/lF2xaBnqEBMudgituwq/iG/qvvZBt5P1jcIuwTgZzEiskRZdo94q4eQpxPnEg3yyBXFyaD5mOl9VzSRrIPPucJ5OZA7DMmgHtVmxf5LdJOK5YSUOCRJVFLPG7golgSMM3f+Tsx/yoImIXLGiGJDoH2SHIb3VRnP141As/yQ7CMknN5rorX+G3T9cNaQVVQnWgEgqqcX2igspxJg7X5t6JTLtzjsBH24YDlirGw7tUSEFvHIHQrI6TYQV1+U7jafht3JDZASBTgk1rxo/A1UJhr+J1mIQFxpuxFZuiIxrE35i2+zE52/T4IZIG9FJeEYrxsadEnRCccbejWkDz7uFGyKNUZ3RccE7RV8uFBV6ByKKmfkV2NeVVgs3ROY6i5MD8Fhzrah0JgxWb9WMF4ta0rr+hsiYL7BFVyNXLRVMnQlCGgfh50QdaaEEdpCs3rpYYZsQd1E4ARuiQ2QVQ4bCg1XoXrryhsjsBmR1d/caZuVliSm+fZOLWmt3QE2cgmKW626ITCJjZdzY5QE6IqofTuG70ORaGyka4AXnQ7/We8UNkSb86pQY8HTwqckVN0Smh/BKkjgw8xiu5qHO7ZirAnu4FeHsJwSjtK/3SkxWYGM1DXXsKppsak0s3cqFBmwitQq7mi5KTDYOJwIN2HSLKt/cqlp94+FQqV3oLgGnVh2iy+LUxrJCXPAuAYeoRje8Awl2KRcX6mmtFlWN2+xix35UFpconYG32X1o1U26C07Mh3lR7S9DHTeTZdJ8qLnX62cwPmbni4zRgE22X212jKBi+ycwP2VfF2yjAZtUp6yd/T6lIlifTGLf2B9lVseYLDGzm+IWmuFpyf2lUumMSVObjBb7W2MW2sJ7asyHjNLM2iRbzbbrXlBOPG0WHzg+7vbr+9uOZ3r06NGjR48ePXp84S8MHYl8lIlK3gAAAABJRU5ErkJggg==;" vertex="1" parent="1">
          <mxGeometry x="1490" y="594" width="200" height="112" as="geometry" />
        </mxCell>
        <mxCell id="AEIaR-JQplcSrDzmcX76-103" value="" style="shape=image;verticalLabelPosition=bottom;labelBackgroundColor=default;verticalAlign=top;aspect=fixed;imageAspect=0;image=data:image/png,iVBORw0KGgoAAAANSUhEUgAAAOEAAADhCAMAAAAJbSJIAAAAolBMVEX///////0AZ7QWbrrQ3O0mc7oAY7RwmckUbbcicbkAaLiPsNb///zz9/gWbLi/0Off6fOsxeF0nsxBf76lwdtMh8GQsNYAY7cAXbH5/v4AY7DR3OkAVrDg6fDz+PcAWbBcjMU1ebpgkcHo8fIyebh5ocyfu9holMpZjMD0+PHX4O3W4eiMrc6GqM7E1OKwxd08e8BViMR0nMQAUq+Dp9O5y+a18LVtAAAGD0lEQVR4nO2abXuiOhCGM7AisoF26wtoBatsdVtr7dv5/3/tBEggCax7nQ/H7Ifn7tUWZiZpRpJhJiljAAAAAAAAAAAAAAAAAAAAAAAAAAAAAAAAAAAAAAAAAAAAAAAAAAAAAAAAAAAAAAAAwH+EOA2wZMshMRHneltLx5a60lYTXds3OZAhV5bye4B67G1T00vDfcaX1mfA3bhI21GfLaNyNRlQjPzp+IaLoVa+sV1oKoMjb90XPXimdjJ24iDjP5NJjxFRHvTFNYnnnWsXif3yLdWj3vE+srQHRx5uwwEYy7MhecUkzKZlPT9/JZZqVWjzdGQ3dOUhG1gdYrldXDRNRKGhpl3HxE2Bu1Dzm797YTiqyeUh97SOPKRvPe7v7zk9vfYVhhFn/LkvfZLPnpjoxVIe3XjI/cCziVaM8nVPbJhsvnE2X9nizVk+KLpfR5YufXD0DEdhkvgGSRJxyjP/EmFyx0WkscXRVE3gj8jWOYqlxL+fBiAqH4fkGi+M9n3pR9z0ywdazNx42CQqpC6bVzlv7wZyGvlLpCz1HbO06pPjdiPGL47k/6YNEDQgrbNXJVLjlB72IiSnfhzmrl4U2gge7xrGhSYWc/UgxSf13nwdS8tDLEf9oiSN5bH6CJ52uuzuw7mHRCr/CkpDngdhLfanco7RORAZ5kRkKJkUsIdQz828UzWDz95El/quHRRD8tKGteEhzz+lfKum6WwdNJKpXLxsnhpkVcKzTQND6HYJ1uO8VRSGonhWchVByqMUlHLUPL81OIpoSkdTduuocOpoA2IvRvwullKXZZoldJPTWjh3UIw6LuKawpxPy9iiKJShask0ZfOTuN0qdj5LOSUytcqsdbixcy9lJ9/s4om9q9xNmmbnfCPvI9lteLEKuQZUFXMi5oW9WJpaRa6Mjel991RkLA3DuV8H0PCwiMImAE+a1uHItYPihT6VjEpDnI+mQ2yPmtVYNT2/KX1z8TZrBc4XYrVPJrMxY8XUIaKfuRm1bJfcNcZVZyqx442+SuGu7FGPbuhLUzq418jND0IKteSWNa42X4Mx+tpwfv7RMIsNebz/McTsqXWR2I0SloVhvc+Lmbw82zsaV4fYxPOSJEzCjbEOWb5JBvCiuTbiedBI10c+8TQj76nIklrwF8RSRpEkM3Ka6m0xRBK8a7E0Smrh5shmqWb0yONMqiLXj1C4MpPsTQ/L/WyQ/T5vjc7SZl9SoZnvc4r36v5viDTytzmdqH/VVoz9gkjf8bd7c+9he2XMp2V3p0rkLh3t17l668q+u3MfaWgu2RbGqy7/2YinOzXEm6mUfCnJh2z6ljMqVD/vWzGN4626de1glbVV5zBVBWysQ7pd1YqRP1W7hOdInrOslJHI2mpJdivUd37VQKRwb8KpWLaeTK7sTx+iJuZ5ycbKS9dBo3hrPcy8RvKpLN9l7Fw/i3l5XEeV3kv3wj5WkThxvgxF9dRWQLqYF3b9Q231JCtgImVTn9bwVl+tw1KVXEaqdG26RLJOIFVOaeVpmkVtzelJZmSdRmZrdZJW33TNVK8u/LM3IZqdiCUVt0MK3Yaz0pRUj5+W7VZGtYwNcidvRaKHwGYVrGN2++n1FBpRIGLPV6aLPp/rDt/S6rr2sFynmj5NnDxFokPvgMEPs/iP5xbpmbNTEobqPgyrWCo4p6GfNAfaRRrqTRzVwfR93ONuV7Dy0JfrHEQomRmNHvLKg+XTbjzeNRVyvDMM7tx4uOwvjnq/7A/7YyrKtPd1VGHyv1fkzv7SmJauyuDB4rQuaC+2Gjqx6JDnFM4zmYbz4rvFYnEqqDwtFj1NrRVfX2Xt4Y1usDjJFIC/fMl3ZWz0sXhx5PHBswvc0N/ISNPXJImfZNv69IXRKe0s/HDTRBpGj56cj/Eq0bsYOfLwQa9aJZWH68HaNwrS+as6YfsKPE3zKTfg+L1KymOjfg4cZaf07abPP5zH/wzIBc/LbmPp2VSpTeJCnbsxU//qPjsFAAAAAAAAAAAAAAAAAAAAAAAAAAAAAAAAAAAAAAAAAAAAAAAAAAAAAAAAAAAAAAAAwNX5F/gSmmU2MUDSAAAAAElFTkSuQmCC;" vertex="1" parent="1">
          <mxGeometry x="1740" y="552.5" width="225" height="225" as="geometry" />
        </mxCell>
        <mxCell id="AEIaR-JQplcSrDzmcX76-107" value="" style="shape=image;verticalLabelPosition=bottom;labelBackgroundColor=default;verticalAlign=top;aspect=fixed;imageAspect=0;image=data:image/jpeg,/9j/4AAQSkZJRgABAQAAAQABAAD/2wCEAAkGBxMTEhURERMVFhMWGBgZFhgYFxcZGBsdGB0WGhgeFxYYHSggGBslHhcYITEhJSktLi8uGB8zODMsNygtLisBCgoKDg0OGxAQGzEmICUwLy0tLTUuLS03Ly0tLS0tLS0vLS8tLS0tLS0tLS0tLS0tLS0tLS0tLS0tLS0tLS0tLf/AABEIALwBDAMBEQACEQEDEQH/xAAbAAEAAwEBAQEAAAAAAAAAAAAABAUGBwMBAv/EAEkQAAEDAgIGBgcECAMHBQAAAAEAAgMEEQUhBhIxQVFxBxMiYYGRMkJSobHB0RQjcpIzU2KCotLh8HOywhUkQ1ST4vEXNGOjs//EABoBAQADAQEBAAAAAAAAAAAAAAAEBQYDAgH/xAA2EQACAgECAgcHBAMAAgMAAAAAAQIDBAURITESE0FRcYGxIjJhkaHB0QYUFeEjUvAzQhZicv/aAAwDAQACEQMRAD8A7igCAIAgCAIAgCAIAgCAIAgCAIAgCAIAgCAIAgCAIAgCAIAgCAIAgCAIAgCAIAgCAIAgCAIAgCAIAgCAIAgCAIAgCAIAgCAIAgCAIAgCAIAgCAIAgCAIAgCAIAgCAIAgCAIAgCAIAgCAIAgCAIAgCAIAgCAIAgCAIAgCAIAgCAIAgCAIAgCAIAgCAIAgCAIAgCAIAgCAIAgCAIAgCAIAgCAIAgCAIAgCAIAgCAIAgCAIAgCAIAgCAIAgCAIAgCAIAgCAIAgCAIAgCAIAgCAIAgCAIAgCAIAgCAIAgCAIAgBQFdVY5Tx+lK2/BvaP8K7wxbZ8okC7U8WnhKa9fQgSaXwDYJDyA+ZUhabc+4gT/UWIuW78j5HpfAdrZB4N+Tl9em3LuPkP1FivmmvIm02P079kgB4Ou34qPPEuhziTqdWxLfdmvPgWbTfMKOWCafFH1D6EAQBAEAQEeqrY4/0j2t5ke4b17hXOfurc4XZNVK3skkVc2lVONhc7k0/OylR0+59hWz17Di9k2/BHgNMYb+hJ5N/mXv8Ajbe9HD/5Hjb8pfT8kmHSimdkXFv4mn4i65ywL12bkivXcOb26W3ij94lj0ccXWMc19yAACPHlldeacWc59BrY65eqU009bFqXHbgyypZ2yMD2m7XC4UecXCTiyfVbG2CnF8Geq8nQIAgCAIAgCAIAgCAIAgCAIAgKXGtIo4LtHbk9kHIfiO7kpmNhTu48l3lRqGr1YvsrjLu7vEzOvV1pyvqfljH195VltjYvPn82Z3pahqb4e78l/ZaUmho/wCLIT3MFvedvko1mpy/9EWNH6aguNs9/Aso9F6YeoTzc75FRnn3vtLCOhYUf/XfzZ9fovTH1COTnfVfFnXrtPstDwpf+n1ZX1WhrD+ikcDwcAR7rKRXqc17y3IN/wCm6n/4pNePEqHwVdGbi+pxHaYeY3e5S1PGyuD5/JlW6dQ017x935r5dhoMF0nZLZklmP3eyeR3HuKgZOBOr2o8UXun63VkbQs9mX0ZoFALwIAgI1dWshbryOAHvPcBvK911Ssl0Yo4ZGTXjw6dj2Rj67SWaZ3V07S0HZYXefLZ4eat68GupdK1/gymTrWTky6vGW3r/R+qPROZ/ameG32+s7xOz3lLNRrhwrX2FH6evtfTvltv5v8A75lxDolTj0td3N1v8tlDlqNz5cC2r/T2JFe1u/P8HudGabZ1f8T/AKrx++v/ANjv/CYW23Q+rI0+iMB9EvbyNx7/AKrpHUblz2ZGt/T2LJezuvP8mOrKMtkcxms8NNtYNOdtuWe9XFVylBSlst/iZTIwpV2yhWnJLt2NFodUysd1T45Ordm0lrrNPO2w/Hmq7UIVy9uLW/aaDQbb631NkX0Xyez4M2CqTUhAEAQBAEAQBAEAQBAEAQBAZfSnSLq7wwnt+s72e4ftfBWWFhdZ7c+XqZ7V9W6n/DS/a7X3f2RNHtGda0tRexzDDtPe/wCnmu2Xn7exV8/wRdM0Tp/5snt4pfd/g2MbAAAAABsA2eSp223uzUxiorZcjwrK+KIXke1vM5nkNpXSFU7HtFbnK7JqpW9kkiol0vphs13cm/Wylx0699mxWT17EjybfkfI9MKc7ddvNv0JR6beuW3zPkdfxHz3XkWtFicMv6ORrjwvY/lOai2U2V+8tiyozKL/APxyTJZF8iuRIaT4MyukGiwIMlOLO2lm4/h4Hu2K0xc9x9mziu8zmpaHGadmOtn3d/h8Tx0X0hIIgnJ4NcdoPsuv8V7zcJbdZX5r7nLSNWaax7+fJN+jNiqg1JCxbEmQRmR/Jo3k8AutFMrp9GJFzMuvFrc5+S72Ymnhnr5i5xs0bT6rRwaN5/sq7nKrDr2XP1MhXVkatf0pPaK+S+C+JtsMwuOBurG3Pe45uPM/JUl187XvJmuxcKnGj0a159rJb3hou4gAbSch5rkk3wRKlJRW7ZUVOk9MzLX1j+yCffs96lwwb5f+pWW6zh1vZz38OJFGmVP7Mn5R9V1/jLvgRv8A5Bi79vyJtLpHTPNhIGng4FvvOXvXGzCuhziS6dWxLXsp7ePAtWnhsUUsU0+R9Q+mGrcTqaapcZCXNcSQ0k6pbfLV9kgf1urqqijIpSjwa9TH5GbmYWW5WPeL7Ozb4fFGxoKxkrBIw3afMcQe9VFlcq5OMuZqse+F9asg+DJC8HYIAgCAIAgCAIAgCAICp0lxX7PEXD03ZM58eQ+ilYmP11m3Z2ldqeb+1pcl7z4Izuh+D9Y77TLm0E6t/WdvceNj7+SsNQyeguph5/gpNF0/rZfubePd8X3m3VKawx+P6Vm5ipuRftz4MG/n5K3xdP3XTt5d35MzqOtNS6rG59/4ImH6KzTHrJ3Fl+Paeed9nj5LrbqFVXs1Lf0IuPol+Q+syJbb+bL2DRCmA7Qe7m4j/LZQpaje+T28i3r0HEiuKb8/wfZdEqY7Gubye7/VdfI6jeu36H2WhYbXCLXmylxHQ+Rnbgfr2zsey7wOwnyUyrU4S9m1FVk6BZX7ePLf4cn8xgulL43dVU3IBtrEdtv4hvHv5pkafGcenT8j7g6zZVLqsn59q8TbMeHAEEEEXBGwg8FStbPZmrjJSW65GT0zwQEGojGY/SDiPa5jf3cla6dlbPqpcuwzeuaapR/cVriuf5JuieNdbEWyHtxjMne3cT8D/Vcc7F6qzePJkvR8/r6dpv2o8/DvM3Vzvr6oNZ6FyG/stG1x7z9ArGuMcOjpS5/fuKO+dmp5fQj7q5fBdrN7Q0bImCNgs0e/iT3qisslZJylzNhj0QorVcFwRBx7HWUzc+1IfRb8zwC74uLO98OXeRNQ1GvEjx4yfJGQjiqq51yewDtOUbeQ3nzKtnLHw1t2/UzMa83U5bt+z8kvyXtHoXEB949zz3dkfX3qFZqlj91bFvT+nqIr/I238iadFKX9Wfzv+q4/yGR/t9ESv4TC/wBPq/yV9boWwi8Ujmng7tD3WI96716pNe+tyFf+napL/FJp/HiUrJ6qgeGuvqHcc43fhO4+R7lMcMfMjuuf1KyNmbpk9pcY/NPw7ja4Ni0dQzWZkR6TTtB+neqbIx50y6MjVYebXlQ6UPNdx+8Xw1k8Zjfzad7TuIXyi6VM1KJ6zMSGTU65+T7mYvAK51JUGGXJpdqu4A+q4d2zwPcrjLqjk0q2HP8A7gZbTcieBkui3k3s/HsZ0EKhNmEAQBAEAQBAEAQBAEBzzSCZ1VWiFpyDurb3e2fj+VaDEisfGdj5vj+DG6jKWZnKmPJPb8s31NA1jGsaLNaAAOSoZScpOT5s19dca4KEeSMtpvjRYPs8ZzcLvI3A7B4/DmrPTcVTfWy5LkUGuZ7rXUVvi+fh3eZI0U0eETRNKPvTmAfUH83w2LnnZjtl0I+76nbSdLjRFW2L2n9P7NMq4vAgCAICj0lwFtQ0uaAJgOyeP7LvruU3Dy5US2fulVqemwyodJcJrk/syj0Lxcsf9lluASdS/quF7t8fjzU3UcZSj10PP8lXombKubxrPL4PuNs5oIIIuDtVLvsahpNbM5hjlE6lmexpIa4HVPFjtoPlbwWnxbI5Nacua9TB5+PPCvlGL2Ulw8H2Gu0JwwRw9afTlAPJvqj5+XBVGo39ZZ0VyXqaPRMNU0dY+cuPl2Fvi2INgidK7dsHEnYFEoqds1BFjl5Mcep2S7PUw2BYa+tmdLMTqA3eeJ3NHAW8grvJujiVquvn/wBxMpg4k9Qvdt3u9v4R0KGJrWhrQA0CwA2BUEm5PdmyhCMEoxWyR+18PQQBAeNXSskaWSNDmnaD/eRXqE5QfSi+JztqhbBwmt0zn1ZDJh9SHNJLT6J9pu9ru8fQrQVyhm07S5/fvMdbXbpeSpR91/Vd3idBo6lsrGyMN2uAI/r3rPzg4ScXzRsabY2wU48mZXT7DrtbUNGY7L+R9E+By8VaaXdtJ1vt5Gf/AFBiKUFfHmuD8C40UxDrqdpJu5vYdzGw+IsVEzaequaXJ8UWelZPX40W+a4PyLhRCxCAIAgCAIAgCAIDxrJtSN7zsa1zvIEr1CPSko95ztn0IOXcjC6Aw6875XZlrf4nnb5B3mrzVZdCqNa/7Yy2hV9ZkTtfZ9zfSPDQXHYASfBUSW72NZJ7LdnO9HYjV1plfmATIR49geGX5VoMuX7fGUI83w/Jj9Pr/eZrtnyXH8F5pXpzDQytikikeXMDwW6trXcPWIzyVPTjStW6ZqLsmNT2aI2B9JVHUSCI68TnGzesDdUk7BrNJsT32XqzDsgt+Z8rzK5vbkWel2lcdA2N0rHv6wuA1NXLVsc9YjiudFDtbSZ0uvjUk2VGCdJUFTOynjhlD361r6luy1ztzv2bLrZhyrj0m0cq8yE5dFJkvRTTuGumdBHHIx7WF/b1dgLWkZE59oLxdiyqj0mz3Vkxsk4o+12nMUdaKDqpHyF7GazdXVu8NOdzewDs8tyRxpOvrN+AlkxVnV7cSu04wwxyCpjyDiNYj1XjYfG3mO9WemXqcXTPy8DO63iOuxZNfn49jNTo9igqIWyesMnjg4bfA7fFVeVQ6bHH5eBe4GWsmlT7e3xI+lmE9fCdUfeM7TO/iPEe8BdMHI6m3jyfM46ph/uaXt7y4r8FNoFi+2medl3R/wCpvz81M1TG2fWx7eZXaFmcHjz7OX3RB0uxF1RUNp4sw12qAPWecifDZ5rvgUqip3T7fT+yLq2RLKvWPXyT28/6NfSxRUdN23BrI2lz3nzcf6cgqa2yV9jl2s0mNRDGpUF2czEzdLsAfZtPIY7+lrNDj3hn1KkrT57cWcnqEE+TNrRY9DNSmriJdGGucRsd2AS5pB2Oy/sKHKuUZdF8yZGyMo9JGOHS7S/qJ/8A6/51M/j596If8hX3M1mH6T001M6rZJ9ywHXJFi0tFyHN23zGQ23Fr3UWVM4z6DXElRuhKPTT4GOf0vwB9hTyGP2tZodbjqbP4lL/AI+e3Mi/v4b8mazSCnFVR9Y0EHVErNYEOGV7FpzBIuLLnh2um9b8uTPGp46yMZ964orejyuuySE+qQ5vJ20eYv8AvKXq1XRmprtIH6fvcq5VPs4rzNJi9L1sMkftNIHO2Xvsq2mfQsjLuZc5VStplB9qZkejqp7csfFocByNj/mCt9XhwjPyM9+nrNpTrfibpUZqQgCAIAgCAIAgCAq9J3WpJvwEeeXzUnDW98PEh6i9sWzwZRdG7fu5j+00eQ/qp+sP24r4FV+n4/4pv4mg0jk1aWYj9W73i3zVdire6C+KLbOe2NNruZm+jaMaszt92Dy1j81ZaxL2orxKf9PRXQnL4oxvTM7/AH+nHGJn/wCj1ww3tXIs8qO9kSV00YHDCyGpijbG5zzG8MAaHdkuaSBlcapF+/uC+YVsm3Fs+5lUdlJETpJrnS4dhkrzd72EuPE6jLnxK+4y6Ns0fMr2q4tmg0E0voZ5YaWKkLJwz9IY4QLsZ2iHNcXZ2O7euN9U4pyb4HemyEtklxM5gX+6aQuh2NdJI392VpkYPMsXex9PGTI9cehkP4ntoUPteOzz7WxOmeDu2mKP+F1/3V8ufQx1HvPVUele5dx12vo2yxuif6Lhb6Ed4OagV2OualHmiVdTG6twlyZz3R+tdR1TopD2CdR/C/qu/vcStBl1LKx1ZHnz/KMpgXPBynVN8Hwf2Z0pZw2BznTDD3U1QJ4rta86wI9V+8eO3zWh0+6N9Tqnx29DI6tjSxr1dXwT+jJ3R/hd71L89rWf6j8vNcNVyNtqY+f2JOhYnPIl4L7si9NlYWULGA5STNDu8Na59vzNafBQMJf5N+4usx/49j5ovorTyYOA6NpfNE6QyFo1w43LCHbRq5Zd3eV9tvmrt0+Qrog6ttuZmOievc6lxGK/ZEPWAcC5kjXeYa3yXbMS6UWc8NNRlErNBscooaasZWAOdI1vVsLC4uID9jrWbmRmSF0yIzlOLicsdwjCSkSNEcKqJsJxDqw52s6HUAv2jC7Xk1RvNrDLaRZfLrIq6LZ6pqk6ZLvJvR1pVQsiFDWxMaesJEj2tLC7WuOsvmxwNgCcssyFzya5uXTiz1jzgl0JI7ORcdyrie1ujnegp1axzBs1XjyI+i0Ope1jRl4ehk9GXRzJRXc/U6Ks8a051ocdWvc0cJG+R/otDqHHEi/D0MlpK6OfJf8A69ToqzxrQgCAIAgCAIAgCArNJWa1LOB+rcfIX+SkYj2vg/iiJnR6WNNfBmc6NJezMzgWHzDh8lZazH2osqf0/JdCcfijUY7Dr08zRtMbrc7Gyq8eXRtjL4oucuDnROK7UzJdGlRnNHvIa4eFwfiFbazD3ZeKKP8AT8/fh4MxXTjKG19OTsELT5SPULFfsNFzke9FkPpA0y/2tJBS0UUhAcS0OAD3vIsLAE6rQL5k7yTYBfaK+qTlI+Wy63aMS16YqH7NQ4dT3v1QLL8S1jAT4kXXnGnvOT7z1kR9hIu9DdPsPkkpqWKnkbO4NjD+qiA1g3tEuD9axsdy5WUzScm+B0hbF8EUHTK11LiNLWx7S1rhwL4HXz5tc0eC7Yr6UHBnK9bSUkW3QHQWgqKk3u+RsYJ3iNusT4mS37q55ct2o9x7x47JvvOhaRYqKaB0nrbGDi47PAbfBeMXHd9igvPwPGblLHpc3z7PE5nHhkssMtVta13aJ2m+bj4XF+Z4LTPIrqsjR3/8jHLEtuqlkdz+fe/I3ehGMddD1bj95FYHiW+qfkeXeqLUsbqbOkuTNNpOZ19PRl70fTsLbGsObUQuidvHZPBw2H++9RMe502KaJuXjxyKnW+31MPoZiTqeodTS5B7tWx9V4yHns8ld6jQr6ldDs9P6M7pWRLGvdFnJ+v9k7pgwd9Rh5dG0ufA8S6o2loDmvsN9muLv3VS40+jPiaW+HSjsYPA+lFkOFmkLHmoax0cThq9XZ19Vzje41Qdls7DibSJ4+9nS7DlG7aGz5ln0U4O6PDq6qeCBNE5sd97Y2Sdodxc4j91eMmzpTS7j1RBxi2+0hdDGAUtW2odUwtlLHR6utfK4ffIGx2DaumVbKLXRZ4x64tPdHUNIsYp8MpDKWBsbLNjjYA27j6LWjYN57gCVCjF2S2JTaitzjPSXpNQVvUyUkTxUEnrXFgaSCLBrrE67r2sc9lr5qdjxnXv0nwIlzjPbbmdvwJr4aKAT+nHAzrL8WsGtfyKgtdKey7WSm+jDd9hjuj1hfVPkO5hvzcR/VX2qtQojD4+iMvokXPJlZ8PVnRSbZrPGqb2W5znQQ69a5+7Ve7zI/mWi1P2caMfD0Mro/tZkpeP1Z0dZ01YQBAEAQBAEAQBAfiaMOaWnYQQfHJfU9nueZR6SaOb6FTGCtdA/LW1oz+JpuPgR4rRajHrsVWLs2fzMtpUuoy5VPt3XyOlFZw1ZzDWOH1+Y+7v5xv4cbfFq0uyzMThz+6/JkeOBnbvl9n+Dd1+BUdUWyz08Mx1QGuexrzq7RYkbM7+KzilKPDkaxbSW6PXDMDpqe5p6eGInaY42sJ5lozXxyb5s+pI/WKYNT1IaKmCOUNuWiRjXWvttrDJFJrkNiJSaKUMT2yRUdOyRpu1zYmBwPEEC4X1zk+bGyJeKYNT1IaKmCKYNuWiRjX2vttrDJfFJrkNj0w/D4oGCOCNkUYuQ1jQ1ovmchkvjbfMHPNI651bVthhza06jOBPrP5ZeQWkw6liY7tnzfH8IymdbLNyVVXyXD8s6FQ4eyKFsDR2A2xvvv6V+dyfFZ+y2Vk3N8zTU0QqrVaXA5xUB2HV125sGYHtRu3HvFj4tBWjhtnYvHn90Zaaen5m65fZnToJmva17TdrgCDxBzCzMouLafM1sJKUVJcmYjpDwexFUwcGyW8mu+X5Vd6Tk86ZeX3Rn9axOV8PP7Mv9EsZFTACT94zsv57neI991X52M6Ldux8iz07LWRSm+a4M8Z9BsOfIZXUcJeTc9nIk5klg7JJ7woytmltuTeiuexfOgaWdWWjULdXVsNXVta1tlrZWXg9ETCsFp6YOFNBFCHW1urY1l7XtfVGdrlfXJvmfNiTV0rJWOjlY17HCzmuAc0jvByK+JtcUfSmw7QvD4JBNFSRNkBu11r6p4tvfVPJe3ZNrZs8qKXYRNPsWEcPUNPblyPczefHZ58FYaXjOy3pvlH1KnWMpV09WucvQ+9H2HGOnMrh2pTcfhHo+dyfEJqt/WXdFco8PPtGjY/VUdN85cfLsLPSmt6mllffMt1W83ZDyvfwUXDq626MSZn3dVjyl8PUzvRpSdmWY7yGDwzPxHkrHWbN5RguziVWg07RlY+3gbhUpoQgCAIAgCAIAgCAIDnGn9A6GoZVR5B5BvwezZ5gA+BWh0q1W1OiXZ6MzGr0Oq5Xw7fVG7weu6+GOa1tdoNuB3++6o76uqscO40OPb1tUZ96KvTDAPtMd2fpWXLe8b2nnu7/ABUrAzP28+Puvn+SJqWCsmvh7y5fgy+ielBpz9mqbhgNgSDeM7wRt1fhy2WedgK5ddTz9Sp0/UHQ+pu5en9HRYZWuAc0hzTmCDcHkQs804vZmmjJSW6P2vh9CA+OdbM7EPje3MwWl+lwcDT0pvfJ8g3/ALLON+Pkr3A01r/Ld5L8mf1HU911VPbzf2RZaD6OmBvXSi0rxYD2G8PxHf5cVG1LN66XQh7q+rJOlYHUR6yfvP6I0lfVtijdK82a0XP0Hedirq65WTUI82WltsaoOcuSOVR009fLNKBchpeRu/ZY3vsLDktU7KsKuEH28PyzIKq3OsnYuzj+EaPo6xq4NK85i7o78PWb4bfPgq3V8XZ9dHk+f5LTRsvddRPs5fg2tTA2RjmPF2uBBHcVTQk4yUlzReTgpxcZcmcwqYZ8MqQ5ubD6JPovb7LuDh/VaWEqtQp6L95fR9/gZWcLdOv6Ufdf1Xd4nQsExuKpZrRuzHpMPpN5jh37FQZGLZRLaa8+80mNl15Ed4Py7iyUckhAEBS6Q6RxUrczrSEdlgOfcXeyO/yupeJh2ZEuHLtZCzM6vGjx4vsRicDwyXEKgzzE9WD2zsBtsYz+8h3lXeTfXhU9VX73/cWUOLjWZ13W28v+4I6e1oAAAsBkAsy2apLZbI5z0gYr1szaWPMMOYG97sgByvbm4rQ6Vj9XW759voZrWMh22KiHZ6m3wHDhTwRw72jtHi45uPmVS5Nzutc+8vsShUUxrXZ6lguBICAIAgCAIAgCAIAgPGqpmSN1JGte07nAEeRXqE5Qe8XszxOEZraS3RV4ppBBSOZFKHMBbdpDbssMrANzFst28KTRh25Ccoce/iRrsurHajPh3cD0pdJKST0aiPkTqnydZeZ4d8Pegz1DNon7s0RdIdGIqsa4OpLbJ4zB4aw9Yd+1dcTPsx3tzXccczT68lb8pd5jDRYhQElmtqcWduM822y5kBXPW4WYva4P48H8yl6nNwn7PFfNfIl0/SLMBZ8Mbj3FzfdmuUtErfGE36nWOt2LhKC9D7P0jS27MLGni5xd7gAkdEgven9D7LXJv3YEJxxGvyIf1Z7uri/7veV1X7LD49vzZxf77M4cl8ka3RrQ+OnIkkPWTDYfVb+Ebz3n3KqzNSnf7MeEf+5lthaXXR7UuMvQ0znAC5NgNpKrSzb24nMdLcedWStpqe7ow6wt/wAR3H8I3eJ5aXAxFjQd1vB+i/JmNQy5ZVipq4r1f4N1o1gzaWERjN5ze7i4/IbByVHl5LyLHN8uzwL3DxVj1KC59viYrTXBnU0wq4Lhjna1x6j9vkfqOCutOyY31uizn6r+ik1LFlj29fVy3+T/ALNfovpAyrjvkJW+mzh3j9kqozMOWPPZ8uxlzhZkcmG659qLLEKGOZhjlaHNO75g7j3qNVbOqXSg9mSLaoWx6E1ujn+K6F1ED+tpHF4GYsdWRvwDvDyV/TqlN0ehevx/Rn7tKupl06Hv6/2eMGmtZAdSdgceEjSx/mLfBe5aXjW+1XLbwe55jquVTwsjv48CYekd9v8A27b/AOIf5Vy/g1/v9P7Ov87L/T6kKbS2uqTqQN1e6JpLvFxvbmLLtHTsSjjY9/F/Y4y1HLv9mtbeC+5MwXQaSR3WVji0HMtDrvd+J273nkuORq0ILoULz/COuNo85vp5D8u3zZv6anbG0MjaGtbkANgVDOUpvpSe7NDCEYR6MVsjP6Y6StpmdWwgzuGQ9kH1j8hvU/T8F5Et37q/7Yr9Qz1jx6Mfef0+JSdH+BFzvtkwO/q77STteffbxPBTdVy0l1Ffn+CBpOG2+vs8vydAVCaEIAgCAIAgCAIAgCAIAgMn0kYf1lL1oHahdrfunJ3yP7qtNIu6u/ovlLh59hV6tR1lHSXOPE5th8jY5I5JYy+O99U5BwGWRtmAfDKy0tydkJQrls/QzdLVc4znHdep2HBcdgqW3heL2zYcnDm35jJY7IxbaHtNeZr8fKquXsPyLRRySR56KJ/pxsd+JrT8QvcbJx5Nnh1wfNI+Q4fEzNkUbT3MaPgEds5c2/mFVBckiSvB7IOKYvDTt1pnhvAbXH8LRmV2px7LpbQW5xuyK6VvN7HOsc0lnrn/AGenY4Rk5MHpP73nYB3bOJWhxsGrEj1tz4+nh8TPZObbly6qpcPXxNfojou2lbrvs6dwzO5o4N+Z3qozs+WRLZcIr/uJbYGBHHW74yZpFXliedRA17Sx4DmuFiDsIK9Rk4vpR5nmUVJOMuRzHHtH56CT7RTF3Vg3DhmWdzxvb37OPfpMXMqzIdVdz9fD4maycK3En1tPL0+D+BpNHdOIpgGVFopePqO5E+jyPmVXZelWVe1Xxj9SyxNUrtXRs4S+hrQb5hVRaLifmSJrhZwBHAgH4r6m1yDinzRGGFQXv1MV/wDDb9F766z/AGfzPHU1/wCq+RKYwAWAAHAZLw23zPaSXISPDQS4gAbSTYDmV8SbeyDaS3ZitI9PGMBjpbPfvk9Rv4fbPu5q5w9InP2ruC7u3+imzNWjD2aeL7+wq9F9FZKl/wBpq9bUJ1rO9KQ9/Bvx3ZKVm6hCiPU0c/T+yLhadO6XW38vX+jpTGgAACwGQA2BZxvfizRpJLZH1D6EAQBAEAQBAEAQBAEAQHnUwNexzHi7XAtcOIIsV9jJxakuaPMoqSafIh1mCwSRCB8bTG0WaLW1bZDVIzb4LrXk21z6yMuPqcrMaqcOhJcDDYt0fyxu16STWtmGk6rxycMj7leUaxXNdG+P3XyKW7SJwfSpZCbpHiVL2Zg4gfrWEjwkFtbzK7PCwcjjW9vB/Y5LMzaOE1v4r7k6LpLfbtU7Ce55b8WlcnoS7J/T+zstbl2w+p9k6TH7qZo5yE+4NC+LQl2z+n9h62+yH1IL9LMQqezA0j/CjJPi43tzyXZadhUcbHv4v7HJ5+ZdwrW3giRhuglTM7rKqTUvtudeQ+N7Dnc8lzt1empdGiO/0R6q0m619K6X3ZvMGwWGmbqwstf0nHNzubvlsVFfk2Xy3sZeUY1dC2gixXA7hAEB8IvkUBj8d0Cilu+nPVP9m14z4er4Zdyt8XV7avZs9pfUqcnSa7Pah7L+hmRSYnQ+h1moPY+8j/LY6vOwVl1mBl+9sn8eD+ZXdXnYvu7tfNEmn6RqhuUkUbiOGsw+O34LnLRKpcYTfqdY6xbHhOP2JP8A6mO/5Uf9U/yLn/A//f6f2e/5t/6fX+iJP0h1L+zFHG0nuc93h/4XWOi0Q42Sfoc5avdPhCP3PAYTiVcby64b/wDKdRo5Rge/VXv9zg4i/wAezfw4/U5/t83Kft7pfHh9DW4BoRBAQ+T72QbC4WYD3M495v4KpytUtu9mPsr/ALtLTF0uqnjLizVKsLMIAgCAIAgCAIAgCAIAgCAIAgCAID4QgIkuFwOzdDEebGn5LpG6yPKT+ZzdNb5xXyPkeEwNzbBEOUbfovrvtfOT+bCprXKK+RMa22QyC5HtLY+ofQgCAIAgCAIAgPGeljf6bGu/E0H4r1Gco+69jy4RlzRG/wBi03/Lw/8ATZ9F0/cXf7v5s8dRX/qvkSoadjPQY1v4QB8FzlKUubPajGPJHqvJ6CAIAgCAIAgCAIAgCAIAgCAIAgCAIAgCAIAgCAIAgCAIAgCAIAgCAIAgCAIAgCAIAgCAIAgCAIAgCAIAgCAIAgCAIAgCAIAgCAIAgCAIAgCAIAgCAIAgCAIAgCAIAgCAIAgCAIAgCAIAgCAIAgCAIAgCAIAgCAIAgCAIAgCAIAgCAIAgCAIAgCAIAgCAIAgCAIAgCAIAgCAIAgCAIAgCAIAgCAIAgCAIAgCAIAgCAIAgCAIAgCAIAgCAIAgCAIAgCAIAgCAIAgCAIAgCAIAgCAIAgCAIAgCAIAgCAIAgCAID/9k=;" vertex="1" parent="1">
          <mxGeometry x="1349" y="777.5" width="490" height="343.73" as="geometry" />
        </mxCell>
        <mxCell id="AEIaR-JQplcSrDzmcX76-110" value="" style="edgeStyle=orthogonalEdgeStyle;rounded=0;orthogonalLoop=1;jettySize=auto;html=1;" edge="1" parent="1" source="AEIaR-JQplcSrDzmcX76-108" target="AEIaR-JQplcSrDzmcX76-109">
          <mxGeometry relative="1" as="geometry" />
        </mxCell>
        <mxCell id="AEIaR-JQplcSrDzmcX76-108" value="" style="shape=image;verticalLabelPosition=bottom;labelBackgroundColor=default;verticalAlign=top;aspect=fixed;imageAspect=0;image=data:image/png,iVBORw0KGgoAAAANSUhEUgAAAWgAAACMCAMAAABmmcPHAAAAllBMVEX///8XFyUAAAAAABcTEyIAABF+foQVFSMHBxtjY2sPDx8AAA+ZmZ4+Pkk6OkYAABns7O0AAAvy8vPa2twAABU2NkDAwMPk5OVSUlmgoKK3t7vOzs8hITEICB51dXqEhIksLDeNjZInJzWsrLCRkZa+vsFLS1NZWWFGRk9qanExMTvNzc8cHCqwsLNvb3WmpqoUFCgBAR8M/xDWAAAS60lEQVR4nO2daXuqvBaGFYLBoJUAikOdZ6W6z///c4chCRASBnHTdr88n3pZWMBNyLCystIZrLcp9axOqzL6wt2UnHX+8TdNTUkxm7nPX6+qoD9A+vgWdEm1oBtSC7ohtaAbUgu6IbWgG1ILuiG1oBtSC7ohtaAbUgu6IbWgG1ILuiHVBt26SctpXhM0Pi4KZNtunZdhmW6gN73PyJhZwZppz7erfn1dUBocGF+lxwbvgAfdxUq+jNHSG05Xc/sFKovZYzrcfPrybsPzam/XwG0unqvz5eYF1jbj6XVwd4tPsub9jYYdVa8vjrNPWnqoMe0IQBcJ+kK6ip3h6l6Fkz2Y7rAxQgjA0ERgw7j19yXwCIzNzjuMVZ0YA741DXunbf7btwY3rANY8YHrSz+/ApoKIlUZFzwZk/k8OYaeuZT/xjDoHyuWa3M/HYmAAaThy1PemE/GOFMMG1E90IGQpj9KoDbXO4xkBQnoeDirgNr1jekyYxBhryf+RqyV8T2Y3wHafzJnuSr4+K1DV8u/CMLjfUnM5rbIGHCWW8F7c09G83UG0TtA+6g175mH5njDxZdAeFqqEvraGcXGgLGZ8yfaG7Xmc9bQe0D7D4b70orRWinlPlh9OSjE7PZLVrIIP9KF2hzrdZ6wpt4F2u+s7+5iNPa49AcL8LlgUHr8dMoag9o4+YVYU+fVR3uH3ge6ixxhJTsfVWl/nFtu9THQqhjT9Ul86hoXn/AX9UbQXagIvvxnido5dUPdSdYI1QpXa8wAZu/eLlGx/029E3QX4gzpmVK1nUeOlPS1IucU6YdW8dz36q2gfdJc5+NZmXPQN5OQvhrV7wgo1Jh1+s628M2geUiTykUwNKKJSFv9Fzj7xka00rfBd1YebwbdRV5i6GJnB9ylJCJtTV/89NGG9vL2L732N0kMeqQWKPDkiA2OpjGb4asfK1C+eM6nlztnTp8aOScHLAAVPWSxMs8HpIdikfdutOrl63EefmJVXFzjrkdP2qEKXG0IAbkTDXKk8zhHxqRv3r8j2iDaS3YMVLvToqcsVp/3R2/kxw4EoMvMsJj31UY4RsMHcsRd0hACHY924+FweOsamszPlCZtSjlDZGif4+F5ONypMqcVALQ6W9PqBzqPl1yznCZcs4Gm+ce/OGdofd2yndO4ShwKxxbA6J73i/ACln3fDkeqmE6StHmTOCmgurzMImPBJMBp6Qi/MpVWHuaO/N9ZVQIqU0Ogfc0QT9OgNcdTEZHRPgfporR46GKHJ1TokN68iet6qPMOWruni94bxLRxPURkwOY9s2jNge64XGEDO3KutREUaGSss09on0W+EIhpoZNxBto5O1x3+6KRqE4BuFEXr2gStawaBN3pTFOknR75WVSgR7uF0MQg616GeEv+6W7EnJE6Exrbi3z7bNiyCu8WHys8YI4aBd05JUhDTAsZP0EcvISL7IM98jVQgrMqdiMhIHEW+n2L7Bk6raXv4fvHOf6UKmoWtHWLHwxRlvdsgdYvchv3NByoMM6OhPOn3MvnjrIfiEZaBitson9l1REUIXY+e4Jepp+Aunk2UqRj55QrmeNDXp431c52LFkbvQ06ir+wMQx1YKNjhVTC1oYvVFDJ77jeY7d17JqyJZz1XM5+ZygzVGII7PBT+3Xdu0jWjvAAn+TMRabmMIpmqe60Mo45LxTx4FPfFE0uZjx1ENO6I+pKG/KZtwpqGnRnRi4Yek4CbfmRHPAKjdheSBooMWfxWEa/Fd6fnfEfMcf0NXoHqnI+zMroS9bodr4BtOlFFljnrs+XKMx7iQRyA9IA09lrKedNidvrj7izRrSyGJB6DuqOUUZYUW4HyRfUOGgKlhabTBUNnDJWXL/TxnpeEwlntQznzp0fBKETaf+OohFrvpCmDIU97+ZBH6PWh7aFJv/lluxPufGEyFHCWd4ZT2vHPRP0yEOZ1UEHCJWxYLDVPGg7dJxBg7Q4Nv8wZUcILj1uLuVc8o7WXCvBWkNz+Zr7HynZwtI86M44aMjgkpzIB2hDo6LF2pzpN5Z4KNKoWeMXw+8gznxM3wD6FNw9uJE7mXE3AEA1awMJZ600586CD7Sh/g1L4BwoKb3LgfkG0GFriCjoJ38Dm0rGZJxxv/hcKpOfBWD9u/Prs+GII/0NoM8p0HwFiU5VbL2Dc8fiQWt0xFQDdFf/SF3k20EPuBlrdKtgShZzU4nzXwLd1VJj92+rOsayOnpX3lJPEhSgVOLcsfl5G+aDrgUapvpP39YYUlfHk+91aKUNSTn3is9N6q7xoMmIs0ZjGLLcJC7SPGjrFpiAI9JXnXD9aGiUXb8l5VzVg7zn45oUcgvWR73VFUlnwjcMWKJRAH0Ylx+wGCWXTRRzPucuLYg15SoI6LABS724rGSRbh40WatLP0+TD3NDw1JmrpKQdcbZOmui2OCsLL6KZg216cjXGZURxLE7r3nQpIHRaPDMiZ8DLHD7R5JyptOw1sURxQYLxPfkYw9ux9qfR4rhOKWWbApKf8Jv0zhoMovf1a/kh8xMllqiLZOF5SY4B2ZLkc4EO6TcWtbiuV3LVxMntMkuv0m41hsHvSX9ZvZ98sv+SxRpS8IZcpxLkc4U6K7yYoTBMRPtwCZ6mwftdgGFQlpDM7OkJ28OPJBf+xZwNi/0MykknfXQAd5NUVpmxgllsK5006AfrKIw5MMvFvwolJwznXBxb/GkCTTya6JscL9ebbiTVLZHzjp4tUFXi7Tcx20Yi73ihyxJZAKV4ZyEB3Ee6V62ElLKLssViC80bDBfH3SlQJ57omMKVdpbRZn2Wro2xT9aypkWHpcLwMsr0+vsHArwakx68y6yuF3lC3tV0M42//iU7F2yDmN1Ry8b0QzECxF9E0Nx+HMc+G8LmqS+ZE5rJZirqhWaJAdtc01RUWAO3+tlzqESOnZTJ6MhOTU74R+AW4kM77uScFHmwLG97BHQGYu+EHso6LxA7YUULkwP7uIGG5zyoNmkaUlLXSwO1MzKOvCxRKzaeYiCx7XNnke9OEuWWgLWuttA6J5A2pXn5/ay60q6NQOTXH6Yi+PGho/GLmhzn3wNCUflaunjMDOWY82hzTfWERxlmIxEN+dnVTIgRvHSLFsWia6q56/Ymjm5LoUrxcGyzjqKK1dioBGPwflxUWahZVqTbKgaKvbduPuTIGtB7LDditcKIWN0Ws0mtr342vY9qd8BeYl3bX7w8TD0ajoG09VhP/869M6eIjGW37MseMprphRq8Ue54j9b6Kxzml0rO6cBjNPTduWabPtLcT4HVqSl080QqUaQAgs78nWIXLioOZSQDpaxjTSMsaZKjels9no2qKrHZ6adTrrv+On+4DVsHkJLYW0s8oUjAy+lUhQppLj43F9fQJkJy5WW6WJBh7ZQT0WrKsFTaonvwxL8H4xEhvCf4Pi9+CuHUskfK7Ggs3N4KSioKwzLzSnTBWJjeNd7xwrheFFDoEyQoUxkNu9ti3fTRTFTv5WTLkraYQ5fS9RjsB7H+S2ZflDKaZOJ8ZOJgN6+KccCUFPdFevyyrPpN2En4bUUMtqUVtCDt2RGgdxCo7IzkAS0NXpLkU6kxyDFcFydtD6WdMZeIR1znpTOEZR/d5wXsmyRpoEAwuWXVQWMzEDHHFeFM5JxDjMcVIQVcyZh7nWVnWZ+lHtAFnFxerlVj21pggGlOa2Uaw46p7x+aL+aMcw4u29KEWZk3EDClatZMdBmt+4bRyOxH7RKIiRgXIU2mNYVUiMBtvj2bZwdgXvunl1tJ7oZFkO0qJTNKyPobGQOlafQ/yCSrhc6Wb66ZZsTfcRGt+/irH4InWJl8nMlgrXu2Sy95ZVJ55eUeyqVKgzgUwknm3sulWEQ4AszlnWyviYx53KZ0JJRcXfwcsYYbZczfRK8dK/wkweOV9JnuN8VpCYNbqgbO2smYudfVUHtJCtLX8VlNBV+6I6rtuqRDQ0IkhakZQ26OCdrM0Qa6JWeBLEOnjSjSnRDKHFDh4qZ9yRCefOUi1sROS7Oc+1UjeKByEB5DquYzmxnjISsIdCNzaHa+vPBRmIsSHDzmTDmTt8x6vWf8pbrObZ6Tn7bwQfU2mdNkitJfH3NGQ9KI5pcu5oWJDCPDUCANM3rv5BtYHL1DC2dSck35hgwZWxWuiHOecqgIBS6je2+4+R8s9nI5cUDGA5J554jAHQNI+lSR5nug4vnn2g4gQys6d5lUCl7fULWZHuBI99IEN3l+EZVONxOksaOGwXVlK4aGjiXir6x1zvN0IOcXAIhQYi4dVx/AD0/ERkCm/Ng8trEhT2ZP7eHw2E7O97rzOVRY4d1sCnE4WuySL8x+7z7GNbVebWvUBDuz/6HB4Qv7FNyimvnqt2pJUemJdJ331WrVq1atWrVqlWrVq1atWrV6j8tcxtpLfac2Wvyb//vCTl00PozXpCtaKEvVxE7GOeKE/27E2RyCf/Euxb0C7LJjIkMNAkwC0FHAXVVVqS0YmpBN6QWdENqQTekItBkNrIFXVcFoCebaE4xmHNtQddRAehOYiqwBV1HRaAT+s+Ddl3XzP+BygqW9HHBCmnQVuaAWBLQpvRyv172fRHoHjyevb7sPG8zZYs97o/h56f/QyayarGdjj3/X+PpIFF6CehoGfnx7B/h3c5f7FwzutQiWEUrAG1NeqeNf8rm8pj8g+X8qkTy4W6XYfAZ0JVL6Kxwr5oa/oCM9Gbx8wvWdBQGE+mGM2XLjynopd2xT0pwBEA63tFzv8ilxL2O5xiHV/PPGSm3UnnNfpVW0foQ/NVZxRteqDs3CJGO1woBJV4f4Z6VZFwq1FmcNwPtJsOZEc2QmtePtk+pHf8QHtYOyPphoqDnh+Sia3XKbbgFWX6CezezmJtu205Ag9sxtcwIalFetxzQk0xaDH35ps25fooIaP2RDj7Ge24tJ9108c72cwdxXKr+GdY1tETv+MVA0QpROeh4Qxl/PEOMotI5Q3+HCOhu8HzxUwbhvCHL+HuOirRJyyrCYHwb0VjyURjZT3sdQZAxcrBi0JcHw5QkUtAmycgDHedjOjbIGxYFk/5irdgaPr9ePA1Z0hYYrGnZnC4sWDrK69gnSwT1zd60TPdA9+tSgmX1Ngssh854e1w82baLKMjWLQVN1h0Cde13By2bZqc0aqSy+HlioNHG71RZ9/irB94zeGy6JWCYCoLuUMcasQXJ3xem4GKgoUMSFD3p2oGgSMtAk5W0kK0FPGDyHfxLvTwKGsCov3tnnztZo06zBYKuy9KssY1DfHqk+GnbBGiVLX2kq8mDhD4y0H2VWSAiGauyq4p/sShotiR9Soq0Spd2ko3qILA7LumZJHOikWTIQbYvCjp8J0TkCwnyjktAkwRMLGV5hyXTrpR+/6eLgIYK/YFuAMg2Cibb0gWgn/SbTsy+HkmKMWXBQKuJxFfUHLZloOcKK/NMpAf/L9UdBHScrXpGCjDdiYemEA9Ak3xIILnmwYRRLa0NYl9HYu0RrdX9TosENDHqDDpxqD/Zt/td+6/+BNF+dFyrRgjYTjxJ0KTuTGdQI9u6qj3Wj1YTPWCLgPbrWwnoM617xrE80u+okbXzp4mAZlvqZb0QCdCfZGvAVJLHmD4dGe6ScR1/2HaCEtA0T0pywRBtVN+00e1PUCXQBJqRcjERUH4/m4JO7er3h72cAtAC1Uj4++P0CmgtNZJ4F2iQ1ei/CppsbplOik9AjR6sjgbJqoN0IApBg90mo11BKpLfpEqgSbuVTkW8Y0WW9jpwIg0J3fbEr24koEl6Nu35b680rASaZCuGRsIA3fgJPxno5HiGbl0g794Ro6P3bIf9Y1UJ9Jx2ihPbJJPjg0EMBZ2coLrSQbt0wEKHgf/4PG0l0BbJSRzv0NKhXb5gW0Dm64j9bnS3c6BKh+AmqfkFWXf/JfSVQLNM5/HmAyv6yz7pvVNJXnaTjGbCAZHMqdQjQ6QuG+fc6eziPzQjXg20SbxKbCeBHoEX+n8S/mjlsQg2JNpRb3bgOZGBdslMDUvLPCG+V70g//+vUjXQnYFCSQ5nk/ngk27NHm6OE4PuwpGi/FFYxiA07uQ4/on/uQuUy2D/nE3JLDEsEYjze1QRdIfl4EQGxiwjVrT1CJvKQtEJlLqPLGg95XOGUzo/iTTDYJOSufuZ/DpVBW3dBPkucdQ4EtDo1OcmyiNkctCWKB+rce78S6oKumNN+WTwQCEnM9DuLh2qEI2kc8INrEy+LFBxH9cfr5UTehXiTSoGOPwBJdyk0Q+I1pgzJZlED2A212c7KDhSv3RsL861huiWrPPIEFBEVxnglFHDKLnb5a9R789noD+sPpwtwx+8IQPtfEZiHgzroCrGKHBnqlj5E0/s2ZEt72R1rJWC1eAAQxnT0c3xf5EdQ3SVjjVYBlsYIKQ7vtF2WRzR4qsX7F24nks7BtY8OKK3r9BzsOeHa79/PSSM/h/pvq1JMARwgQAAAABJRU5ErkJggg==;" vertex="1" parent="1">
          <mxGeometry x="1060" y="730" width="260" height="101.11" as="geometry" />
        </mxCell>
        <mxCell id="AEIaR-JQplcSrDzmcX76-109" value="CORE --AWS&lt;br&gt;RAN -- Data&amp;nbsp;&lt;br&gt;Cisco&amp;nbsp;" style="whiteSpace=wrap;html=1;verticalAlign=top;labelBackgroundColor=default;" vertex="1" parent="1">
          <mxGeometry x="1140" y="850.005" width="120" height="60" as="geometry" />
        </mxCell>
        <mxCell id="AEIaR-JQplcSrDzmcX76-111" value="" style="shape=image;verticalLabelPosition=bottom;labelBackgroundColor=default;verticalAlign=top;aspect=fixed;imageAspect=0;image=data:image/png,iVBORw0KGgoAAAANSUhEUgAAAaMAAAB4CAMAAABoxW2eAAAAulBMVEX///8AAABzwFD6+vojIyPv7+/AwMAqKiqDg4PV1dXo6Ojr6+vf39+UlJT5+flqvUJvvkq4uLipqalzc3NUVFTMzMxCQkLz8/PDw8Pc3Nw3NzeKioqAgIBqamqampqioqJcXFwLCwsZGRmwsLAeHh5jY2M6OjowMDBVVVVISEi03KT4/Pas2JpnvD2b0YXO6MTq9eV5w1jC4rXX7M+GyGm53quf0omm1pKMynHm8+GJyW3e79aVznyAxmBgCU8yAAALp0lEQVR4nO2c6XbiuhJG7TAFGjCYmTAEQkIIGUlPp5O8/2sdZFs1SLJx39CXXuvU/hUs2Zb0SaVSSY7nCYIgCIIgCIIgCIIgCIIgCIIgCIIgCIIgCIIgCIIgCIIgCIIgCIIgCMKfpdarDk5dBiGLcsXfc107dTmEVC78hN6pSyKk0PaBL6cui+CmiBqdn7osgpMRSuSvTl0YwUmZaOSfujCCk55o9NdTIxJ1T10Ywc01atQ+dVkENyWQ6PbURRHSqI1jiTqnLoiQQXva35xXT10KQRAE4S+gVA4vJhdhu15wp4+uwslkFvaaB55TKIxGo/x7QSlvo6+NipW+b7EveEPlKGU/qNnbZzs/mM17ftrd3d/tXp9/q5j/B0qNG1ykXIdWPXodTL7ki5ihX4xY9fc/mu3pIspU9rzZIk4oOrYcmuMVuauf/FheGNnaU3ztsuPauaAFH89YuavJ+1dqYVzGRdh6li7T0/fWQxC0Wq0geHj58YoJc12ZJb8hecnqxig41P1Ql8jNuW8wZT5WdcNTi2WSCOG2ileAjSB/SJc9G+uFV5A290jge8IyNRZGqSpl4zHNiZHjgvT3qr7Y93pjnu3cOSy2d2dB6wxpBS87nYaV4T0U+i7vQNBgx1rx1SumRHs6aK4u7NQpWjzQ6KZH2nRIy++PzFfidoRqLXg/3Zoorxyl2jCTN1xYGVbYuVCjhpVt6RiTu7PgzCT40GMJxiELVxWwRehlDG8ND7Z+Lka+E9hu27hS15AMGrEGU2Wrwy9zcTqElIb66dLIGtoJpBvPnRlgrFWdyZoro0jbd1uhaCz9iNMx8ku7CdoDn87T0Ckqv6VEKiXfia5DwSnRvsPqcVZ2Jkf95xJ+Gla5yxMcGl36acx0FrdEKFK2RobNen5puSRSQ+nnNsqx1Dc2yG2kcajoFVfeT+BujdvsZF9Z+ZgMjbCV+P4qXp/wKp0ffKsfz2Ae22E3qJpvycwW8U8rTaL9UHqJRMIugbfVyeOIDcQxd5y9f/oagh7QYXodEycsQyOvD7+Zx47eWvwaS6M0QxcTjeAv6enF+CGHNCqi47A9S5doL9JXlQftDc5lbKJDPdxz1/8OcQjWnat24zb6M+mrbG9n0is1RyHxL0YHNcK0OXklNu+159Ro6GewjHVFc+l32/VmrUyG3nkujdBqel+zJNqL9KgyQc9C92BBHwd2bWC0wqfBuibNOAjRjpEe39UjC0WNXWpTo81Fo3FeSaz9Wl8tklfiExJzY2hUYB7dpF2r1dvgI47jqY1s3upuTQoSdWlDo+twVKuXO/SSHkj33F1oKfic9OTRnqOnYraDjP4BWMXicVa+TfCCie91rn1lHEbEtcQBXjWaZu9JhLxY6PfgFI3dTJsCQ6MZeSCsagfxUugy+Qlda4luFpY2muaYRh3ttQzIeEvK9A+TKGh9fX98/2ArpbOWmpLAawiTZ019hu4ssKo+kscwWFitQQA51vQqzDJRU1CN7LUhJMHQJFOcNgWGRuSB1Fiofqw7Es6idObHJ6tyVFOegyIlpvadyBF87GI37vkbVal1T1tjnLQdl0ivwHEtc6QYQwGske/YvoFEtuSDIb5QTUE0cux0ozcEj4ArYBy4RuSBfKVZxRkEhhpbOuLSeOgxjZh71YTLcVzn7YFI9I1k/BHwgYReQ2xnyOIoJu6hYE6PdjiDDP1J3UjDyZ1fZ2XFJg09G6xX0mlJfpCUa4RThjm0sXwQ2+Eqwq2qS6NGRlABvcbogY84Xh5eWcZvKFKgokLgr8XjHb3WhGhlVuA/jwFzrtdzFmuxOoqJUgXb3LkYQAcheTTUrAKGkWlUgMGwSA2x41BIQXVh1MjoezjVK9OxRYki14CCzkTkf4PXsFQlq/km0cCBdduRPAaPyh7Tn2cG6jiqTVEj5/YBjsXYXGPLoTvONCoZN7g46FYrs5OqEU5myiS+og6P1os+QMAHNU0t9I1qiNhRwKgFbvWPI3kMCnu93tFuXdZqPyKK+rMS2qDpKvFnYhamEfby9NUFd3pdNDM0wm6j4jf3KMOz9aKngI0xmAa7tNTFhf5rTjvAMb8vcMS9JvEwtQyuiXJwDmmEbo6a8bEKZLJhGrUPPE9x0AirJUxOjcCra/20X7R9YZ4d3lki/aQMC4E1GV3HPc7piHwVo2qt7QSOcskPaYSDX40c3PAhjinTKHTlMMiIUCXUc2mkzBGowHw6DSr4rn6C1zAjiyPSgCNvof88mscQM2Crb2zwgxqpSMNBjbDDXZHJhm5XpIyjdGNxWKN8tq5BXYbg1fGmb6DRL/UTvIYbnMc7ZE4/h8qujr67/qVh7qipIdL1D6BWJwc1QpM5JiEEmplphCGX9K/63DFCSn6NYMZxTEeet9PJrY/oN9yKBqFH5tw1TLeukMCn6RmDKSSGaeYVnPD2StMIc5QhnHJJMzCN0KWdO5+mgObfpBSMxxnyaRTk0ch25lRndvgwf+jb3iaNHat3g0nJOuR7WCP6oZ6GBTWYRrj26ac8juqYcQDpKLbuzvAo7EUR30nW/MEPQGpEpRrpHhm35NDInj54FXicAX0M0/kugbIwHjM+tMjpM8ASqHXneMhPSE0WT+QjD1Jra3gd2WPgoJ1tk7lwln5DDo3MdbLZ+lwjXAssjHm3C+EmnADSC5ZTI/TcPuxnbCEGoRU097Y2xiNjlodOIf4mIzY3o6m5outPo5rNazAyOTSyulmRJ3ONSH37rKpqgE1j2XCEm71nBiMrp0Z3uIZ9swq+w9lKW0KjKm0sG+HYHsOG1RO94yvaFAu2WCnd+GP7zEm6RmYU37BQxt4E2ZYpkqNY8bZMZcRvMZ7VcJ05ydToDWNBv8xyk1jewxbfQEmawVhjHtljUEG5ZQjDAu2tqiuJNBDzFM0vleSWPBoZBxTMaKOhEZuXb8ulplcYDHGiDKEIMeTcY3VMVMupkQcynAXmjASzUbKEtUoH3hSP8sJ0G05vLz6vlw7OXM571VE1JMtWNXKoU3lZjixPfZbkWcci5dKIV8y0T+Z5BiOWW7zhi+noACbxFYvzSIRBW6/n4pGUV6N7Mlh4qIEcuSMhcRbFhHmCrVySodwch4Nmdf3pUw3GKVskngyNw7p96mRWIvuXSyO+rWwmWueCUgsVUVQaGaHvNbvFODmWrdEz2coL3nGR9PZBNmJf8HbqNeDpb1oe7THc9pqNxsBbf/K/VTkC7Anlw80VLWDyaUSrYE2olkYZB7PgPbOsLHUvv0bed7op3nqMvph4fnqne+XBjtxP3kP2H0jvTaox2Hj1zlXfK2d4xTlID/LrbdOB6zB4zCJqrHwa0biSFYezz0DaS0Xe/oqMQ3hRhCK3Rlt+vCR4UPDT+V/p/aRfk6qQPpM0RK/h1fudjlf73He+qZtlFfB6B2kjaRUXJadG2BvsEjvOEteXvpslNnjqFmRo1O2ARt7ugWkUQzUKmFeO+yvdzKujzn4cdYZe9bP/Bcld0S71vNwdVjd1To3QRbSzOb+bMA5GJUxpwcoLV5ZxskWZXyO0dq3g5cfT2/Pz89vuET+jMHctwGtgfn/XujoefAmbE2/66Y+xa+Y3PL4Vzazam319eG9ejfQK4tJOcmpkfTTkGx8+eY7vj2jZf0MjfVA1+CAnGra75ISx/nQCgCo7K7iEbtTrK2/hIn3PPz+DkG1CjBt2IIMHxRcd0jPyaqSnWseOAzzBMIM9Hhy7dATBSg3ml9+SrxdQI+PzJ9QIvJftL/XxXmvHM3r3D/uLD6ZEUGBeXB3xIh1ttLnu9NPD97/HYDif9lfF1WYSWt9zxTR7s476JrLfmVeZhoWS5tA7UnPBEywntdmbX/eL+7dOZ8M0D7Z2ddGtFIvj61mZPRwLZm63QQKpyLevH9/tzYnX94+f5mEhrErTebXAr/0FX9IKgiAIgiAIgiAIgiAIgiAIgiAIgiAIgiAIgiAIgiAIgiAIgiAIgiAIwn+YfwGfjqhY5TfNVAAAAABJRU5ErkJggg==;" vertex="1" parent="1">
          <mxGeometry x="1384.5" y="721.24" width="419" height="120" as="geometry" />
        </mxCell>
        <mxCell id="AEIaR-JQplcSrDzmcX76-112" value="" style="shape=image;verticalLabelPosition=bottom;labelBackgroundColor=default;verticalAlign=top;aspect=fixed;imageAspect=0;image=data:image/png,iVBORw0KGgoAAAANSUhEUgAAAVoAAACSCAMAAAAzQ/IpAAAA7VBMVEX///8lOFgmhP8bMVMAe/8jNlcgfPcZL1Ikgfxud4l7g5NrdYgAJU0eefTJ3f/k7/8Zc+7Cxs0XcOsAUswTa+YAHkgOZd/p6+6DjJsMYt0IXdcAef8EV9HZ2+Abgf8NY93T5P8AGUVJV3Fzqv+60v8LKE2Ruf/w9//N2vO9zO4APsgAQ8n09ffC2P+JouAASsoAFkS0uME6Smalq7bQ09mcoq6ty/8/j/9ZZXuSmaacwf9Olv/f6//h4+egprFcnf8AZ+qGs/8Acv8AADlXmv8AZOsAV98kYdBkidpFU22UvP9ppf+bsuYAYuYvQmAG5eqwAAAL9klEQVR4nO2dDXuayBbHB4GyUZrE3svVXKtRm6m7LdnGaBJNYtK0u7037Sbf/+MsoOC8nIEBmYjd+e/z9OkWhpefh+GcM2cGhLS0tLS0tLS0tLS0tLS0tLS0dlD+flEdbPvSq66DL1ZBdW5ut33x1daoUyuqnqUNN1W9wmhrvfttX3y1dbUB246/7auvtN5tglb3CGm63ACt7mxTdWBptKq0QWer0abrWqNVpVHxHkEpWv9u9mwYw3lX4TlU631hs1WJdu5h0w7kDGYtdWdRrFEV0c5c21jJxLvL9rJol6AObRsba5nPqk6jXjcF7VYZ2pZnE2gNd6LoPOpVtEvYCO3gbJDoK7Nt7pBkDft8k7vbrvrF8l8boTXWhmm7zLYhZbSGcbbDyYrTQmyVoXVpsoa7yx5YIbbK0A5+JrSo38vf4b6Y1Xo7jRaN/sjtg6nra82fp6+NdJnXcJWhvcAUWXO2yW1VQv57KxdcZWhbHt0fNDe5q4podH1lyeNVhhbNyd7W2X2jXer2+r7WoYbFhajVoUV7STxm4x0OGHiN+vunJ4mEGV2FaNHEcR0zEPbaG5yk6uqLXAeVaBFqtmfDWX28685BqraEdif0pUPry+dIfy71ba2PS32I9fb3sLlGKxYVxP4S6NWrV68DHR4evnnz5t+B/hPq6Ojov6HeBvrXUh//52u0aaKBgGxDuMcA20//12jTxKS612wPs9l+HGm0KXpgvSeWbdwpHB9zbD/+qtGmiBv84uw2NtzjAC7NVqNNFVB8JM1Wo00XUHxEvcsOxWx3Em1rMZ02p+lJ3tZ0PLmYzy8m4+4mUck1AEeSbYD2dgtoW4SAOxdvbo3r59j1XNf1xLmHxWRmui7G2HGCPzz8XG8yRyGUfhtgWX0W27cR2wDtgWhwRyHa2ZkX62yPb0xs/kpkHP3J0MPO6sD2UHDmyeMAU7l223Zcd48w8u5Xb62M++B8BGm2AVq0BbR763t36nzjxnqzm6D15y4mhoIFaOcYM+PFS5neLIHbJfPFGfcB18zJ9AkhWlGdaLXQjh16bAJEy+5EwR3ESbY8aNH3DLZ00HscO7hLtKDNVw3tnscYI4DWn7E70cLni2i/XGgFlrdkCyQUjmK2nwK0J4L3WIXQ+uecNfJou6bD7sTIdKfRjrnQCl7zYraroDdEKyrBrQ5a/5kZA4bQNt1Uk1028kK2+dCiE/hllMU2RIvu4R6hOmgBshza5lkm2IjtIjdadF2IbYT2FDbbyqBtQA86g3bqAftAzez8aHOzjRK430K0CGxYGbR3IDUabQvsDWzTcUyHNnmnkR8tuszBNjbcJVr4RVYRtK3B+lCmg4M4LBAbjfFdhom9wfmsXq/vDZ2B66yP4TUXudGifk3kJ9DJ8cRwj1do4ermSqDF01n8P45nz+bjZnexaC263eaYaFBnHAgb48Z4kWz2m20jMWv7uUuWQUjej/+uI4jLALaRh7tCCwa7lUBr1p0VLKc9FZ2M7WixMeEyE83HGK5TJ01c+o76N1DJhpBtjBac8FAJtMbyr46ZVpX/THW0Jr4D9xrHvS7VeeS4p/37DlA3Jxp4iNFC86SrgTaSt5eWGRxTVaXOuSib5Q+BMDjXXY0u73uW1aMkSo4naIHutjpovfSJJAZptKklZA2ebc77CqKzk+uHd2v9ELF9StDybCuDNoMsZbSOKNe4OjLnIue6K0BhLEuxjZ0wAi36YVUTLc4oCyN7Wvs5Y0zhmfV/c9wTqGj4DEoykmjRd9q/qAhaO2PKHuUeDLJq9xdsbIHep+p3sf6K+CxHJgG2T33yvP2aVT20bkZlc514xp3sukdm0pqBaus3kvX6tWVZcX/5eaWno6dAq8HET4Q+hIVdq0FfPoFLow3n+PcqhtbOemRtwgwdiSFGZpIKuhI5qVR0RdV1xQUyH/5aj6dzTVm0aHTdiz3jaqDFF+knIvsDZy5xZYzZoh+9fGypwi5/XarAJhQ4tIH239U6oe+20bI+paH1Fvx2UiQpT2aSeos2W3pVg5x2G47aWjWY7ec+ePqDk+/v7q+qgDazPzgnkjdysyJmdDR2Qr2789ntx9/IAhuarQDt5ioth5CByycy4Hicvu9KEypuYPMnueyWRkuzrTzarO5zSjzeUv0BQlTiK3gormq52SbFRzRaqm3l0eKMxRIIE5Se/E+5tvwSMjnslkVLtq0+2oyHnPBqHaAOB9QjjZbLqMrbbYB2JOpPqo82I2AYyht4IjZf+wdQoCzHNkCLLEHbyqPNisWInEDWr5CI8mwRtBSHLNsQLVsCErfddbR+Dg84EeUihP/wg0uoSrL99BuU6V627fQlLyevXgot8bZ3ZVe1GrNogSIXuXdZiBYYs43a7jpacpI6lq1RbrJooQIZKbsN0UIrgoZtdx0t6aM6stfW5Ed0gfErGbYhWnA4PGi762jJiMGUvTYALe8lSLGN0IJr1Gm061EGeEJIBtsILbwg+y9WX/Z6cmoLaDfpEAIBi/Nksv0WoYWXPdh1tGX1taEe8r/LlmjhmrldR7so5CEICpNO+QKODLYrtGDN3K6jJZ2v4n5trBFf2JXOdoUWiDl2H61PZLGkozEhWoRuf7CFXalsY7QIKGTcebREEssVltsxuhCjDSKA66tOryc5XpagPdgOWkNleoYYv5EcZECozaRnWB1cPtzUej1iValXArYJWmA6rjK05BA25raWh5YY6JIaz2XaiKtnRoRuRWyfErToln0HKkNLGgbvFZWHlrBA6QUEcxeBjixBn0CgRQdX1sugJbozoLKoPLRkglAyHKPXHZRpEaIF2ZJoWcdYFVoy2QfMSywPLTXsKLdYK+UgyKOF2NJo0T5puKrQLsjYvsFtLg+tP1ifKKvQJj45VT4j02JkCfwEBi1Cl7XEeVOFlkyJAjVu5aElR3DkhnR9unxZpsmqhpZny6ENQrr7sGxcIVpy+AkYDiwRLelJSQUNk2JoQbYA2mDv08B361hf+jKHzq9z0q3l6ZSIlkwIQMfiRJXn50DLrJYUsX06FTa57Y9kDp1b1HxCoKilRLTU8+1mZ2gmbBGohEZJDS1b6ClEq0xUgSxQ1V0iWupc2WbL9LS50JJsl4Wen18cLVUDDxW1lImWShF6WXkEukxRFm381mfZvjhan+rOoNC+TLRkdBKcOL1LaLNGKzdNJIlhif42KvR8abSPlOMIfRqgVLRz6jtQqZOb5uwnISTRQnmwkK0ytHDquUvP8gYj+1LR0mXeaVPy6jxZObTEeDjFVhnawWzC0W21maV1wE8DlIqWThKKJ5IuHlfmnX+O7gOYvz18rQytaWLX2LtoxkvrtaZ3Q4+ZOwRHSOWi9WljNF0o4PXbXjz7mZo7JXWnJ3B9sjqrDa/QDvB6nmuGd+S5mH3/Gi6Yny4XLbpjHnRsXDCWO6278W9u2/nXQxgJVrZWijaxTpuJclYW8gi2LBktemR+Uhu7j/NmN+TrL6aThkks41FoFY8beC7Ji6CFZQvyfGWjbfHL09hO8DQNgv/CZ4mctVdk7Rm2+Chm29keWrDXQ+WjReNB5rWsiBdZMSmwfXicd3toMZ+pXap0tJDHCpLFBdb5CgXPJdkaWix0MctHi9oyC33ZgwKr00Xivj0asd0WWldks0rQonn6WpWhTCfq+oughVdk3w5ae5Aydq0CLRqfZfzWeBVMFELLVygHaK0toLXd87QclBK0aMGvF0rI9AqtX5uI/xyxQrQeuegbdReukV7JogZtGDvAay6HYIeFVl0mtM8VyKhDi5r1czfwGkm30TYdFzeyeDSwE8uF0K43D/J9ndCf267J0bWxNyMeou6Zs1aOg/OTSdShDdRq3tWHduiYe+FihwOjMW9KjKK01wLmKBKb67k/BNtsBEGCY0aVUbYdBuKD4R0V97bqxOnzHJpjqxTtSv6iG2ghW+GqWNNJffgcPD+m/TysX0zL+1zcPlMi+hJoqyjfL/8TfExh1z8VrRp9Jw1Xoy1VI6JwXKMtWQcP8apSGm352n+ohZ8gVhbo/rM16p9cfr/d9lVoaWlpaWlpaWlpaWlpaWlpaWlpaWlpaWn9fPobmJHVK878WzcAAAAASUVORK5CYII=;" vertex="1" parent="1">
          <mxGeometry x="1421" y="1060" width="346" height="146" as="geometry" />
        </mxCell>
      </root>
    </mxGraphModel>
  </diagram>
</mxfile>
